{"glyphs":{"\u0000":{"ha":347,"x_min":0,"x_max":0,"o":""},"\r":{"ha":347,"x_min":0,"x_max":0,"o":""}," ":{"ha":347,"x_min":0,"x_max":0,"o":""},"!":{"ha":476,"x_min":69,"x_max":404,"o":"m 228 319 q 203 336 207 336 q 188 324 200 336 q 167 310 176 310 q 140 288 160 310 q 118 229 118 263 q 119 213 118 218 q 121 194 121 208 q 123 169 121 179 q 133 158 125 158 q 143 183 158 158 q 138 199 138 193 q 160 207 138 207 l 168 207 q 196 193 193 206 q 208 181 199 181 q 221 194 217 182 q 249 211 225 207 q 265 213 256 213 q 279 206 279 213 q 267 189 279 200 q 256 175 256 181 q 264 169 256 169 q 281 174 269 169 q 315 179 297 179 l 336 181 l 319 199 q 307 238 303 215 q 308 253 308 242 q 304 281 308 268 q 293 299 299 294 q 274 303 288 303 q 228 319 247 303 m 271 383 q 254 396 258 396 q 241 386 249 396 q 233 369 233 376 q 250 348 233 363 q 275 333 267 333 l 276 333 l 278 335 q 285 351 285 339 q 271 383 285 372 m 175 378 q 158 408 174 407 l 156 408 q 132 397 143 408 q 121 372 121 385 q 135 350 121 360 q 163 340 149 340 q 171 343 168 340 q 175 378 178 350 m 286 419 q 296 418 289 418 q 311 439 311 418 q 308 456 311 456 q 292 443 306 457 q 279 426 281 431 q 286 419 278 422 m 139 481 q 114 535 131 522 l 96 547 l 100 519 q 119 463 106 492 q 139 435 132 435 q 143 446 143 435 q 139 481 143 456 m 358 519 q 364 511 361 511 q 372 523 368 511 q 375 542 375 535 q 364 543 375 556 q 358 519 354 531 m 311 811 q 260 824 290 824 q 153 783 197 824 q 110 681 131 765 q 119 660 104 660 q 126 646 135 660 q 119 621 119 636 q 126 590 119 606 q 133 579 131 579 q 147 621 136 579 q 188 714 169 706 q 197 717 196 717 q 203 710 203 717 q 192 668 203 701 q 176 590 176 625 l 176 578 q 172 517 176 542 q 169 492 169 494 q 188 454 169 476 q 224 432 206 432 q 276 465 243 432 q 342 567 318 507 q 367 685 367 628 q 311 811 367 774 m 200 846 q 265 860 229 860 q 335 839 303 860 q 382 783 371 815 q 400 660 393 751 q 404 572 404 608 q 361 467 404 467 q 349 454 349 467 q 333 418 349 442 q 319 358 319 393 q 331 314 319 329 q 342 267 342 297 q 346 235 342 246 q 367 208 350 225 q 388 178 388 188 q 385 168 388 174 q 310 146 376 154 q 229 139 264 139 q 210 140 214 139 q 194 142 204 142 q 149 133 178 142 q 104 124 119 124 l 83 124 l 83 183 q 101 276 83 242 q 115 310 115 303 q 106 326 115 317 q 86 368 86 350 q 90 392 86 379 q 94 411 94 403 q 82 460 94 425 q 69 533 69 496 q 71 585 69 564 q 200 846 81 792 m 165 251 q 189 267 178 267 q 197 250 197 267 q 189 225 197 233 q 171 217 181 217 q 157 232 157 217 q 165 251 157 242 m 233 224 q 221 243 221 231 q 228 260 221 253 q 244 267 235 267 q 260 258 251 267 q 269 244 269 250 q 258 228 269 236 q 233 224 247 217 z "},"\"":{"ha":624,"x_min":74,"x_max":546,"o":"m 503 446 q 482 458 494 458 q 456 446 468 458 q 411 426 440 431 q 383 418 392 424 q 363 394 374 413 q 290 347 331 347 q 276 349 281 347 q 263 350 271 350 q 253 346 253 350 q 279 332 253 338 q 393 311 354 311 q 411 313 406 311 q 467 331 438 317 q 503 358 496 346 q 510 403 510 369 q 503 446 510 436 m 431 635 q 407 651 418 651 q 375 643 397 651 q 353 625 353 636 q 376 613 353 615 q 422 607 418 608 q 438 606 428 606 q 444 610 444 606 q 431 635 444 617 m 438 865 q 426 885 438 881 q 421 883 424 886 q 428 868 418 878 q 438 865 438 858 m 297 914 q 265 954 271 954 q 240 928 261 954 q 204 882 222 903 q 161 813 188 864 q 122 726 135 763 q 107 613 107 681 q 118 521 107 561 q 168 444 129 481 q 294 381 235 381 q 336 407 336 381 q 299 454 336 431 q 271 483 267 474 q 288 497 275 497 q 332 476 300 497 q 383 454 367 454 q 399 456 393 454 q 442 478 429 460 q 450 496 450 490 q 439 504 450 504 q 417 500 431 504 q 394 496 404 496 q 367 532 367 496 q 367 539 367 533 q 368 547 368 544 q 371 574 371 569 q 367 585 371 585 q 339 560 361 585 q 289 531 310 531 q 188 578 242 531 q 164 604 169 594 q 158 632 158 614 q 164 660 158 660 q 186 635 168 660 q 234 588 201 608 q 290 568 267 568 l 294 568 q 317 576 311 571 q 322 594 322 581 q 274 661 322 611 q 224 731 224 711 q 235 744 224 740 l 238 744 q 288 706 250 744 q 335 664 326 664 q 403 692 376 664 q 438 758 429 719 q 443 806 443 789 q 442 818 443 815 q 435 835 439 832 q 419 835 431 838 q 392 844 403 829 q 351 867 385 856 q 297 914 324 875 m 253 978 q 279 990 269 990 q 333 932 296 990 q 372 900 349 907 q 389 897 386 897 q 413 914 400 897 q 439 931 428 931 q 464 904 456 931 q 478 815 478 864 q 451 710 478 747 l 436 689 l 456 667 q 478 618 478 639 q 468 590 478 604 q 426 567 454 571 q 396 547 397 563 q 394 543 396 546 l 394 540 q 414 533 394 533 l 436 533 q 447 534 440 533 q 457 535 454 535 q 474 532 471 535 q 479 518 476 529 q 506 490 482 501 q 546 415 546 471 q 508 326 546 361 q 372 282 460 282 q 289 292 329 282 q 190 349 213 310 q 140 411 178 371 q 93 485 107 449 q 75 592 79 522 q 74 631 74 607 q 82 697 74 667 q 129 810 96 743 q 178 889 163 876 q 217 935 200 908 q 253 978 239 968 m 292 801 q 315 810 306 810 q 324 801 324 810 q 317 781 324 794 q 292 768 311 768 q 269 778 269 768 q 292 801 269 788 m 365 749 q 358 751 361 749 q 356 760 356 754 q 367 782 356 769 q 386 794 378 794 q 394 783 394 794 q 385 760 394 771 q 365 749 375 749 z "},"“":{"ha":624,"x_min":74,"x_max":546,"o":"m 503 446 q 482 458 494 458 q 456 446 468 458 q 411 426 440 431 q 383 418 392 424 q 363 394 374 413 q 290 347 331 347 q 276 349 281 347 q 263 350 271 350 q 253 346 253 350 q 279 332 253 338 q 393 311 354 311 q 411 313 406 311 q 467 331 438 317 q 503 358 496 346 q 510 403 510 369 q 503 446 510 436 m 431 635 q 407 651 418 651 q 375 643 397 651 q 353 625 353 636 q 376 613 353 615 q 422 607 418 608 q 438 606 428 606 q 444 610 444 606 q 431 635 444 617 m 438 865 q 426 885 438 881 q 421 883 424 886 q 428 868 418 878 q 438 865 438 858 m 297 914 q 265 954 271 954 q 240 928 261 954 q 204 882 222 903 q 161 813 188 864 q 122 726 135 763 q 107 613 107 681 q 118 521 107 561 q 168 444 129 481 q 294 381 235 381 q 336 407 336 381 q 299 454 336 431 q 271 483 267 474 q 288 497 275 497 q 332 476 300 497 q 383 454 367 454 q 399 456 393 454 q 442 478 429 460 q 450 496 450 490 q 439 504 450 504 q 417 500 431 504 q 394 496 404 496 q 367 532 367 496 q 367 539 367 533 q 368 547 368 544 q 371 574 371 569 q 367 585 371 585 q 339 560 361 585 q 289 531 310 531 q 188 578 242 531 q 164 604 169 594 q 158 632 158 614 q 164 660 158 660 q 186 635 168 660 q 234 588 201 608 q 290 568 267 568 l 294 568 q 317 576 311 571 q 322 594 322 581 q 274 661 322 611 q 224 731 224 711 q 235 744 224 740 l 238 744 q 288 706 250 744 q 335 664 326 664 q 403 692 376 664 q 438 758 429 719 q 443 806 443 789 q 442 818 443 815 q 435 835 439 832 q 419 835 431 838 q 392 844 403 829 q 351 867 385 856 q 297 914 324 875 m 253 978 q 279 990 269 990 q 333 932 296 990 q 372 900 349 907 q 389 897 386 897 q 413 914 400 897 q 439 931 428 931 q 464 904 456 931 q 478 815 478 864 q 451 710 478 747 l 436 689 l 456 667 q 478 618 478 639 q 468 590 478 604 q 426 567 454 571 q 396 547 397 563 q 394 543 396 546 l 394 540 q 414 533 394 533 l 436 533 q 447 534 440 533 q 457 535 454 535 q 474 532 471 535 q 479 518 476 529 q 506 490 482 501 q 546 415 546 471 q 508 326 546 361 q 372 282 460 282 q 289 292 329 282 q 190 349 213 310 q 140 411 178 371 q 93 485 107 449 q 75 592 79 522 q 74 631 74 607 q 82 697 74 667 q 129 810 96 743 q 178 889 163 876 q 217 935 200 908 q 253 978 239 968 m 292 801 q 315 810 306 810 q 324 801 324 810 q 317 781 324 794 q 292 768 311 768 q 269 778 269 768 q 292 801 269 788 m 365 749 q 358 751 361 749 q 356 760 356 754 q 367 782 356 769 q 386 794 378 794 q 394 783 394 794 q 385 760 394 771 q 365 749 375 749 z "},"”":{"ha":624,"x_min":74,"x_max":546,"o":"m 503 446 q 482 458 494 458 q 456 446 468 458 q 411 426 440 431 q 383 418 392 424 q 363 394 374 413 q 290 347 331 347 q 276 349 281 347 q 263 350 271 350 q 253 346 253 350 q 279 332 253 338 q 393 311 354 311 q 411 313 406 311 q 467 331 438 317 q 503 358 496 346 q 510 403 510 369 q 503 446 510 436 m 431 635 q 407 651 418 651 q 375 643 397 651 q 353 625 353 636 q 376 613 353 615 q 422 607 418 608 q 438 606 428 606 q 444 610 444 606 q 431 635 444 617 m 438 865 q 426 885 438 881 q 421 883 424 886 q 428 868 418 878 q 438 865 438 858 m 297 914 q 265 954 271 954 q 240 928 261 954 q 204 882 222 903 q 161 813 188 864 q 122 726 135 763 q 107 613 107 681 q 118 521 107 561 q 168 444 129 481 q 294 381 235 381 q 336 407 336 381 q 299 454 336 431 q 271 483 267 474 q 288 497 275 497 q 332 476 300 497 q 383 454 367 454 q 399 456 393 454 q 442 478 429 460 q 450 496 450 490 q 439 504 450 504 q 417 500 431 504 q 394 496 404 496 q 367 532 367 496 q 367 539 367 533 q 368 547 368 544 q 371 574 371 569 q 367 585 371 585 q 339 560 361 585 q 289 531 310 531 q 188 578 242 531 q 164 604 169 594 q 158 632 158 614 q 164 660 158 660 q 186 635 168 660 q 234 588 201 608 q 290 568 267 568 l 294 568 q 317 576 311 571 q 322 594 322 581 q 274 661 322 611 q 224 731 224 711 q 235 744 224 740 l 238 744 q 288 706 250 744 q 335 664 326 664 q 403 692 376 664 q 438 758 429 719 q 443 806 443 789 q 442 818 443 815 q 435 835 439 832 q 419 835 431 838 q 392 844 403 829 q 351 867 385 856 q 297 914 324 875 m 253 978 q 279 990 269 990 q 333 932 296 990 q 372 900 349 907 q 389 897 386 897 q 413 914 400 897 q 439 931 428 931 q 464 904 456 931 q 478 815 478 864 q 451 710 478 747 l 436 689 l 456 667 q 478 618 478 639 q 468 590 478 604 q 426 567 454 571 q 396 547 397 563 q 394 543 396 546 l 394 540 q 414 533 394 533 l 436 533 q 447 534 440 533 q 457 535 454 535 q 474 532 471 535 q 479 518 476 529 q 506 490 482 501 q 546 415 546 471 q 508 326 546 361 q 372 282 460 282 q 289 292 329 282 q 190 349 213 310 q 140 411 178 371 q 93 485 107 449 q 75 592 79 522 q 74 631 74 607 q 82 697 74 667 q 129 810 96 743 q 178 889 163 876 q 217 935 200 908 q 253 978 239 968 m 292 801 q 315 810 306 810 q 324 801 324 810 q 317 781 324 794 q 292 768 311 768 q 269 778 269 768 q 292 801 269 788 m 365 749 q 358 751 361 749 q 356 760 356 754 q 367 782 356 769 q 386 794 378 794 q 394 783 394 794 q 385 760 394 771 q 365 749 375 749 z "},"„":{"ha":624,"x_min":74,"x_max":546,"o":"m 503 446 q 482 458 494 458 q 456 446 468 458 q 411 426 440 431 q 383 418 392 424 q 363 394 374 413 q 290 347 331 347 q 276 349 281 347 q 263 350 271 350 q 253 346 253 350 q 279 332 253 338 q 393 311 354 311 q 411 313 406 311 q 467 331 438 317 q 503 358 496 346 q 510 403 510 369 q 503 446 510 436 m 431 635 q 407 651 418 651 q 375 643 397 651 q 353 625 353 636 q 376 613 353 615 q 422 607 418 608 q 438 606 428 606 q 444 610 444 606 q 431 635 444 617 m 438 865 q 426 885 438 881 q 421 883 424 886 q 428 868 418 878 q 438 865 438 858 m 297 914 q 265 954 271 954 q 240 928 261 954 q 204 882 222 903 q 161 813 188 864 q 122 726 135 763 q 107 613 107 681 q 118 521 107 561 q 168 444 129 481 q 294 381 235 381 q 336 407 336 381 q 299 454 336 431 q 271 483 267 474 q 288 497 275 497 q 332 476 300 497 q 383 454 367 454 q 399 456 393 454 q 442 478 429 460 q 450 496 450 490 q 439 504 450 504 q 417 500 431 504 q 394 496 404 496 q 367 532 367 496 q 367 539 367 533 q 368 547 368 544 q 371 574 371 569 q 367 585 371 585 q 339 560 361 585 q 289 531 310 531 q 188 578 242 531 q 164 604 169 594 q 158 632 158 614 q 164 660 158 660 q 186 635 168 660 q 234 588 201 608 q 290 568 267 568 l 294 568 q 317 576 311 571 q 322 594 322 581 q 274 661 322 611 q 224 731 224 711 q 235 744 224 740 l 238 744 q 288 706 250 744 q 335 664 326 664 q 403 692 376 664 q 438 758 429 719 q 443 806 443 789 q 442 818 443 815 q 435 835 439 832 q 419 835 431 838 q 392 844 403 829 q 351 867 385 856 q 297 914 324 875 m 253 978 q 279 990 269 990 q 333 932 296 990 q 372 900 349 907 q 389 897 386 897 q 413 914 400 897 q 439 931 428 931 q 464 904 456 931 q 478 815 478 864 q 451 710 478 747 l 436 689 l 456 667 q 478 618 478 639 q 468 590 478 604 q 426 567 454 571 q 396 547 397 563 q 394 543 396 546 l 394 540 q 414 533 394 533 l 436 533 q 447 534 440 533 q 457 535 454 535 q 474 532 471 535 q 479 518 476 529 q 506 490 482 501 q 546 415 546 471 q 508 326 546 361 q 372 282 460 282 q 289 292 329 282 q 190 349 213 310 q 140 411 178 371 q 93 485 107 449 q 75 592 79 522 q 74 631 74 607 q 82 697 74 667 q 129 810 96 743 q 178 889 163 876 q 217 935 200 908 q 253 978 239 968 m 292 801 q 315 810 306 810 q 324 801 324 810 q 317 781 324 794 q 292 768 311 768 q 269 778 269 768 q 292 801 269 788 m 365 749 q 358 751 361 749 q 356 760 356 754 q 367 782 356 769 q 386 794 378 794 q 394 783 394 794 q 385 760 394 771 q 365 749 375 749 z "},",":{"ha":474,"x_min":78,"x_max":399,"o":"m 179 -37 q 176 -31 179 -33 q 168 -29 172 -28 q 164 -37 164 -31 q 168 -47 164 -44 q 176 -46 172 -49 q 179 -37 179 -43 m 228 -6 q 226 6 228 1 q 220 13 224 11 q 213 11 217 14 q 213 -10 207 8 q 221 -22 215 -22 q 228 -6 228 -24 m 304 169 q 276 192 279 182 q 271 197 275 197 q 234 172 258 197 q 204 125 210 146 q 183 56 192 72 q 158 32 175 39 q 136 17 136 24 q 153 3 136 11 q 174 -5 171 -6 q 175 7 176 -4 q 192 28 175 18 q 215 47 207 36 q 231 58 222 58 q 250 43 239 58 q 258 33 257 33 q 265 68 261 33 q 290 128 271 111 q 319 144 306 140 q 329 149 329 144 q 304 169 329 158 m 299 360 q 321 367 308 367 q 350 300 350 367 l 350 278 q 375 201 350 201 q 399 179 399 201 q 396 167 399 175 q 350 129 392 156 q 308 93 315 110 q 300 26 300 76 q 267 -75 300 -40 q 240 -96 246 -96 q 232 -92 236 -96 q 203 -92 219 -82 q 176 -93 186 -101 q 142 -83 167 -86 q 120 -76 124 -81 q 117 -54 117 -72 q 97 -8 117 -28 q 78 19 78 11 q 93 40 78 29 q 128 57 108 51 q 151 69 146 63 q 163 108 157 76 q 176 151 169 138 q 206 188 183 165 q 264 286 239 219 q 299 360 288 353 z "},".":{"ha":408,"x_min":74,"x_max":335,"o":"m 301 185 q 292 194 301 194 q 271 181 278 194 q 272 171 267 174 q 290 171 279 165 q 301 185 301 176 m 136 182 q 126 206 136 192 q 111 207 115 219 q 111 183 106 194 q 120 175 114 178 q 131 174 126 172 q 136 182 136 176 m 182 256 q 188 272 189 267 q 176 288 188 276 q 167 296 171 293 q 161 299 164 299 q 157 298 158 300 q 154 292 156 296 q 151 275 151 283 q 171 210 151 236 q 218 188 189 188 q 257 204 244 188 q 279 269 279 236 q 278 276 279 275 q 243 275 275 279 q 214 269 219 272 q 208 254 208 265 q 189 232 208 232 q 179 235 185 232 q 182 256 171 240 m 108 244 q 121 285 121 244 l 121 296 q 118 307 119 307 q 113 292 117 307 q 104 250 104 258 q 108 244 104 244 m 218 351 q 221 393 221 388 q 210 383 221 404 q 206 374 208 381 l 203 369 q 190 339 190 344 q 200 322 190 335 q 210 313 207 313 q 218 351 213 313 m 201 433 q 232 453 217 453 q 257 400 257 453 q 256 381 257 388 q 254 356 254 371 q 262 334 254 339 q 290 328 269 329 q 308 324 304 328 q 314 304 311 319 l 314 293 q 310 257 314 274 q 315 222 303 232 q 335 193 335 210 q 317 158 335 176 q 260 136 294 136 q 199 147 236 136 q 168 154 175 154 q 140 143 160 154 q 114 133 125 133 q 96 139 106 133 q 79 153 82 144 q 74 194 76 163 l 74 219 q 90 310 74 279 q 147 360 107 342 q 182 393 176 372 q 201 433 188 414 m 225 247 q 236 257 228 254 q 251 258 244 260 q 258 249 258 256 q 247 231 258 242 q 228 228 236 222 q 225 247 219 235 z "},":":{"ha":410,"x_min":69,"x_max":335,"o":"m 306 557 q 296 567 306 567 q 275 553 282 567 q 276 543 271 546 q 294 543 283 538 q 306 557 306 549 m 138 567 q 118 585 124 594 q 115 578 117 582 q 113 567 113 569 q 133 546 113 546 q 145 549 144 546 q 138 567 146 551 m 126 650 q 122 661 126 660 q 111 639 114 661 q 113 617 106 617 q 122 628 117 617 q 126 650 126 640 m 186 628 q 192 644 193 639 q 181 660 192 650 q 172 667 175 665 q 166 670 168 669 q 163 669 164 671 q 160 664 161 668 q 154 635 154 651 q 175 578 154 603 q 221 554 196 554 q 253 569 239 554 q 274 606 263 581 q 285 643 285 632 q 283 647 285 647 q 244 647 281 650 q 210 636 210 644 q 210 630 210 635 q 211 622 211 625 q 194 604 211 604 q 183 607 188 604 q 186 628 175 613 m 125 669 q 125 680 131 675 q 119 675 119 685 q 121 669 119 671 q 125 669 122 667 m 224 738 q 227 765 226 754 q 226 775 228 775 q 207 743 222 775 q 197 713 197 722 q 201 699 197 706 q 210 692 206 692 q 224 738 215 692 m 206 806 q 236 825 221 825 q 261 772 261 825 q 260 753 261 760 q 258 728 258 743 q 266 706 258 711 q 294 700 274 701 q 312 696 308 700 q 318 676 315 692 l 318 665 q 314 629 318 646 q 321 593 307 604 q 335 563 335 581 q 314 525 335 539 q 260 510 292 510 q 201 519 240 510 q 171 526 182 526 q 151 519 161 526 q 125 513 143 513 q 85 529 93 513 q 76 596 76 546 q 86 672 76 653 q 156 733 107 714 q 186 765 182 744 q 206 806 192 786 m 229 619 q 240 629 232 626 q 256 630 249 632 q 263 621 263 628 q 251 603 263 614 q 232 601 240 594 q 229 619 224 607 m 299 199 q 289 210 299 210 q 276 204 283 210 q 267 193 269 199 q 269 185 265 188 q 288 185 276 179 q 299 199 299 190 m 131 210 q 110 225 117 238 q 108 219 110 222 q 106 208 106 211 q 126 188 106 188 q 138 191 138 188 q 131 210 139 194 m 239 290 q 213 289 228 289 q 176 301 193 289 q 158 312 163 311 q 151 306 154 313 q 149 288 149 297 q 169 219 149 243 q 214 196 193 196 q 275 275 260 196 l 278 294 l 239 290 m 119 300 q 115 324 119 324 q 106 301 113 324 q 100 267 100 278 q 101 261 100 261 q 104 260 103 260 q 115 272 110 260 q 119 300 119 285 m 217 369 q 219 404 219 397 q 217 422 219 419 q 213 415 214 422 q 199 379 213 403 q 188 354 188 357 q 197 338 188 350 q 207 328 204 328 q 217 369 211 328 m 199 447 q 229 467 214 467 q 254 414 254 467 q 253 394 254 401 q 251 369 251 385 q 259 348 251 353 q 288 342 267 343 q 305 338 301 342 q 311 318 308 333 l 311 307 q 307 271 311 288 q 314 235 300 246 q 328 206 328 225 q 308 167 328 182 q 268 153 290 153 q 240 154 251 153 q 178 165 188 160 q 142 161 163 172 q 113 154 128 154 q 79 168 89 154 q 69 258 69 183 q 72 293 69 279 q 97 340 76 317 q 144 374 117 363 q 179 407 174 386 q 199 447 185 428 m 181 247 q 172 257 172 251 q 181 273 172 265 q 199 281 190 281 q 206 272 206 281 q 197 252 206 260 q 181 247 189 244 m 222 263 q 233 272 225 269 q 249 273 242 275 q 256 264 256 271 q 244 244 256 256 q 226 243 235 236 q 222 263 217 250 z "},";":{"ha":489,"x_min":79,"x_max":413,"o":"m 379 543 q 369 553 379 553 q 357 547 364 553 q 348 536 350 542 q 350 528 346 531 q 368 528 357 522 q 379 543 379 535 m 211 553 q 192 571 197 581 q 189 564 190 568 q 186 553 186 556 q 208 531 186 531 q 211 553 224 531 m 258 642 q 240 651 249 651 q 231 632 231 651 q 238 588 231 610 q 260 553 243 567 q 300 539 278 539 q 333 561 315 539 q 354 607 350 583 q 355 615 354 611 q 356 621 356 618 q 357 626 357 624 q 357 629 357 628 q 350 636 357 636 q 318 633 349 636 q 283 621 283 631 q 285 613 283 617 q 286 607 285 611 q 269 589 286 589 q 258 592 263 589 q 261 614 250 599 q 267 629 268 625 q 258 642 267 633 m 201 638 q 194 653 201 653 q 186 638 190 653 q 182 611 182 622 q 183 604 182 606 q 191 606 186 601 q 199 620 196 611 q 201 638 201 629 m 201 664 q 197 667 201 667 q 193 664 193 667 q 197 660 193 660 q 201 664 201 660 m 294 703 q 301 740 301 731 q 297 750 301 750 q 282 729 292 750 q 271 697 271 703 q 276 683 271 692 q 289 685 285 674 l 294 703 m 279 792 q 308 811 294 811 q 336 757 336 811 q 335 738 336 744 q 333 713 333 728 q 341 691 333 696 q 369 685 349 686 q 387 681 383 685 q 393 663 390 678 l 393 651 q 389 614 393 631 q 394 581 382 589 q 413 551 413 568 q 394 517 413 535 q 338 494 372 494 q 276 506 314 494 q 244 511 258 511 q 222 506 233 511 q 193 499 208 499 q 161 511 167 499 q 151 601 151 525 q 154 636 151 622 q 178 683 158 660 q 226 717 199 706 q 252 736 244 725 q 265 764 260 747 q 279 792 271 781 m 304 589 q 301 599 301 592 q 325 617 301 617 q 338 607 338 617 q 328 592 338 599 q 311 586 319 586 q 304 589 306 586 m 172 -12 q 183 -9 181 -12 q 181 -2 185 -6 q 172 1 178 1 q 161 -6 164 1 q 172 -12 165 -11 m 222 26 q 211 50 222 51 q 206 47 208 50 q 208 27 201 43 q 211 7 214 11 q 209 3 208 3 q 214 4 210 3 q 222 26 222 8 m 315 194 q 261 221 282 194 q 256 224 258 224 q 222 198 243 224 q 197 151 200 172 q 151 60 185 74 q 131 44 131 51 q 151 31 131 39 q 172 33 172 24 q 195 65 172 42 q 226 88 218 88 q 246 72 236 88 q 254 63 253 63 q 257 96 257 63 q 262 133 258 124 q 279 154 265 143 q 315 176 299 171 q 328 183 324 179 q 328 191 332 188 q 315 194 325 194 m 279 294 q 285 290 279 285 q 285 300 290 294 q 281 301 283 303 q 279 294 279 299 m 274 372 q 301 388 288 388 q 328 335 328 388 q 326 311 328 319 q 329 269 322 275 q 338 249 338 264 q 357 229 338 233 q 379 210 379 228 q 318 149 379 176 q 297 133 300 142 q 294 86 294 125 q 261 -42 293 -8 q 229 -56 240 -62 q 201 -57 213 -49 q 171 -57 188 -65 q 136 -47 154 -50 q 122 -41 124 -46 q 119 -18 119 -36 q 100 19 119 0 q 79 47 79 38 q 93 69 79 57 q 118 81 107 81 q 144 90 138 81 q 156 129 151 100 q 190 203 161 168 q 234 277 210 226 q 258 346 258 328 q 274 372 258 354 z "},"?":{"ha":597,"x_min":78,"x_max":521,"o":"m 274 596 q 279 610 285 610 q 264 601 271 610 q 257 586 257 593 q 260 583 257 583 q 274 596 264 583 m 306 843 q 251 851 272 851 q 188 832 221 851 q 124 778 149 808 q 99 726 99 749 q 101 714 99 722 q 114 704 106 704 q 164 732 128 704 q 300 789 242 789 q 334 785 324 789 q 361 764 344 781 q 385 721 385 740 q 384 711 385 718 q 383 699 383 704 q 372 655 381 668 q 318 599 364 642 q 238 501 254 539 q 221 443 221 467 q 232 393 221 426 q 240 361 240 368 q 232 342 240 354 q 188 324 219 324 q 156 307 156 324 q 178 240 156 296 q 217 176 197 194 q 268 158 236 158 q 333 192 310 158 q 356 285 356 225 q 346 319 356 319 q 335 318 339 319 q 308 326 313 314 q 307 335 307 329 q 342 356 307 356 l 349 356 q 374 352 367 354 q 385 344 381 350 q 389 322 389 338 q 388 289 389 303 q 385 254 385 256 q 389 240 385 240 q 392 242 390 240 q 419 396 408 258 q 431 497 428 489 q 440 508 435 508 q 450 472 447 508 l 453 435 l 467 464 q 492 592 492 519 q 490 606 492 603 q 468 617 486 617 q 443 630 450 617 q 432 688 436 643 q 397 791 425 756 q 306 843 368 826 m 213 872 q 274 885 247 885 q 350 868 304 885 q 431 813 404 849 q 471 708 457 776 q 488 660 481 660 q 511 644 501 660 q 521 606 521 628 q 498 481 521 560 q 458 388 475 401 q 449 349 449 378 q 435 275 449 313 q 421 222 421 238 q 406 191 421 207 q 378 175 392 175 l 374 175 q 340 161 356 179 q 294 133 329 147 q 265 125 274 125 q 229 139 256 125 q 195 165 207 150 q 158 228 183 179 q 119 313 119 300 q 133 340 119 328 q 163 353 147 353 q 196 372 196 353 q 192 396 196 381 q 188 428 188 413 q 192 460 188 443 q 206 532 200 486 q 241 613 211 578 q 307 647 271 647 l 308 647 l 314 647 q 342 658 335 647 q 349 697 349 668 q 335 740 349 728 q 288 753 321 753 q 161 699 233 753 q 101 668 118 668 l 99 668 q 83 676 86 669 q 78 708 81 683 l 78 721 q 131 822 78 768 q 213 872 163 854 m 218 288 q 236 293 228 293 q 254 275 251 293 q 252 263 257 265 q 232 261 247 260 q 206 274 206 264 q 218 288 206 279 m 271 267 q 290 278 285 278 q 303 247 303 278 q 296 219 303 231 q 281 207 289 207 q 272 211 276 207 q 258 243 258 226 q 271 267 258 258 m 225 240 q 242 244 233 249 q 247 229 250 240 q 229 210 244 210 q 219 222 219 210 q 225 240 219 235 z "},"A":{"ha":799,"x_min":78,"x_max":722,"o":"m 676 210 q 672 221 682 210 l 668 224 q 672 213 663 224 l 676 210 m 331 608 q 318 607 324 608 q 303 606 313 606 q 261 615 282 606 l 229 631 l 211 608 q 171 525 171 554 q 191 497 171 510 q 242 482 211 485 q 249 481 244 482 q 256 481 254 481 q 307 504 275 481 q 344 560 338 526 q 349 589 349 578 q 331 608 349 608 m 367 817 q 394 819 386 819 q 506 756 442 819 q 596 606 558 704 q 635 424 635 497 q 634 417 635 421 q 633 413 633 414 q 637 391 631 400 q 643 375 643 382 q 683 282 643 368 q 722 182 722 201 q 663 149 722 154 q 632 146 638 146 q 606 156 617 146 q 574 197 589 171 q 560 235 560 222 q 560 240 560 236 q 561 244 561 243 q 506 305 561 274 q 382 346 450 336 q 332 350 350 350 q 294 338 306 350 q 268 286 282 325 q 190 138 219 154 q 172 132 181 132 q 153 158 153 132 q 154 171 153 167 q 156 185 156 176 q 151 194 156 194 q 125 174 144 194 q 90 153 104 153 q 78 169 78 153 q 102 255 78 189 q 153 374 126 321 l 183 435 l 158 471 q 139 515 139 499 q 176 599 139 538 q 213 654 201 640 q 239 668 225 668 q 276 656 253 668 q 319 640 306 640 q 353 646 332 640 q 392 653 381 653 q 397 651 396 653 q 399 646 399 650 q 392 603 399 633 l 381 558 l 406 531 q 422 506 422 511 q 419 503 422 503 q 399 511 414 503 q 385 514 393 514 q 349 506 382 514 q 310 482 335 503 q 244 450 283 460 l 206 442 l 181 383 q 121 218 121 250 q 122 204 121 206 q 129 211 124 203 q 150 224 136 224 q 200 353 171 224 q 229 410 214 410 q 235 400 235 410 q 221 346 235 382 q 197 261 210 317 q 185 185 185 206 q 188 175 185 175 q 231 256 197 175 q 285 355 260 329 q 356 381 310 381 q 379 379 371 381 q 464 355 417 376 q 542 307 511 333 q 582 249 567 285 q 622 196 606 196 q 626 197 625 196 q 628 204 628 200 q 617 293 628 229 q 601 424 601 378 l 601 433 q 547 631 601 526 q 422 774 492 735 q 386 781 408 781 q 321 763 342 781 q 308 731 308 750 q 326 704 308 706 l 331 704 q 362 715 342 704 q 393 725 382 725 q 447 686 413 725 q 507 593 481 647 q 535 514 535 538 q 492 485 535 485 l 488 485 q 454 492 454 486 q 475 503 454 497 q 500 519 500 510 q 484 574 500 533 q 454 638 468 615 q 390 688 422 688 q 356 678 374 688 q 317 669 332 665 q 291 692 303 672 q 279 732 279 713 q 281 743 279 739 q 314 788 288 765 q 367 817 340 811 m 200 549 q 197 554 197 551 q 209 572 197 563 q 229 582 221 582 q 235 575 235 582 q 224 558 235 568 q 204 547 213 547 q 203 547 203 547 l 200 549 m 254 540 l 250 540 q 243 547 243 540 q 251 566 243 556 q 268 576 260 576 q 274 574 271 576 q 276 565 276 571 q 254 540 276 546 z "},"B":{"ha":775,"x_min":72,"x_max":700,"o":"m 288 357 q 296 353 288 339 q 300 369 301 363 q 292 375 297 383 q 288 357 288 369 m 208 285 q 214 339 208 292 q 219 407 219 386 q 218 422 219 418 q 208 444 213 444 q 189 440 206 443 q 172 411 172 438 q 186 327 174 379 q 206 275 199 275 q 208 285 208 275 m 388 444 q 324 476 361 471 l 286 481 l 289 443 q 292 417 290 424 q 297 408 293 411 q 308 406 300 406 q 325 400 321 406 q 329 379 329 394 q 317 332 329 360 q 303 293 303 306 q 319 276 303 281 q 343 274 336 274 q 414 299 393 274 q 429 346 429 315 q 388 444 429 400 m 260 386 l 260 422 q 257 478 260 478 q 249 431 253 478 q 244 339 244 385 q 249 289 244 289 q 260 386 257 289 m 581 442 q 589 457 581 449 q 597 469 597 465 q 590 482 597 475 q 568 494 581 494 q 528 467 551 494 q 504 425 504 442 q 506 411 504 417 q 524 372 511 385 q 538 353 538 358 q 546 342 538 342 q 576 360 556 342 q 606 371 603 385 q 580 335 606 360 q 540 310 554 310 q 503 344 522 310 q 483 414 485 378 q 478 458 483 447 q 435 478 464 478 q 426 476 429 478 q 420 469 419 472 q 429 453 421 465 q 458 356 458 411 q 444 297 458 319 q 406 260 428 269 q 332 247 383 250 q 260 235 272 244 q 221 219 243 219 q 190 231 201 219 q 161 238 172 247 q 153 233 157 233 q 146 247 146 233 q 151 276 146 261 q 157 324 157 292 q 151 390 157 357 q 136 429 144 424 q 125 433 129 433 q 104 353 104 433 q 146 204 107 239 q 196 174 160 190 q 285 160 229 160 q 360 161 328 160 q 501 172 457 164 q 569 200 546 181 q 608 263 592 219 q 628 347 622 300 q 654 413 633 388 q 674 440 674 435 q 651 449 674 443 q 615 439 631 454 q 594 428 600 424 q 590 426 592 429 q 588 418 588 424 q 567 392 588 392 q 556 396 560 392 q 549 413 546 403 q 567 428 553 424 q 581 442 581 433 m 558 528 q 556 531 558 531 q 524 510 550 531 q 508 489 500 489 q 538 505 517 489 q 558 528 558 521 m 450 568 q 457 593 460 590 q 438 582 456 594 q 367 567 421 571 l 313 564 l 313 514 l 376 511 l 404 511 q 457 514 443 511 l 474 518 l 457 531 q 444 547 446 540 q 450 568 443 553 m 246 590 q 214 601 235 601 q 171 587 190 601 q 151 553 151 572 q 158 539 151 539 q 183 553 164 539 q 208 567 203 567 q 215 553 215 567 q 182 518 215 539 l 150 496 l 164 482 q 192 469 176 469 q 239 496 213 469 q 260 553 260 519 q 246 590 260 578 m 558 596 q 564 629 567 622 q 557 621 560 631 q 556 618 556 619 q 522 567 550 603 q 501 533 501 539 q 503 532 501 532 q 528 549 507 532 q 558 596 547 565 m 222 657 q 219 660 222 660 q 215 657 215 660 q 219 653 215 653 q 222 657 222 653 m 531 664 q 521 693 531 678 q 504 708 511 708 q 499 704 500 708 q 497 683 493 694 q 499 672 499 681 q 483 574 499 625 l 478 557 l 497 574 q 531 664 531 604 m 403 731 q 360 738 382 738 q 312 713 328 738 q 293 632 296 688 q 292 610 292 622 q 299 593 292 593 q 301 594 300 593 q 304 594 303 594 q 414 603 328 599 q 428 612 425 603 q 431 663 431 621 l 431 722 l 403 731 m 446 867 q 375 875 421 875 q 288 865 326 875 q 204 818 232 851 q 169 726 176 785 q 167 690 167 701 q 178 649 167 649 q 190 672 185 649 q 206 703 194 690 q 228 717 217 717 q 249 689 239 717 q 265 665 257 665 q 272 683 272 665 q 290 725 272 701 q 331 760 308 749 q 372 774 361 774 q 419 763 383 774 q 454 754 446 754 q 472 763 464 754 q 483 768 478 768 q 531 732 490 768 q 579 692 576 692 q 574 703 581 692 q 554 735 567 715 q 528 776 542 756 q 477 847 490 832 q 446 867 464 861 m 278 886 q 350 896 317 896 q 436 888 383 896 q 499 870 485 881 q 556 800 513 860 q 600 731 558 794 q 617 665 617 697 q 606 632 617 640 q 594 613 594 621 q 585 582 594 601 q 577 563 576 568 q 588 553 578 558 q 601 533 601 546 q 624 500 601 518 q 668 478 646 482 q 700 457 700 472 q 683 421 700 447 q 657 339 663 389 q 617 217 650 268 q 531 147 583 165 q 419 128 501 138 q 278 118 336 118 l 256 118 q 166 138 197 122 q 110 190 135 153 q 72 338 72 244 q 94 436 72 401 l 113 464 l 100 496 q 88 547 88 522 q 88 556 88 550 q 89 565 89 561 q 103 617 92 594 q 126 639 115 639 q 144 700 144 639 q 181 820 146 771 q 278 886 217 869 z "},"C":{"ha":856,"x_min":71,"x_max":778,"o":"m 524 360 q 543 401 543 374 q 528 453 543 425 q 497 496 514 482 l 478 514 l 482 489 q 494 404 486 468 l 503 346 l 524 360 m 465 685 q 449 704 465 704 q 388 674 426 704 q 353 640 353 646 q 360 639 354 639 q 374 642 365 639 q 392 647 383 644 q 446 663 422 657 q 465 685 465 668 m 474 836 q 390 846 436 846 q 278 829 329 846 q 210 785 228 813 q 178 757 197 767 q 131 690 158 747 q 108 633 111 651 q 101 553 104 614 q 101 531 101 544 q 100 513 100 518 q 117 393 100 461 q 153 283 131 331 q 197 218 176 235 q 263 190 215 203 q 315 182 297 182 q 358 186 331 182 q 478 194 407 194 q 533 190 519 194 q 565 163 547 186 l 581 138 l 607 158 q 664 194 632 179 q 706 231 694 210 q 728 258 715 251 q 731 267 738 265 q 689 299 721 267 l 658 331 l 640 311 q 615 300 624 292 q 622 326 607 308 q 633 342 632 338 q 626 349 633 346 q 596 353 615 353 q 543 344 560 353 q 504 303 526 338 q 464 260 478 260 q 460 268 460 260 q 464 289 460 275 q 471 343 471 306 q 464 401 471 381 q 421 479 443 474 l 419 479 q 413 453 413 479 q 414 397 413 422 l 417 311 l 396 288 q 364 268 378 268 l 358 268 l 340 269 l 360 289 q 378 322 378 306 q 347 374 378 342 q 310 433 319 404 q 300 519 300 463 q 296 569 300 569 l 290 567 q 275 535 279 556 q 260 510 271 510 q 253 539 249 510 q 344 672 263 607 q 389 719 389 708 q 368 728 389 728 l 363 728 q 239 657 324 726 q 215 643 221 643 q 213 646 213 643 q 244 692 213 657 q 316 749 274 724 q 381 774 358 774 q 385 772 382 774 l 388 772 q 438 761 397 769 q 514 744 478 753 q 561 729 550 735 q 597 719 582 719 q 608 729 608 719 q 593 765 608 742 q 474 836 564 815 m 343 867 q 414 872 388 872 q 472 867 439 872 q 572 835 528 858 q 631 782 617 811 q 643 747 643 758 q 629 713 643 735 q 613 693 619 697 q 588 689 606 689 q 536 700 561 689 q 514 707 522 707 q 501 689 501 707 q 474 649 501 668 q 404 619 447 631 q 343 603 349 606 q 332 522 332 596 q 338 461 332 479 q 365 408 344 435 l 386 385 l 382 435 q 379 469 379 465 q 397 501 379 488 q 431 517 418 517 q 458 531 444 517 q 488 544 472 544 q 544 499 514 544 q 575 428 564 471 q 594 388 583 388 q 697 338 644 388 q 753 299 736 301 q 775 289 772 292 q 778 282 778 286 q 769 262 778 274 q 749 244 760 250 q 719 214 736 238 q 674 176 706 192 q 607 131 642 161 l 571 100 l 544 129 q 454 165 513 165 q 399 160 426 165 q 308 151 349 151 q 118 275 164 151 q 71 529 71 401 q 113 713 71 653 q 217 817 154 775 q 343 867 279 858 m 574 288 q 588 290 585 290 q 601 279 601 290 q 597 268 601 275 q 575 256 589 256 q 560 268 561 256 q 574 288 557 282 z "},"D":{"ha":783,"x_min":72,"x_max":715,"o":"m 231 333 l 231 342 q 219 372 231 372 q 208 368 214 372 q 203 344 203 364 q 204 307 203 322 q 214 251 210 251 q 231 333 228 251 m 121 413 q 106 426 121 421 q 93 425 94 429 q 96 399 92 421 q 110 332 103 356 q 138 273 118 304 q 164 242 157 242 l 165 242 q 171 299 171 247 q 167 349 171 338 q 146 378 164 360 q 121 413 121 403 m 232 494 q 185 524 217 524 q 151 517 167 524 q 138 504 140 513 q 135 467 135 496 q 153 406 135 422 q 190 388 171 388 q 227 407 211 388 q 243 453 243 426 q 232 494 243 472 m 128 526 q 122 531 128 531 q 111 526 117 531 q 111 510 107 522 q 121 511 115 501 q 128 526 128 521 m 543 631 q 529 656 543 651 q 525 656 528 656 l 522 657 q 518 653 518 657 q 526 622 518 647 q 538 542 538 582 q 492 376 538 444 l 471 346 l 385 343 q 308 338 321 340 q 285 324 294 336 q 267 258 267 299 q 271 238 267 244 q 326 226 278 226 q 431 253 375 226 q 483 274 476 274 q 490 269 489 274 q 475 236 496 260 q 463 215 463 222 q 467 211 463 211 q 544 258 493 211 q 610 340 575 286 q 657 433 644 394 q 672 558 672 483 q 668 608 672 589 q 650 631 664 631 q 606 602 636 631 q 569 574 576 574 q 551 591 560 574 q 543 631 543 608 m 617 728 q 617 732 617 729 q 618 736 618 735 q 610 747 618 747 q 554 696 588 747 q 547 683 549 686 q 548 677 546 679 q 557 672 550 675 q 572 639 572 668 q 578 610 572 610 q 607 635 582 610 q 660 660 632 660 q 686 671 686 660 q 674 709 686 683 q 656 740 663 735 q 638 746 640 751 q 639 742 636 744 q 636 723 644 736 q 621 710 628 710 q 617 728 614 710 m 385 756 q 336 760 365 760 q 312 755 317 760 q 299 724 307 750 q 275 625 290 699 q 265 571 265 574 q 274 558 265 563 q 285 526 285 551 q 275 476 285 501 q 258 353 258 426 q 261 338 258 338 q 283 354 267 338 q 385 374 301 371 l 467 378 l 481 399 q 513 532 513 453 q 511 556 513 549 q 494 624 506 599 q 446 699 482 650 q 385 756 407 750 m 499 743 q 453 767 458 767 q 447 763 451 767 q 443 753 443 758 q 476 704 443 742 q 517 668 510 668 q 522 681 522 668 q 529 700 522 696 q 536 710 536 704 q 499 743 536 722 m 538 786 q 488 815 490 815 q 483 810 483 815 q 515 774 483 799 q 563 749 547 749 q 567 750 564 749 q 572 757 572 753 q 538 786 572 764 m 446 844 q 331 849 444 846 q 206 856 217 851 q 200 857 204 857 q 174 771 179 857 q 154 706 167 706 q 149 707 150 706 q 142 740 142 711 q 138 767 142 768 q 117 694 132 761 q 99 603 101 626 q 98 594 99 599 q 97 588 97 589 q 103 572 97 576 q 126 561 108 568 q 165 554 143 554 q 197 557 185 554 l 238 564 l 250 624 q 275 719 265 700 q 283 750 283 742 q 279 761 283 757 q 258 758 271 769 q 235 760 235 736 q 254 789 235 775 q 290 803 274 803 q 303 797 299 803 q 400 785 310 785 q 439 789 428 785 q 454 799 451 794 q 454 819 457 804 q 446 844 450 840 m 161 851 l 193 883 l 233 878 q 363 871 254 874 q 444 867 428 869 q 488 847 461 864 q 632 775 603 775 q 711 681 694 775 q 703 653 715 663 q 694 633 694 647 q 697 611 694 628 q 701 553 701 582 q 688 443 701 490 q 616 304 668 374 q 507 200 564 235 q 444 175 465 175 q 421 176 431 175 q 379 187 400 179 q 326 194 358 194 q 260 206 282 194 q 222 207 235 218 q 186 193 208 196 q 181 192 183 193 q 176 192 178 192 q 144 213 161 192 q 103 283 124 238 q 76 371 83 329 q 72 453 72 397 q 89 668 72 594 q 121 788 106 749 q 161 851 136 826 m 586 703 q 592 716 586 713 q 603 713 597 719 q 603 699 607 708 q 593 689 599 689 q 586 703 586 689 m 164 444 q 175 460 164 460 q 183 447 186 460 q 172 433 181 433 q 164 444 164 432 m 196 444 q 211 452 201 453 q 221 443 221 451 q 213 426 221 432 q 199 430 206 422 q 196 444 192 438 z "},"E":{"ha":625,"x_min":71,"x_max":547,"o":"m 479 821 q 431 831 479 831 q 411 828 414 831 q 410 819 410 826 q 419 786 410 792 l 421 786 q 454 801 429 786 q 479 821 479 815 m 351 842 q 299 867 335 854 l 265 881 l 258 865 q 201 835 246 835 q 183 836 189 835 q 157 833 157 839 q 158 826 157 832 q 167 781 161 821 q 167 772 167 778 q 168 765 168 767 q 144 688 168 742 q 114 578 118 628 q 104 406 110 494 q 99 306 99 308 q 107 258 99 278 q 299 175 143 175 q 367 179 331 175 q 518 221 518 194 q 494 233 518 236 l 481 233 q 349 240 435 233 q 254 253 263 247 q 240 269 240 260 q 271 276 240 282 q 313 269 306 269 q 322 275 322 269 q 308 297 322 282 q 290 346 290 319 q 291 356 290 349 q 292 369 292 364 q 311 447 293 419 q 330 470 322 467 q 364 474 338 474 q 442 488 397 474 q 488 511 488 501 q 465 531 488 522 q 408 539 442 539 q 309 553 339 540 q 274 600 279 567 q 272 611 272 604 q 299 650 272 625 q 378 746 368 714 q 382 774 382 758 q 351 842 382 824 m 238 910 q 249 917 240 917 q 331 885 263 917 q 410 857 390 857 l 414 857 q 444 861 428 861 q 494 850 476 861 q 513 825 513 839 q 444 765 513 800 q 389 715 406 744 q 325 650 361 668 q 307 615 308 642 l 307 608 q 326 581 307 588 q 411 567 344 574 q 478 558 464 563 q 507 540 493 554 q 525 514 525 522 q 521 503 525 508 q 492 478 514 489 q 435 459 474 468 q 378 450 397 450 l 371 450 q 363 451 368 451 q 318 418 331 451 q 314 389 314 406 q 336 308 314 331 q 457 267 382 267 q 547 225 547 267 q 464 165 547 192 q 306 150 422 151 l 258 150 q 163 165 193 150 q 79 249 100 196 q 71 296 71 272 q 75 364 71 318 q 79 463 79 410 q 78 506 79 494 q 77 517 78 510 q 76 529 76 525 q 118 689 76 604 q 133 757 133 725 q 131 842 133 761 l 131 849 q 149 881 131 881 q 172 868 158 881 q 211 858 190 851 q 224 867 219 861 q 231 878 229 874 q 234 894 232 883 q 238 910 236 906 m 306 819 q 338 842 331 847 q 349 828 349 838 q 329 796 349 815 q 304 778 311 778 q 293 783 299 778 q 288 794 288 789 q 306 819 288 800 z "},"F":{"ha":706,"x_min":78,"x_max":626,"o":"m 303 276 q 276 331 294 308 l 256 354 l 236 328 q 204 304 219 304 q 182 306 192 304 l 147 310 l 147 286 q 139 232 147 257 q 132 206 132 211 q 143 190 132 199 q 179 182 156 182 q 210 183 197 182 q 285 201 263 188 q 307 243 307 214 q 303 276 307 258 m 404 849 q 286 872 329 872 q 183 819 226 872 q 155 758 163 793 q 142 633 147 724 q 140 585 140 618 q 151 420 140 501 q 175 336 163 339 l 178 336 q 182 335 181 335 q 242 365 214 335 q 264 379 254 379 q 290 361 274 379 q 332 253 332 318 q 328 214 332 224 q 307 190 325 204 q 282 154 282 169 q 292 146 282 146 q 331 160 307 146 q 382 219 382 188 q 357 297 382 243 q 328 399 332 351 q 326 426 326 411 q 351 474 326 444 q 383 501 372 496 q 431 508 393 506 q 483 517 483 511 q 417 552 483 522 q 338 582 350 582 q 282 611 310 582 q 254 668 254 640 q 271 713 254 685 q 300 743 288 740 q 351 746 311 746 q 382 745 361 746 q 415 744 403 744 l 460 744 q 538 754 521 744 q 576 787 554 764 q 597 818 597 810 q 586 836 597 828 q 564 844 575 844 l 561 844 l 558 843 q 496 833 524 833 q 404 849 457 833 m 261 897 q 294 901 274 901 q 396 883 338 901 q 508 867 453 867 q 563 871 536 867 q 586 874 579 874 q 626 838 626 874 q 590 765 626 801 q 501 714 554 729 q 456 706 476 706 q 399 711 449 706 q 346 715 367 715 q 285 685 293 715 q 283 674 283 681 q 379 603 283 632 q 456 569 410 593 q 517 532 501 546 q 532 496 532 517 q 524 476 532 481 q 475 472 519 472 l 458 472 l 439 472 q 378 460 397 472 q 350 422 350 443 q 400 260 350 397 q 415 203 415 214 q 413 192 415 197 q 351 147 404 175 q 275 118 297 118 l 272 118 q 247 135 249 119 q 236 149 244 146 q 190 153 228 151 l 167 153 q 115 149 128 153 q 103 146 107 146 q 78 179 78 146 q 104 243 78 213 q 124 272 125 269 q 104 321 104 311 q 106 328 104 325 q 125 343 110 338 q 139 379 139 347 q 128 456 139 415 q 118 550 118 490 q 119 621 118 592 q 132 772 125 743 q 181 847 143 811 q 261 897 218 883 m 235 238 q 230 233 235 238 q 221 233 225 229 q 217 242 217 238 q 224 254 217 249 q 239 260 232 260 q 246 253 246 260 q 235 238 246 246 m 175 226 q 172 233 172 228 q 178 245 172 239 q 190 251 185 251 q 196 242 196 251 q 189 227 196 232 q 175 226 182 222 z "},"G":{"ha":729,"x_min":75,"x_max":656,"o":"m 385 421 q 372 431 383 431 q 361 421 361 431 q 374 411 361 408 q 383 415 379 413 q 385 421 386 418 m 261 501 q 243 531 247 531 q 240 518 240 531 q 248 451 240 494 q 263 390 256 407 q 294 353 281 353 q 297 358 297 353 q 284 431 297 378 q 261 501 271 483 m 575 521 q 538 575 550 575 q 518 560 531 575 q 472 538 499 538 q 461 544 461 538 q 451 564 461 551 q 447 568 450 565 q 443 572 444 572 q 397 497 439 572 q 393 479 393 486 q 419 440 393 456 q 485 424 444 424 q 518 415 518 424 q 503 401 518 410 q 464 393 490 393 q 440 394 449 393 q 428 395 436 394 q 417 396 419 396 q 385 386 394 396 q 386 367 376 375 q 425 369 399 356 q 454 376 439 376 q 490 353 478 376 q 493 344 493 347 q 488 331 493 338 q 476 325 483 325 q 469 326 471 325 q 454 317 461 332 q 426 292 447 303 q 385 281 404 281 q 329 293 367 281 q 279 317 292 306 q 219 438 232 354 q 197 514 214 475 q 168 553 179 553 q 161 518 161 553 q 171 442 161 474 q 176 411 176 425 q 164 396 176 396 q 150 372 150 396 q 154 339 150 360 q 206 246 169 274 q 343 194 243 218 q 433 181 408 181 q 442 181 436 181 q 450 182 447 182 q 472 183 458 183 q 496 179 492 183 q 507 175 500 175 q 558 202 526 175 q 610 265 589 229 q 628 339 628 296 q 575 521 628 411 m 569 767 q 574 793 574 779 q 549 856 574 829 q 485 882 524 882 l 481 882 q 422 873 444 881 q 339 835 400 865 q 133 631 194 758 q 104 522 104 569 q 118 458 104 474 q 129 447 126 447 q 132 469 132 447 l 132 506 l 132 519 q 147 576 132 557 q 172 594 161 594 q 199 574 183 594 l 214 553 l 235 596 q 353 715 275 678 q 436 733 389 733 l 465 733 l 496 733 q 549 736 538 733 q 569 767 563 742 m 436 903 q 483 910 468 910 q 540 894 510 910 q 585 853 567 881 q 604 801 604 826 q 592 756 604 781 q 565 719 581 731 q 503 710 550 710 l 481 710 l 465 710 q 378 700 411 710 q 314 663 347 690 q 265 608 281 636 l 251 583 l 274 540 q 322 386 300 488 q 345 324 332 339 q 390 310 358 310 q 429 324 417 310 q 438 339 438 333 q 432 344 438 344 q 413 339 429 344 q 390 335 403 335 q 349 368 356 335 q 339 392 344 386 q 332 410 332 396 q 350 457 332 436 q 368 489 368 478 q 386 522 368 501 q 414 571 406 547 q 443 607 426 607 q 469 590 456 607 q 497 567 493 567 q 518 592 503 567 q 543 617 533 617 q 574 582 553 617 q 615 504 596 547 q 656 342 656 410 q 635 256 656 293 q 578 188 615 224 q 524 150 540 151 q 483 149 511 149 q 297 175 388 149 q 169 240 206 201 q 135 321 158 253 q 111 411 111 389 q 104 424 111 424 q 85 454 94 424 q 75 517 75 485 q 122 662 75 581 q 235 796 168 743 q 339 860 272 825 q 436 903 406 896 m 457 513 q 475 506 464 517 q 481 494 481 501 q 475 483 481 489 q 463 478 469 478 q 457 479 458 478 q 447 496 447 482 q 457 513 447 510 m 497 492 q 513 510 497 510 q 525 494 528 510 q 508 475 521 475 q 497 492 497 475 z "},"H":{"ha":874,"x_min":75,"x_max":799,"o":"m 189 213 q 175 231 189 231 q 168 217 160 231 q 188 203 183 188 q 189 213 189 207 m 706 238 q 688 244 706 244 q 663 207 665 244 q 667 201 663 201 q 690 217 675 201 q 706 238 706 233 m 178 368 l 168 368 q 133 374 147 368 q 113 365 122 381 q 103 342 103 349 q 125 328 103 328 l 129 328 q 158 322 153 331 q 158 311 161 318 q 147 301 154 304 q 138 300 140 297 q 117 303 131 306 q 104 294 104 301 q 119 272 104 285 q 150 256 135 258 q 189 265 171 251 q 203 285 200 275 q 207 325 207 296 l 207 369 l 178 368 m 776 336 q 760 344 776 344 q 725 365 743 344 l 707 388 l 692 372 q 672 321 672 350 q 682 288 672 299 q 704 275 692 275 q 719 292 719 275 q 717 299 719 297 q 713 299 715 300 q 708 299 710 297 q 706 306 706 300 q 718 322 706 321 q 725 318 722 324 q 738 310 728 310 q 746 307 743 310 q 747 299 749 304 q 739 289 744 294 q 739 281 731 281 q 761 303 746 281 q 776 336 776 325 m 711 706 q 708 746 714 746 q 700 708 700 746 q 704 682 700 690 q 711 682 710 667 q 711 706 711 690 m 197 728 q 189 761 197 761 q 181 749 185 761 q 157 626 157 664 l 158 624 q 181 665 165 624 q 197 728 197 707 m 268 874 q 229 889 254 889 q 197 874 206 889 q 194 863 194 871 q 215 806 194 847 q 238 744 238 761 q 233 721 238 736 q 203 654 225 689 q 179 579 181 618 q 167 543 178 543 l 163 543 q 149 535 153 543 q 143 500 146 528 q 140 443 140 464 l 140 428 l 143 399 l 188 400 l 232 403 l 233 379 q 234 365 233 375 q 235 350 235 356 q 225 281 235 306 q 221 264 221 272 q 235 224 221 251 q 261 188 256 188 q 268 213 268 188 q 257 299 268 247 q 243 410 249 339 q 240 450 240 446 q 253 489 240 472 q 288 506 265 506 q 324 504 308 506 q 338 503 329 504 q 351 503 347 503 q 411 532 411 503 q 408 542 411 540 q 389 544 404 544 q 346 543 365 544 q 297 542 329 542 q 257 544 264 542 q 239 553 243 549 q 236 572 235 558 q 263 640 239 599 q 289 747 286 685 q 290 788 290 763 q 268 874 290 850 m 704 894 q 683 903 696 903 q 651 888 663 903 q 618 821 636 860 q 594 733 594 771 q 615 653 594 694 q 632 589 632 615 q 621 553 632 568 q 600 540 613 543 q 547 536 588 538 l 529 536 q 463 540 478 536 q 442 544 444 546 q 442 522 439 542 l 443 499 l 601 499 l 610 446 q 618 300 618 388 q 626 211 619 211 l 628 211 q 640 278 636 215 q 651 351 643 332 q 693 403 658 369 q 726 457 726 436 q 717 485 726 471 q 704 539 707 500 q 692 575 703 575 l 689 575 l 688 575 q 678 622 678 575 q 678 640 678 629 q 679 656 679 651 q 678 677 679 664 q 678 696 678 690 q 703 782 678 736 q 725 835 725 822 q 719 858 725 846 q 704 894 708 889 m 646 906 q 690 926 667 926 q 726 907 711 926 q 746 846 746 881 q 740 815 746 828 q 733 760 733 799 l 733 746 q 734 713 733 731 q 735 686 735 696 q 736 669 736 676 q 732 621 736 650 q 731 596 731 614 q 740 511 731 560 q 756 406 756 438 q 758 378 756 382 q 776 374 761 374 q 799 358 799 374 q 779 303 799 339 q 744 257 760 268 q 726 238 726 244 q 709 206 726 226 q 678 178 692 185 q 640 171 661 171 l 632 171 q 599 199 606 175 q 589 328 592 224 q 579 454 583 443 q 563 465 576 463 q 501 467 550 467 q 424 474 428 467 q 386 478 422 478 q 367 477 381 478 q 346 476 354 476 l 272 474 l 269 446 q 282 331 267 417 q 296 219 296 253 q 279 168 296 186 l 263 149 l 240 161 q 219 171 225 171 q 203 161 214 171 q 186 153 194 153 q 144 200 169 153 q 114 238 125 238 q 89 263 103 238 q 75 308 75 288 q 94 368 75 332 q 111 413 107 392 q 118 489 115 433 q 139 660 122 563 q 174 769 154 750 q 187 788 186 783 q 179 804 188 793 q 168 850 168 819 q 190 899 168 879 q 239 918 214 918 q 301 881 278 918 q 315 778 315 858 q 312 706 315 725 q 294 657 308 688 q 268 594 271 608 q 266 576 264 581 q 281 569 268 572 q 307 567 292 567 q 369 572 335 567 q 408 582 403 576 q 414 585 411 585 q 427 578 418 585 q 442 572 436 572 q 447 574 446 572 q 472 569 458 582 q 547 560 489 560 q 596 564 578 560 q 611 579 611 568 q 593 631 611 593 q 572 725 572 672 q 576 778 572 761 q 600 832 581 796 q 646 906 628 885 z "},"I":{"ha":492,"x_min":75,"x_max":417,"o":"m 393 336 q 376 357 392 357 q 343 333 361 357 q 321 279 325 310 q 322 242 318 246 q 351 253 329 238 q 381 285 369 263 q 393 328 393 307 l 393 336 m 238 333 q 226 358 238 357 l 221 354 q 221 332 217 347 q 231 317 225 317 q 238 333 238 317 m 343 551 q 343 581 346 567 q 340 579 340 586 q 340 564 339 574 l 342 547 l 343 551 m 186 685 q 156 703 160 703 q 133 668 150 703 q 110 610 115 633 q 103 547 103 583 q 110 501 103 511 q 119 492 117 492 q 131 553 131 492 q 154 617 131 617 q 157 588 157 617 q 156 526 157 551 q 151 382 151 449 q 158 247 151 296 q 175 203 165 203 q 182 204 179 203 q 189 244 189 208 l 189 272 l 189 294 q 204 361 189 339 q 239 388 221 388 q 256 381 246 388 q 267 317 267 371 q 283 210 267 210 q 300 285 300 210 q 299 333 300 315 q 296 381 296 369 q 306 464 296 419 q 315 546 315 515 q 315 558 315 550 q 314 568 314 565 q 311 596 311 593 q 324 615 311 614 q 336 628 336 619 q 326 663 336 639 q 308 688 317 688 q 290 678 304 688 q 249 667 275 667 q 186 685 214 667 m 283 824 q 246 813 267 813 q 188 836 219 813 l 165 854 l 165 813 q 247 699 165 707 q 265 697 254 697 q 301 715 282 697 q 322 740 317 729 q 326 772 326 750 q 317 824 326 807 l 308 840 l 283 824 m 149 867 q 174 882 160 882 q 199 868 185 882 q 254 843 219 843 q 279 849 268 843 q 306 868 303 863 q 324 875 310 875 q 347 849 338 875 q 356 789 356 822 q 346 733 356 754 q 340 711 340 722 q 351 674 340 700 q 371 567 367 636 l 375 496 l 351 474 q 332 449 336 460 q 325 408 328 438 q 324 397 325 404 q 324 388 324 390 q 333 356 324 356 q 349 369 340 356 q 385 388 361 388 q 408 379 400 388 q 417 346 417 371 q 401 281 417 308 q 356 235 390 261 q 311 200 321 210 q 274 181 294 181 q 254 190 261 181 q 242 225 249 199 q 228 251 236 251 q 222 233 222 251 l 222 224 l 222 213 q 203 185 222 194 q 165 174 185 174 q 136 193 142 174 q 125 340 131 208 q 119 451 122 435 q 104 467 117 467 q 75 531 75 467 q 79 581 75 553 q 131 699 89 651 q 149 733 149 718 q 144 765 149 742 q 138 825 138 797 q 149 867 138 854 m 224 771 q 242 786 224 786 l 258 786 q 288 778 288 786 q 282 767 288 769 q 243 764 265 764 q 224 771 224 764 z "},"J":{"ha":601,"x_min":81,"x_max":529,"o":"m 296 975 q 310 983 306 975 q 304 989 308 988 q 289 982 293 989 q 296 975 285 975 m 489 997 q 474 1004 485 1004 q 444 989 453 1004 q 439 977 438 979 q 450 975 440 975 q 477 981 464 975 q 490 994 490 988 l 489 996 l 489 997 m 386 1028 q 426 1031 414 1031 q 499 1022 468 1031 q 529 999 529 1013 q 481 960 529 975 q 358 946 433 946 q 278 952 300 946 q 257 975 257 958 q 285 1007 257 996 q 386 1028 314 1018 m 293 582 q 296 575 293 575 q 299 583 300 575 q 297 586 299 585 q 293 582 293 590 m 439 706 q 454 747 454 726 q 451 792 454 753 l 446 854 l 422 829 q 395 808 406 813 q 361 803 385 803 q 308 819 325 803 q 295 829 300 826 q 289 831 290 832 l 283 774 q 282 742 282 761 q 295 706 282 713 q 356 697 308 699 q 381 693 375 696 q 385 683 388 690 q 358 674 383 674 l 342 674 q 318 668 321 674 q 286 660 313 660 q 240 645 258 660 q 221 610 221 631 q 238 579 221 579 q 253 594 244 579 q 270 615 258 606 q 290 624 282 624 q 297 621 294 624 q 326 639 300 618 q 372 660 350 660 q 385 650 385 660 q 365 635 385 638 q 339 621 350 633 q 328 592 328 608 q 335 572 328 572 q 353 590 340 572 q 390 617 371 617 q 404 606 400 617 q 406 597 406 603 q 400 580 406 588 q 386 572 394 572 l 383 572 q 368 560 372 575 q 351 538 364 549 q 326 526 338 526 q 321 528 325 526 l 319 528 q 310 461 310 528 l 310 392 l 269 317 q 231 233 231 249 q 233 229 231 229 q 283 268 242 229 q 342 317 338 317 q 357 340 350 317 q 376 375 364 365 q 386 374 386 382 q 383 349 386 368 q 372 232 372 267 q 376 210 372 210 q 403 249 382 210 q 435 318 424 288 q 450 336 443 336 q 457 321 457 336 q 432 251 457 306 q 392 182 407 197 q 364 167 378 167 q 343 181 353 167 q 333 190 338 190 q 310 174 328 190 q 244 146 278 146 q 200 156 226 146 q 142 172 161 172 q 110 132 118 172 q 108 119 108 128 q 141 49 108 82 q 214 15 174 15 q 350 58 264 15 q 453 165 422 94 q 485 368 485 236 q 483 425 485 406 q 465 590 481 514 q 432 676 449 667 q 426 685 425 681 q 439 706 428 689 m 428 857 q 460 881 451 881 q 481 788 475 881 q 482 764 482 779 q 474 719 482 733 q 467 697 467 706 q 471 675 467 688 q 515 389 515 531 q 485 182 515 278 q 398 63 463 115 q 251 -6 333 11 q 206 -11 228 -11 q 124 25 164 -11 q 81 114 81 64 q 114 183 81 154 q 153 200 135 200 q 199 188 169 200 q 250 174 226 174 q 294 194 269 174 q 328 239 318 215 q 333 260 333 251 q 328 267 333 267 q 294 244 317 267 q 215 196 243 196 q 211 197 214 196 l 210 197 q 200 214 200 203 q 242 318 200 240 q 278 394 271 374 q 285 443 285 414 q 278 526 285 489 q 265 563 271 563 q 254 557 263 563 q 231 547 240 547 q 207 560 219 547 q 192 599 192 575 q 207 645 192 624 q 246 675 222 667 q 264 683 260 681 q 264 692 268 686 q 251 744 251 710 q 256 763 251 761 q 264 792 264 768 q 272 842 264 817 q 290 872 281 868 q 319 854 303 878 q 340 836 331 840 q 371 832 349 832 q 401 836 392 832 q 428 857 411 840 m 310 749 q 303 756 303 751 q 313 768 303 761 q 332 775 322 775 q 343 764 343 775 q 332 749 343 754 q 310 749 321 744 m 381 769 q 403 774 392 774 q 414 769 414 775 q 404 754 414 763 q 385 746 394 746 q 372 756 374 746 q 381 769 371 765 z "},"K":{"ha":690,"x_min":69,"x_max":619,"o":"m 233 385 q 207 376 233 399 q 201 371 204 374 q 176 290 176 346 q 178 269 176 276 l 181 256 q 189 281 183 258 q 215 347 194 307 q 233 385 233 381 m 446 792 q 435 804 450 796 q 426 804 426 808 q 434 792 426 797 q 446 792 442 788 m 531 803 q 526 815 538 803 q 522 818 524 818 q 531 803 518 817 m 157 824 q 133 843 143 843 q 113 829 125 843 q 99 801 99 813 q 118 696 99 793 q 132 554 132 632 q 122 456 132 494 q 107 333 113 413 q 104 278 104 281 q 119 242 104 253 q 129 235 126 236 q 135 234 132 233 q 138 237 138 235 q 142 246 139 239 q 147 299 147 265 q 181 403 150 369 q 238 417 193 417 q 431 365 342 417 q 561 269 476 338 q 582 257 578 257 q 585 260 585 257 q 543 324 585 272 q 471 439 471 417 l 472 440 q 472 443 472 442 q 481 453 478 453 q 511 415 490 453 q 563 344 538 372 l 592 313 l 571 356 q 531 475 540 422 q 529 488 529 481 q 551 531 529 503 q 582 585 578 561 q 583 590 582 586 q 583 597 583 594 q 573 654 583 621 q 549 706 563 688 l 533 724 l 496 707 q 435 689 460 689 q 403 696 421 689 l 383 703 l 383 642 q 359 547 383 568 q 246 522 335 525 l 182 521 l 182 610 l 182 633 q 157 824 182 789 m 506 864 q 510 859 506 851 q 510 872 515 867 q 506 871 507 875 l 506 864 m 476 854 q 513 894 476 894 q 531 890 526 894 q 539 874 536 886 q 557 850 543 854 q 567 826 572 847 q 542 788 563 808 q 506 768 521 768 q 492 761 492 768 q 488 743 492 753 q 486 738 486 740 q 492 732 486 732 q 518 750 504 732 q 536 768 533 768 q 564 733 543 768 q 593 675 585 699 q 610 604 610 629 q 572 529 610 568 q 550 485 550 503 q 588 388 550 461 q 619 294 619 325 l 619 286 q 604 233 618 247 q 582 218 592 218 q 549 239 574 218 q 325 378 401 365 q 308 381 318 379 q 290 383 297 382 q 279 385 283 383 l 275 385 q 251 360 264 385 q 217 268 239 336 l 197 210 l 156 204 q 129 201 133 201 q 96 224 114 201 q 71 267 76 249 q 69 281 69 269 q 99 467 69 340 q 110 551 110 515 q 89 692 110 600 q 71 793 79 732 q 69 814 69 801 q 89 851 69 831 q 133 875 113 875 q 171 856 151 875 q 198 797 190 835 q 211 664 206 758 l 215 557 l 274 557 q 344 568 332 558 q 356 631 356 578 q 360 713 356 690 q 365 735 363 732 q 379 735 368 739 q 421 728 403 728 q 454 739 451 728 q 451 749 456 744 q 435 756 446 753 q 407 778 417 760 q 399 803 399 794 q 408 819 399 811 q 429 851 415 826 q 449 874 442 874 q 454 865 454 874 q 453 854 454 858 q 451 844 451 851 q 464 821 451 821 q 472 829 468 821 q 476 854 476 838 m 517 649 q 526 658 519 656 q 537 659 532 661 q 542 650 542 657 q 535 638 542 643 q 521 632 528 632 q 514 639 514 632 q 517 649 514 640 m 476 628 q 474 633 474 631 q 481 645 474 639 q 493 651 488 651 q 499 643 499 651 q 491 628 499 633 q 476 628 483 624 z "},"L":{"ha":679,"x_min":71,"x_max":604,"o":"m 524 260 q 533 260 524 260 q 542 267 542 260 q 524 274 542 274 q 506 267 506 274 q 524 260 506 260 m 440 360 q 431 368 440 368 q 404 357 419 368 q 378 347 390 347 q 346 351 369 347 q 326 354 336 353 q 311 356 317 356 q 306 354 306 356 q 318 313 306 347 q 360 256 332 271 q 414 239 386 239 q 458 251 438 239 q 490 300 490 271 q 476 332 490 318 q 463 342 467 342 q 449 335 458 343 q 429 332 436 324 q 433 347 424 338 q 440 360 440 354 m 181 853 q 146 867 158 867 q 132 851 135 867 l 132 842 q 156 733 132 803 q 175 640 175 671 q 165 610 175 618 q 153 604 160 604 q 125 669 136 604 q 106 733 114 733 q 100 617 100 733 q 113 292 100 324 q 164 223 133 239 q 283 200 194 207 q 404 194 367 194 q 481 201 440 194 q 571 228 571 217 q 568 232 571 231 q 551 235 563 235 q 450 215 519 235 q 390 204 413 204 q 385 206 388 204 l 382 206 q 342 230 365 211 q 311 261 318 249 q 268 322 293 303 q 233 372 249 339 q 221 432 221 399 q 244 522 221 479 q 267 632 267 567 q 243 765 267 701 q 181 853 219 829 m 122 881 q 158 894 138 894 q 222 858 190 894 q 276 760 254 821 q 293 642 293 714 l 293 618 q 271 522 293 569 q 247 438 247 472 q 261 382 247 406 q 273 364 271 365 q 276 368 275 363 q 278 374 276 369 q 294 386 282 386 q 364 376 311 386 q 379 374 375 375 q 386 375 383 374 q 390 379 389 376 q 390 389 390 382 q 406 417 390 417 q 447 396 419 417 q 519 315 519 342 q 571 294 519 294 q 594 287 588 294 q 603 253 600 279 q 603 248 603 251 q 604 243 604 244 q 581 203 604 218 q 500 176 557 188 q 396 165 440 165 q 267 169 358 165 q 158 187 190 172 q 101 244 125 201 q 80 316 83 278 q 74 576 76 354 l 71 747 l 88 760 q 103 800 103 772 l 103 818 l 103 833 q 122 881 103 865 m 401 310 q 396 325 383 310 q 413 333 407 339 q 415 319 419 329 q 401 310 410 310 z "},"M":{"ha":936,"x_min":74,"x_max":864,"o":"m 519 314 q 510 326 519 322 l 507 326 q 492 312 499 326 q 485 279 485 297 l 485 276 q 486 269 486 269 q 497 279 488 269 q 501 285 500 283 q 519 314 519 308 m 410 335 q 394 344 406 344 q 394 331 381 344 q 413 324 411 313 q 410 335 413 328 m 469 342 q 460 368 467 360 q 442 369 451 381 q 444 333 432 358 q 464 317 458 310 q 469 342 469 324 m 794 756 q 789 765 794 756 q 761 789 783 775 q 722 803 739 803 q 681 790 708 803 q 618 729 642 772 q 578 604 594 686 q 565 529 565 542 q 574 510 565 518 q 582 490 582 500 q 567 474 582 474 q 546 493 560 474 l 533 511 l 508 478 q 486 439 486 447 q 499 431 486 431 q 513 422 513 431 q 493 404 513 411 l 474 399 l 493 378 q 535 360 511 360 q 572 369 553 360 q 579 371 575 371 q 585 365 585 371 q 567 338 585 356 q 549 315 549 319 q 523 272 549 314 q 497 222 497 231 q 500 221 497 221 q 545 248 513 221 q 596 300 578 275 q 639 392 618 332 q 656 492 656 442 q 653 603 656 500 q 663 628 651 628 q 678 571 674 628 q 693 511 682 511 q 703 522 697 511 q 713 624 707 535 q 728 714 718 714 q 742 639 742 714 q 729 529 742 569 q 719 490 719 497 q 722 482 719 485 q 726 456 726 478 q 717 338 726 419 q 715 315 715 329 q 719 288 715 294 q 747 292 728 276 q 792 344 769 307 q 825 414 815 381 q 838 532 838 456 q 821 685 838 626 q 794 756 806 736 m 301 801 q 253 845 265 838 q 222 853 242 853 q 175 835 192 853 q 134 781 140 796 q 125 711 128 765 q 108 596 119 639 q 99 525 99 561 q 100 490 99 503 q 118 390 106 418 q 158 361 131 361 l 168 361 l 188 363 l 190 449 q 204 553 194 535 q 210 568 210 567 q 194 593 210 575 q 176 635 176 611 q 178 663 176 650 q 193 731 181 700 q 218 767 206 763 q 226 760 226 769 q 224 749 225 756 q 214 657 214 714 q 218 622 214 626 q 225 619 221 619 q 247 661 235 619 q 274 700 258 700 q 279 697 278 700 l 281 694 q 281 692 281 693 q 268 622 281 675 q 256 521 256 565 q 289 379 256 450 q 353 281 315 321 q 424 226 403 226 q 429 231 429 226 q 374 310 429 242 q 319 389 319 378 q 321 393 319 392 q 353 388 329 403 q 389 375 375 375 q 422 389 404 375 q 442 426 442 404 q 435 457 442 449 q 406 469 428 465 q 367 493 383 474 l 351 511 l 324 471 q 292 435 301 435 q 289 436 290 435 q 288 442 288 438 q 310 497 288 457 q 337 540 328 529 q 358 551 346 550 l 378 554 l 374 619 q 357 728 368 700 q 301 801 346 757 m 185 874 q 231 888 215 888 q 235 887 232 888 q 240 886 239 886 q 314 840 271 879 q 379 757 357 800 q 406 563 406 701 q 419 503 406 503 q 453 483 433 503 q 472 469 467 469 q 483 478 476 468 q 495 501 488 485 q 510 529 503 517 q 526 547 518 542 q 551 615 540 557 q 617 771 569 708 q 672 813 633 793 q 738 835 710 833 l 744 835 q 801 808 779 835 q 846 706 822 781 q 864 550 864 649 q 849 408 864 453 q 792 301 831 351 q 728 251 753 251 q 701 263 718 251 q 689 314 689 272 q 696 413 689 339 q 699 446 699 440 q 693 467 699 467 q 669 411 683 467 q 539 215 636 279 q 478 189 500 189 q 453 190 463 189 q 375 221 413 196 q 286 313 326 254 q 231 429 246 371 l 221 464 l 219 411 q 215 366 218 376 q 200 346 213 356 q 160 328 176 328 q 128 336 147 328 q 103 354 111 344 q 88 388 96 364 q 74 507 74 425 q 86 621 74 582 q 97 708 97 660 q 185 874 97 829 m 394 428 q 410 437 399 439 q 425 422 422 435 q 417 406 428 411 q 397 408 406 400 q 394 428 390 415 z "},"N":{"ha":869,"x_min":71,"x_max":790,"o":"m 726 225 q 688 259 726 231 q 644 288 650 288 q 668 263 631 288 q 691 247 675 258 q 711 233 707 236 q 726 225 726 221 m 221 740 q 157 772 186 772 q 111 732 122 772 q 90 490 90 656 q 97 343 90 397 q 120 238 104 285 q 150 189 136 192 q 161 191 160 186 q 158 214 163 196 q 150 429 150 256 q 156 553 150 546 q 160 566 157 556 q 167 583 163 576 q 179 589 172 589 q 190 561 190 589 q 219 483 190 532 q 269 415 247 438 q 343 351 290 392 q 528 244 400 308 q 693 178 657 181 q 726 181 726 172 q 679 217 726 188 q 619 258 660 229 q 553 300 578 288 q 528 329 528 311 q 532 339 528 335 q 565 331 538 344 q 619 317 592 317 q 657 329 647 317 q 669 365 669 342 q 643 443 669 400 q 582 521 596 521 q 576 517 578 521 q 569 494 569 507 q 556 472 569 483 q 529 460 542 460 q 488 474 513 460 q 457 489 460 489 q 456 482 456 486 q 464 399 456 454 q 454 382 467 385 l 453 382 q 435 450 435 382 l 435 471 l 436 508 l 393 540 q 269 676 315 596 q 221 740 243 719 m 572 847 q 544 872 558 872 q 524 858 533 872 q 500 750 500 821 q 503 674 500 735 q 506 594 506 604 q 496 532 506 550 q 488 511 488 517 q 500 499 489 506 q 524 489 514 489 q 547 521 539 489 q 582 564 558 564 q 597 558 590 564 q 618 556 613 547 q 624 590 624 561 q 607 730 624 643 q 572 847 590 817 m 517 885 q 551 903 535 903 q 585 883 569 903 q 640 697 615 847 q 650 607 650 639 q 647 560 650 596 q 643 514 643 526 q 654 482 643 497 q 697 369 697 419 q 690 335 697 353 q 686 322 686 326 q 736 264 686 310 q 790 194 790 213 q 758 167 790 182 q 690 153 726 153 q 597 175 647 153 q 442 253 542 200 q 315 324 342 306 q 204 446 251 369 q 179 475 186 475 q 175 472 178 475 q 169 407 169 463 q 179 264 169 318 q 186 208 186 222 q 169 165 186 183 q 146 151 157 151 q 96 224 119 151 q 71 518 71 308 q 75 621 71 579 q 83 735 83 707 q 104 806 83 778 q 151 833 125 833 q 189 815 172 833 q 226 789 208 796 q 276 722 246 781 q 361 610 306 665 q 465 536 435 536 q 471 538 469 536 q 479 640 479 546 q 478 718 479 689 l 478 753 q 485 833 478 807 q 517 885 493 860 m 614 429 q 633 433 629 442 q 626 415 633 426 q 613 403 618 403 q 608 405 610 403 q 606 410 607 407 q 606 416 606 413 q 609 423 607 419 q 614 429 611 426 m 539 397 q 568 403 544 403 q 592 397 592 403 q 581 381 592 388 q 554 374 569 374 q 535 381 540 374 q 539 397 531 389 z "},"O":{"ha":821,"x_min":72,"x_max":747,"o":"m 556 258 q 510 267 549 267 q 444 256 453 267 q 442 244 436 247 q 481 240 453 244 q 529 236 515 236 q 553 243 546 236 q 556 258 561 251 m 379 346 q 343 388 347 388 q 332 372 340 389 q 329 365 331 369 q 301 340 319 340 q 267 357 286 340 q 243 371 249 371 q 238 363 238 371 q 242 336 238 354 q 253 308 246 315 q 294 283 261 300 q 394 254 356 254 q 415 258 408 254 q 422 271 422 263 q 379 346 422 293 m 474 631 q 414 675 429 675 q 372 660 396 674 q 338 632 349 647 q 308 559 321 610 q 294 468 294 508 q 308 367 294 367 q 326 397 313 368 q 351 428 340 428 q 368 410 360 428 q 404 363 372 403 q 440 310 436 324 q 454 294 446 294 q 461 326 465 294 q 460 335 461 329 q 460 342 460 340 q 476 379 460 361 q 515 410 490 397 q 551 440 532 415 q 576 489 569 465 l 582 506 l 564 493 q 528 482 542 479 q 513 507 513 483 q 514 535 513 522 l 517 586 l 474 631 m 643 749 q 531 840 604 804 q 367 875 458 875 q 310 872 325 875 q 271 853 294 868 q 149 686 200 808 q 97 447 97 564 q 110 351 97 394 q 148 287 121 318 q 204 244 175 256 q 222 237 207 243 q 251 224 236 231 q 279 211 267 217 q 406 175 357 175 q 450 181 429 175 q 490 201 490 190 q 444 214 490 213 q 340 234 400 215 q 246 276 281 253 l 211 300 l 214 342 q 226 401 217 386 q 238 413 233 413 q 250 406 242 414 q 258 400 256 400 q 268 468 264 400 q 304 626 274 571 q 400 701 335 681 l 439 714 q 544 599 475 676 l 544 553 q 549 514 544 514 q 556 518 551 514 q 575 565 565 528 l 586 603 l 551 667 q 522 729 522 717 q 526 738 522 736 q 531 739 528 739 q 576 683 542 739 q 610 623 604 639 q 617 576 617 607 q 592 463 617 514 q 524 388 567 413 q 496 367 503 376 q 489 338 489 357 q 547 294 489 294 q 647 344 601 294 q 717 504 703 406 q 721 549 721 528 q 643 749 721 633 m 331 897 q 382 901 358 901 q 572 852 483 901 q 704 719 660 803 q 747 550 747 639 q 733 446 747 496 q 681 345 719 396 q 606 281 642 294 q 586 253 590 274 q 536 201 581 231 q 463 159 483 167 q 397 151 442 151 q 340 156 360 151 q 276 183 321 161 q 193 219 204 217 q 138 258 171 225 q 92 327 106 290 q 74 432 78 364 q 73 443 74 436 q 72 454 72 450 q 113 654 72 544 q 208 826 153 764 q 265 876 240 863 q 331 897 290 890 m 369 310 q 382 317 375 319 q 386 304 389 314 q 369 292 383 292 q 346 285 356 292 q 333 283 336 279 q 333 299 329 288 q 350 306 336 307 q 369 310 364 304 z "},"P":{"ha":625,"x_min":71,"x_max":550,"o":"m 272 351 q 240 401 246 401 q 236 386 236 401 q 269 307 236 324 q 289 299 281 301 q 297 297 297 296 q 272 351 297 301 m 199 418 q 178 424 192 424 q 157 413 157 424 q 174 352 157 390 q 203 311 192 314 l 206 311 l 208 310 q 215 325 215 310 q 213 360 215 329 q 199 418 207 414 m 132 410 q 110 481 119 464 q 100 493 103 493 q 94 460 94 493 q 99 379 94 431 q 121 236 106 283 q 167 163 136 189 q 225 136 199 136 q 257 172 257 136 q 203 281 254 278 q 165 321 188 281 q 132 410 143 361 m 357 592 q 349 614 357 614 q 329 603 343 614 q 303 589 310 589 q 283 575 296 589 q 271 554 271 561 q 275 549 271 550 q 284 549 279 549 q 292 547 289 550 q 294 538 296 544 q 297 525 292 525 l 321 535 q 357 592 357 553 m 342 703 q 319 710 328 710 q 279 697 304 710 q 251 667 258 686 q 243 601 243 647 q 251 575 243 575 q 265 589 257 575 q 321 626 276 606 q 371 651 368 649 q 372 654 372 653 q 361 681 372 663 q 342 703 350 699 m 515 564 q 522 606 522 585 q 461 748 522 679 q 317 817 400 817 l 308 817 q 207 783 247 815 q 136 676 167 750 q 114 582 114 624 q 125 526 114 553 q 138 507 133 507 q 156 514 142 507 q 206 524 178 524 l 235 524 l 224 546 q 215 592 215 563 q 217 624 215 611 q 224 674 219 663 q 246 701 228 686 q 301 732 267 721 q 328 736 318 736 q 357 728 340 736 q 397 650 397 707 q 393 608 397 631 q 354 536 383 565 q 233 490 306 490 q 211 492 219 490 q 186 493 201 493 q 150 478 150 493 q 151 472 150 475 q 260 446 161 446 q 425 471 356 446 q 477 509 449 479 q 515 564 506 539 m 250 832 q 322 846 283 846 q 481 776 411 846 q 550 619 550 706 q 541 556 550 576 q 500 499 532 535 q 433 449 468 465 q 338 424 397 433 q 279 408 279 414 q 295 370 279 401 q 322 325 311 339 q 335 293 335 308 q 301 263 335 263 q 289 264 293 263 q 272 265 275 268 q 274 244 269 263 q 283 172 283 197 q 276 143 283 151 q 242 116 267 129 q 197 103 217 103 q 193 103 196 103 q 189 104 190 104 q 141 137 169 110 q 103 188 113 164 q 71 444 71 267 q 82 586 71 536 q 118 692 94 644 q 143 750 143 742 q 162 775 143 756 q 200 808 181 794 q 250 832 208 815 z "},"Q":{"ha":813,"x_min":75,"x_max":740,"o":"m 632 467 q 610 479 615 479 q 604 456 604 479 q 583 406 604 432 q 524 361 561 379 q 422 254 422 308 q 423 249 422 253 q 424 244 424 246 q 437 202 426 225 q 454 174 447 179 q 458 167 456 172 q 466 151 461 161 q 475 135 471 142 q 546 61 497 90 q 646 31 594 32 q 683 36 683 31 q 647 69 683 43 q 574 164 582 117 q 572 186 572 172 q 600 243 572 231 q 686 361 633 261 q 713 446 713 413 q 701 479 713 479 q 672 467 693 479 q 650 456 654 456 q 632 467 646 456 m 160 571 q 147 589 151 589 q 113 539 139 589 q 103 474 103 519 q 111 397 103 431 q 147 306 118 367 q 197 217 176 246 q 272 163 218 186 q 368 140 326 140 q 403 149 390 140 q 413 165 413 157 q 397 213 413 178 q 392 227 394 217 q 388 240 389 238 q 360 263 383 253 q 296 311 335 272 q 263 353 263 343 q 267 361 263 357 q 274 376 274 368 q 253 396 274 396 q 213 422 225 396 q 222 458 204 438 l 240 481 q 206 589 218 553 l 194 571 q 176 554 183 554 q 160 571 168 554 m 669 621 q 658 624 669 624 q 647 613 647 624 q 669 621 647 594 m 414 622 q 406 635 425 626 q 400 636 403 635 q 379 642 381 642 q 389 631 378 642 q 414 622 404 615 m 197 632 q 169 642 197 642 q 157 638 158 642 q 156 633 156 636 q 165 622 156 628 q 181 615 174 615 q 188 618 185 615 q 197 632 197 625 m 386 717 q 390 721 390 717 q 386 725 390 725 q 383 721 383 725 q 386 717 383 717 m 246 749 q 240 768 249 768 q 235 761 231 768 q 228 746 239 754 q 211 742 218 738 l 210 742 l 208 743 q 192 733 201 743 q 182 713 182 722 q 188 703 182 703 q 218 715 193 703 q 246 749 243 728 m 519 758 q 449 772 501 772 q 431 768 431 772 q 443 760 431 760 q 473 743 456 760 q 490 715 490 726 q 479 703 490 703 q 454 706 476 703 q 428 708 432 708 q 397 689 397 708 q 453 660 397 660 q 488 651 488 660 q 460 621 488 644 q 403 600 436 601 l 394 600 q 357 624 375 600 q 340 669 340 647 q 353 713 340 688 q 379 743 367 738 q 390 753 390 749 q 347 764 390 764 q 331 761 336 764 q 297 751 326 758 q 265 732 268 743 q 243 704 260 717 q 225 660 226 692 q 226 617 222 625 q 261 496 261 525 q 246 463 261 478 q 235 440 235 449 q 257 424 235 424 q 288 412 275 424 q 301 383 301 400 q 301 379 301 382 q 300 375 300 376 q 299 365 299 372 q 324 325 299 351 q 390 285 361 285 q 407 293 403 285 q 450 340 417 313 q 521 386 483 367 l 572 413 l 578 451 q 610 517 586 517 q 624 528 618 517 q 629 553 629 539 q 625 572 629 564 q 621 613 617 590 q 611 650 625 638 q 597 683 597 664 q 588 703 597 703 q 564 725 576 703 q 544 746 551 746 q 519 758 538 746 m 297 796 q 272 803 286 803 q 257 797 261 803 l 256 796 l 256 794 q 269 781 256 788 q 296 775 282 775 q 310 782 310 775 q 297 796 311 789 m 533 789 q 537 789 533 789 q 540 800 540 789 q 533 811 540 811 q 526 800 526 811 q 533 789 526 789 m 379 803 q 364 818 367 818 q 361 803 361 818 q 378 789 361 789 q 379 803 392 789 m 474 811 q 454 824 458 824 q 440 818 450 825 q 436 813 436 817 q 452 801 436 806 q 476 796 468 796 q 488 798 488 796 q 476 808 488 800 l 474 811 m 433 835 q 468 853 456 853 q 479 849 475 853 q 515 846 485 843 l 525 846 q 558 829 547 846 q 592 807 571 813 q 615 786 611 803 q 640 758 621 771 q 663 721 663 746 q 679 681 663 693 q 701 631 696 668 q 706 581 706 597 q 690 533 706 554 q 678 508 678 517 q 682 504 678 504 q 697 514 688 504 q 714 522 708 522 q 739 463 732 522 q 740 452 739 458 q 740 443 740 446 q 708 354 740 419 q 636 246 672 283 q 597 188 597 204 q 665 96 597 146 q 710 44 710 64 q 696 18 710 35 q 664 3 681 3 q 638 4 649 3 q 540 35 588 8 q 465 101 493 61 q 426 132 444 132 q 408 122 417 132 q 379 111 399 111 q 353 113 364 111 q 192 178 249 121 q 113 311 150 219 q 75 464 75 403 q 108 567 75 517 q 125 613 125 594 q 140 651 125 633 q 158 697 157 669 q 168 731 160 718 q 213 776 176 743 q 294 832 275 832 q 301 829 299 832 q 321 836 306 825 q 353 846 332 846 q 394 831 379 846 l 411 815 l 433 835 z "},"R":{"ha":681,"x_min":76,"x_max":604,"o":"m 226 224 q 233 228 229 224 q 238 249 238 232 q 235 289 238 256 l 228 342 l 224 285 q 221 242 221 246 q 226 224 221 224 m 403 769 q 403 780 408 775 q 397 775 397 785 q 399 769 397 771 q 403 769 400 767 m 372 765 q 362 793 367 788 q 343 801 357 799 l 338 801 q 295 787 314 801 q 272 750 276 772 q 254 714 268 728 q 242 706 246 706 q 229 714 238 706 q 218 744 218 725 l 218 764 l 200 746 q 175 694 186 731 q 164 626 164 658 q 165 608 164 614 q 203 537 174 557 q 301 517 233 517 q 341 517 326 517 q 369 522 356 518 q 388 528 382 525 q 408 539 393 531 q 432 551 422 547 q 472 590 461 565 q 483 665 483 615 q 469 738 483 717 q 436 765 453 765 q 425 758 428 765 q 390 726 408 726 l 388 726 q 372 765 381 729 m 310 839 q 313 856 315 853 q 297 858 311 858 l 293 858 q 224 836 256 858 q 185 825 208 825 q 135 836 161 825 q 106 846 110 846 q 99 833 99 846 q 100 817 99 824 q 133 679 119 696 q 146 699 138 674 q 147 701 147 700 q 229 796 168 768 q 252 808 243 801 q 258 818 261 815 q 262 835 254 824 q 276 846 269 846 q 283 832 283 846 q 292 818 283 818 q 310 839 303 818 m 550 664 q 506 858 550 749 l 493 896 l 454 867 q 400 840 421 840 q 378 842 386 840 q 356 843 368 843 q 342 840 342 843 q 383 826 342 835 q 515 679 515 801 q 506 600 515 636 q 471 552 500 581 q 429 524 442 524 q 410 515 418 524 q 286 489 383 489 q 223 492 238 489 q 183 513 208 494 q 147 528 147 536 q 153 514 147 519 q 156 489 156 511 q 150 406 156 451 q 140 243 140 308 q 142 189 140 197 q 157 181 144 181 q 182 190 175 181 q 200 306 190 201 q 218 416 208 396 q 269 446 228 436 q 300 451 294 451 q 344 417 321 451 q 468 265 396 342 q 560 188 540 188 q 575 196 575 188 q 549 244 575 208 q 470 375 513 296 q 428 468 428 454 q 472 514 428 483 q 533 574 517 544 q 550 656 550 604 l 550 664 m 458 896 q 511 925 494 925 q 526 903 526 925 q 540 847 526 878 q 579 660 579 754 q 514 518 579 575 l 482 489 l 529 396 q 571 294 571 314 q 569 286 571 289 q 567 276 567 281 q 585 244 567 267 q 604 203 604 221 q 589 172 604 185 q 553 160 575 160 q 515 171 533 160 q 432 260 500 181 q 335 381 364 339 q 289 422 308 421 q 285 423 288 422 q 281 424 282 424 q 269 417 272 424 q 264 390 267 411 q 261 350 261 374 q 264 299 261 332 q 265 263 265 285 q 255 222 265 236 q 210 182 244 208 q 135 146 165 146 q 122 149 131 146 q 111 193 111 153 q 122 356 111 246 q 131 464 131 442 q 124 510 131 483 q 111 583 117 538 q 89 721 103 663 q 76 822 76 786 l 76 832 q 79 863 78 854 q 84 876 81 872 q 94 881 88 879 l 97 881 q 139 868 114 881 q 190 853 169 853 q 224 864 208 853 q 281 883 238 875 q 314 886 294 886 q 356 879 335 886 q 403 868 389 868 q 458 896 425 868 z "},"S":{"ha":783,"x_min":78,"x_max":710,"o":"m 188 276 q 192 294 200 294 q 186 294 189 294 q 140 286 176 294 q 113 275 119 281 q 106 258 106 269 q 118 233 106 243 q 151 224 131 224 q 172 227 167 224 q 176 242 176 231 q 188 276 176 261 m 318 339 q 308 356 317 356 q 265 325 297 356 q 246 308 257 318 q 227 291 235 297 q 217 282 219 285 q 206 254 206 274 q 218 221 206 231 q 242 210 232 210 q 279 222 253 210 q 308 235 282 224 q 345 254 333 247 q 376 274 357 261 q 404 299 396 286 q 413 326 413 313 q 401 336 413 336 q 365 326 389 336 q 338 319 344 319 q 318 339 322 319 m 539 868 q 490 874 507 874 q 456 868 472 874 q 335 786 397 850 q 278 679 278 725 q 315 586 278 640 q 454 478 374 503 q 542 404 542 451 q 519 357 542 381 q 467 328 496 333 q 431 303 440 322 q 393 260 419 282 q 238 178 365 235 l 215 168 l 244 160 q 269 157 253 157 q 390 190 306 157 q 457 204 431 204 q 485 203 475 204 q 494 202 488 203 q 506 201 501 201 q 585 215 533 201 q 631 233 622 226 q 650 264 639 240 q 663 314 663 293 q 662 322 663 317 q 661 331 661 328 q 617 431 651 411 q 593 464 593 444 q 599 475 593 471 q 613 481 606 481 q 640 464 622 481 q 675 446 665 446 q 682 453 682 446 q 681 461 682 458 q 652 510 674 481 q 614 551 631 540 q 534 594 596 565 q 463 624 472 624 q 419 644 447 624 q 390 675 390 665 q 493 736 390 736 q 525 735 514 736 q 608 729 606 729 q 658 746 639 729 q 678 785 678 765 q 651 831 678 807 q 626 848 640 842 q 603 856 611 854 q 572 863 596 858 q 539 868 547 867 m 460 896 q 492 900 474 900 q 506 899 503 900 q 519 897 510 899 q 543 894 529 896 q 567 892 557 893 q 668 858 631 885 q 706 790 706 831 q 697 756 704 768 q 661 722 689 744 q 593 701 632 701 q 533 708 563 701 q 496 713 517 713 q 445 706 467 713 q 424 689 424 699 q 443 669 424 681 q 542 624 463 658 q 631 576 604 596 q 681 522 657 557 q 710 454 710 476 q 694 425 710 436 q 678 403 678 411 q 683 378 678 400 q 690 328 690 346 q 674 260 690 293 q 481 174 629 174 q 417 169 439 174 q 335 143 394 164 q 258 131 297 131 q 201 140 225 131 q 178 164 178 150 q 186 181 178 172 q 196 196 196 193 q 172 201 196 201 l 160 201 l 144 201 q 102 207 115 201 q 83 231 89 213 q 78 253 78 247 q 185 318 78 300 q 236 331 222 325 q 278 364 250 338 q 332 401 319 401 q 340 385 340 401 q 354 351 340 351 q 389 361 360 351 q 425 372 419 372 q 438 364 431 372 q 458 353 444 353 q 490 363 472 353 q 515 390 515 374 q 511 408 515 397 q 425 456 504 428 q 304 547 360 479 q 247 669 249 614 q 317 804 247 729 q 460 896 388 879 m 276 276 q 264 285 267 269 q 276 303 263 303 q 283 292 283 303 q 276 276 283 281 m 307 286 q 324 286 319 299 q 319 269 325 278 q 304 260 310 260 q 299 265 300 260 q 300 276 297 269 q 307 286 303 282 z "},"T":{"ha":588,"x_min":78,"x_max":511,"o":"m 382 621 q 376 703 379 693 l 371 721 l 358 703 q 322 671 350 689 q 283 653 294 653 q 251 675 276 653 l 226 696 l 236 635 q 250 507 243 589 q 293 104 268 231 q 311 13 311 14 q 317 8 311 8 q 321 28 321 8 q 319 63 321 36 q 318 106 318 90 q 329 169 318 157 q 343 178 336 178 q 374 133 361 178 q 410 42 399 42 l 411 42 q 417 90 417 46 q 410 194 417 147 q 401 272 401 256 q 411 293 401 292 l 413 293 q 435 256 422 293 q 471 204 451 204 q 478 207 475 204 q 482 218 482 211 q 451 299 482 238 q 382 621 386 429 m 206 760 q 205 767 206 764 q 203 773 204 771 q 201 777 201 775 q 199 780 200 779 q 197 781 199 781 q 126 744 157 775 q 104 713 104 722 q 114 696 104 704 q 138 697 126 688 q 179 724 149 708 q 201 738 196 733 q 207 750 207 742 q 206 754 207 751 q 206 760 206 757 m 372 785 q 343 788 367 801 q 281 779 331 779 q 238 776 244 779 q 232 758 232 774 q 251 705 232 728 q 296 682 269 682 q 347 715 319 682 q 374 775 374 749 q 372 785 374 782 m 431 808 q 404 825 414 825 q 393 782 393 825 q 406 708 393 738 q 436 676 419 676 q 453 682 442 676 q 469 718 469 690 q 431 808 469 765 m 356 817 q 349 824 363 824 q 332 824 343 824 q 261 808 261 819 q 283 804 261 804 q 356 817 343 804 m 325 849 q 367 851 350 851 q 447 836 429 851 q 493 722 493 794 q 479 675 493 690 q 438 656 465 661 l 408 651 l 414 560 q 431 431 418 482 q 482 301 444 379 q 511 226 511 240 q 494 196 511 211 q 460 181 476 181 l 440 181 l 440 118 q 407 17 440 22 l 403 17 q 356 106 388 17 l 343 142 l 339 60 q 324 -31 336 -22 q 314 -35 317 -35 q 276 71 300 -35 q 232 397 244 211 q 214 607 225 511 q 196 707 203 703 l 194 707 q 151 683 189 707 q 111 660 114 660 q 90 678 101 660 q 78 708 78 696 q 124 767 78 722 q 181 811 169 811 q 206 821 192 811 q 325 849 222 831 m 267 738 q 307 750 272 750 q 331 742 328 750 q 322 725 333 732 q 301 724 310 718 q 282 725 293 732 q 266 722 271 718 q 267 738 261 726 z "},"U":{"ha":733,"x_min":72,"x_max":663,"o":"m 285 567 q 285 592 288 579 q 281 579 282 588 l 283 564 q 285 567 283 564 m 361 671 q 338 685 343 685 q 315 672 332 685 q 278 658 299 658 q 259 655 261 658 q 265 638 257 651 q 289 626 272 622 l 292 628 q 296 628 294 628 q 339 617 317 628 q 375 606 371 601 q 381 633 381 611 q 361 671 381 654 m 250 886 q 231 917 238 917 q 168 842 219 917 q 114 678 114 763 q 107 640 114 644 q 100 581 100 636 q 110 454 100 517 q 197 290 128 357 q 426 201 290 201 q 465 204 440 201 q 527 234 501 210 q 582 315 553 258 q 622 428 611 375 q 636 586 632 482 q 639 667 639 653 q 629 751 639 717 q 572 835 608 835 q 529 807 551 835 q 517 790 519 794 q 511 776 514 786 q 508 750 508 767 q 513 665 508 728 q 514 610 514 647 q 501 461 514 529 q 468 369 489 393 q 446 349 451 349 q 432 375 439 349 q 400 430 426 396 q 364 464 374 464 q 361 457 361 464 q 363 440 361 451 q 367 421 364 429 l 368 413 q 389 376 368 403 q 408 332 408 353 q 396 303 408 315 q 367 290 383 290 q 353 294 357 290 q 352 302 349 297 q 365 310 356 307 q 379 325 379 314 q 319 396 379 351 q 288 414 296 414 q 279 410 283 414 q 276 404 276 407 q 301 368 276 397 q 324 336 324 344 q 318 326 324 331 q 285 342 306 315 q 221 442 221 415 q 231 463 221 453 q 249 471 239 471 q 296 449 264 471 q 333 428 329 428 q 304 508 310 490 q 283 550 292 550 q 275 543 279 550 q 258 536 271 536 q 211 557 239 536 q 169 579 183 579 q 161 593 151 579 l 172 603 q 183 606 175 606 q 238 578 204 606 q 258 567 253 567 q 263 574 263 567 q 254 601 263 581 q 222 646 243 626 q 186 665 201 665 q 168 674 172 665 q 174 692 164 682 q 171 722 185 703 q 156 768 156 743 q 167 788 156 788 q 189 751 176 788 q 225 701 200 718 q 274 686 251 686 q 367 771 333 686 q 386 829 386 815 q 382 836 386 836 q 375 833 381 836 q 351 829 364 829 q 308 835 335 829 q 272 850 283 840 q 250 886 261 860 m 228 939 q 242 944 239 944 q 271 906 253 944 q 292 873 283 879 q 325 861 300 867 q 354 857 344 857 q 378 864 367 857 q 406 874 392 874 q 415 856 415 874 q 399 782 415 815 q 365 704 365 714 q 367 701 365 701 q 388 686 372 701 q 403 638 403 671 q 388 585 403 603 q 372 572 378 572 q 349 581 367 572 q 318 593 324 593 q 314 572 314 593 q 319 532 314 546 q 335 521 324 521 q 389 484 347 521 q 442 425 431 447 q 460 400 456 400 q 482 489 468 400 q 488 588 488 518 q 486 658 488 632 l 481 779 l 501 807 q 578 865 544 865 q 621 843 599 865 q 655 782 647 817 q 663 651 663 747 l 663 611 q 651 434 661 494 q 613 314 640 374 q 565 240 594 278 q 515 190 536 203 q 422 171 485 171 q 258 208 333 171 q 174 269 217 229 q 114 347 132 310 q 72 585 72 431 q 81 679 72 639 q 115 792 99 758 q 168 872 131 825 q 228 939 218 933 m 256 776 q 268 778 261 782 q 275 765 275 774 q 264 753 275 756 q 251 760 254 751 q 256 776 249 769 m 296 740 q 294 743 294 742 q 303 757 294 749 q 317 765 311 765 q 322 756 322 765 q 312 741 322 747 q 296 740 301 735 z "},"V":{"ha":799,"x_min":79,"x_max":722,"o":"m 503 453 q 476 497 503 468 q 454 518 456 518 l 454 517 q 456 506 454 511 q 468 468 458 497 q 481 425 478 439 q 494 431 482 414 q 503 453 501 443 m 683 778 q 663 811 672 804 q 661 811 661 811 l 658 813 q 620 794 646 813 q 588 760 594 775 q 571 651 575 738 q 551 503 565 564 q 506 403 538 442 q 478 350 478 368 q 478 341 478 347 q 479 331 479 335 q 469 297 479 310 q 442 285 458 285 l 436 285 l 419 288 l 438 303 q 450 329 450 315 q 418 418 450 353 q 371 483 388 483 q 365 482 367 483 q 358 464 358 478 q 381 392 358 443 q 396 346 396 360 q 393 336 396 342 q 382 328 386 328 q 356 371 375 328 q 332 458 332 419 q 340 499 332 482 q 353 517 347 514 q 371 518 358 521 q 436 460 407 510 q 439 454 438 458 l 442 457 q 440 460 440 458 q 426 485 436 471 q 405 521 415 497 q 394 556 394 544 q 383 579 394 568 q 372 600 372 588 q 383 614 372 614 q 403 604 390 614 q 424 594 415 594 l 426 594 q 440 611 440 596 q 417 667 440 631 q 372 707 389 707 q 358 679 358 707 q 347 658 358 658 q 340 642 335 658 q 349 582 349 611 q 317 521 349 521 q 288 533 303 521 q 272 554 272 544 q 297 561 272 567 q 303 560 300 561 q 307 559 306 560 q 310 558 308 558 q 314 558 313 558 q 322 582 322 558 q 304 641 322 610 q 268 672 286 672 q 240 586 240 672 q 231 529 240 529 q 217 557 225 529 q 210 581 211 581 q 208 563 208 581 q 265 374 208 492 q 383 215 324 256 q 428 200 407 200 q 533 292 472 200 q 653 516 610 404 q 696 707 696 628 q 683 778 696 749 m 358 825 q 344 851 358 832 l 331 868 l 324 854 q 315 824 315 838 q 303 804 315 804 q 283 811 297 804 q 249 824 264 824 q 186 776 219 824 q 153 747 165 747 q 138 749 143 747 l 113 753 l 143 694 q 201 621 181 621 q 218 643 214 621 q 244 681 222 661 q 279 701 265 701 q 308 683 290 701 q 331 665 326 665 q 338 682 338 665 q 350 715 338 701 q 381 729 363 729 q 398 733 394 729 q 401 750 401 738 q 388 792 401 767 q 365 817 374 817 q 358 825 358 817 m 285 857 q 310 874 297 853 q 335 894 322 894 q 404 825 354 894 q 432 758 432 785 q 424 728 432 742 q 419 714 419 719 q 440 676 419 703 q 468 611 468 640 q 444 572 468 585 q 422 551 422 558 q 433 546 422 546 q 444 547 440 546 q 456 549 449 549 q 490 525 467 549 q 518 500 513 500 q 542 643 533 500 q 555 744 546 713 q 588 801 564 775 q 657 846 626 846 q 718 764 699 846 q 722 722 722 744 q 688 549 722 651 q 596 349 654 446 q 475 189 521 219 q 424 169 444 169 q 340 221 390 169 q 234 385 283 282 q 182 556 185 488 q 176 598 181 586 q 154 626 172 610 q 115 678 128 653 q 102 702 113 683 q 88 728 92 721 q 79 753 79 742 q 125 782 79 774 q 189 819 158 788 q 268 860 226 860 q 285 857 274 860 m 261 781 q 278 785 267 789 q 290 772 290 782 q 271 758 290 765 q 249 747 251 751 q 232 738 242 736 q 222 750 222 739 q 231 769 222 760 q 246 779 239 779 q 250 778 249 779 q 261 781 257 774 z "},"W":{"ha":1161,"x_min":74,"x_max":1088,"o":"m 894 460 q 886 474 894 469 q 881 468 882 472 q 888 453 881 457 q 892 453 890 451 q 894 460 894 456 m 290 483 q 275 488 290 499 q 264 474 269 482 q 257 450 257 463 q 263 439 257 439 q 276 453 267 439 q 290 483 290 474 m 369 651 q 356 658 369 658 q 326 635 340 658 q 313 592 313 611 q 319 575 313 579 l 322 575 q 353 598 332 575 q 374 632 374 621 q 372 642 374 635 q 369 651 369 650 m 167 736 q 140 751 151 751 q 114 736 129 751 q 100 647 100 721 l 100 574 l 142 489 q 182 401 182 406 q 213 350 182 394 q 264 286 244 306 q 294 260 283 265 q 322 254 304 254 q 371 274 349 254 q 429 351 393 294 q 490 492 490 449 q 481 511 490 507 q 471 567 471 517 q 447 638 471 638 q 419 613 433 638 q 406 567 406 589 q 418 542 406 542 q 435 553 424 542 q 460 563 447 569 q 463 557 463 561 q 441 528 463 549 q 410 507 419 507 q 388 522 400 507 q 376 551 376 538 q 369 567 376 567 q 349 539 361 567 q 333 503 333 506 q 337 501 333 501 q 346 502 340 501 q 357 504 351 503 q 367 506 361 506 q 399 464 399 506 q 385 400 399 442 q 354 349 367 349 q 347 353 351 349 q 344 363 344 356 q 351 394 344 378 q 363 454 363 424 q 360 475 363 474 q 353 471 358 476 q 321 408 344 461 q 297 344 297 356 q 308 329 297 335 q 319 316 319 325 q 307 303 318 307 q 301 301 306 301 q 281 317 290 301 q 271 351 271 332 l 271 363 q 250 411 271 385 q 218 473 226 442 q 204 582 210 504 q 192 688 199 658 q 167 736 185 717 m 1046 732 q 1024 756 1033 756 q 1000 743 1017 756 q 973 704 979 728 q 960 604 967 681 q 908 418 950 478 q 888 358 888 386 q 869 315 888 326 q 850 308 861 308 q 840 315 840 308 q 847 329 840 319 q 857 346 857 339 q 836 406 857 357 q 793 476 804 476 q 788 475 789 476 q 781 460 781 472 q 797 407 781 447 q 811 363 811 378 q 796 349 811 349 q 760 450 771 349 q 759 460 760 454 q 758 467 758 465 q 772 500 758 486 q 803 510 786 514 q 814 510 813 507 q 813 529 815 513 q 796 567 807 556 q 788 582 788 575 q 799 590 788 590 q 821 583 807 590 q 842 576 835 576 q 849 585 849 576 q 836 617 849 594 q 797 660 813 660 q 776 590 776 660 q 767 531 775 547 q 740 514 760 514 q 714 526 726 514 q 701 549 701 538 q 703 553 701 550 q 729 553 711 575 q 751 564 751 526 q 741 606 751 585 q 718 632 731 626 q 708 635 710 635 q 685 579 685 635 l 685 564 l 685 542 q 675 514 685 514 q 660 535 664 514 q 649 557 656 557 q 643 540 643 557 q 644 525 643 531 q 711 352 657 433 q 824 254 765 271 q 849 250 839 250 q 886 267 869 250 q 933 329 903 283 q 1056 654 1053 510 q 1046 732 1056 713 m 815 703 q 815 711 815 703 q 792 756 815 719 q 758 792 768 792 q 747 774 751 792 q 725 750 743 750 q 711 758 715 750 q 696 765 708 765 q 653 739 675 765 q 621 721 629 710 q 608 729 613 729 q 603 714 603 729 q 604 692 603 701 q 636 604 614 613 q 649 601 644 601 q 654 603 653 601 q 658 611 656 604 q 663 624 660 618 q 690 656 669 643 q 709 665 703 665 q 729 657 715 665 q 747 649 742 649 q 765 665 753 649 q 797 686 782 686 q 815 703 815 686 m 424 751 q 403 774 413 751 l 393 796 l 375 771 q 340 703 340 726 q 361 686 340 686 q 399 651 399 686 l 399 633 l 415 649 q 446 665 435 665 q 475 651 458 665 q 492 626 492 638 q 503 607 492 615 q 513 603 507 603 q 544 644 529 603 q 558 710 558 685 q 557 718 558 717 q 550 717 550 725 q 542 707 550 707 q 513 731 522 707 q 465 764 497 764 q 449 760 457 764 q 424 751 436 751 m 375 818 q 397 833 388 833 q 418 811 410 833 q 453 794 426 794 q 528 763 501 794 q 538 755 535 756 q 550 763 540 754 q 576 772 565 775 l 582 772 q 594 775 588 772 q 606 778 601 778 q 618 772 613 778 q 657 779 629 764 q 704 794 685 794 q 738 813 722 794 q 763 829 750 829 q 811 781 779 829 q 843 710 843 731 q 838 686 843 697 q 839 663 829 672 q 867 619 849 653 l 883 586 l 868 564 q 858 543 853 543 q 885 524 860 543 q 917 506 910 506 q 919 507 919 506 q 932 606 925 514 q 949 719 940 700 q 987 763 957 739 q 1032 788 1017 788 q 1060 767 1044 788 q 1083 719 1076 746 q 1088 683 1088 706 q 1054 521 1088 617 q 976 357 1028 444 q 893 246 925 269 q 839 231 871 231 q 736 269 772 231 q 621 521 644 368 q 603 593 610 586 q 585 625 592 604 l 578 646 l 564 617 q 539 582 549 586 q 528 557 528 576 q 431 304 528 453 q 324 226 379 226 q 226 281 272 226 q 122 468 179 336 q 74 658 74 578 q 121 769 74 738 q 140 776 132 776 q 199 732 169 776 q 217 692 213 711 q 225 606 221 672 q 236 501 232 507 q 269 522 240 496 q 293 553 293 546 q 290 561 293 556 q 283 586 283 568 q 303 646 283 622 q 315 682 315 663 q 315 689 315 683 q 314 697 314 694 q 313 714 313 703 q 335 764 313 732 q 375 818 361 803 m 431 729 q 449 733 435 743 q 467 725 463 724 q 485 719 476 728 q 489 701 494 710 q 473 694 483 693 q 463 704 463 696 q 450 710 463 714 q 432 714 439 707 q 431 729 425 721 m 704 729 q 712 735 707 733 q 720 734 717 736 q 724 726 724 732 q 703 708 724 721 q 671 696 682 696 q 667 697 668 696 q 670 715 661 703 q 689 724 679 726 q 704 729 699 722 z "},"X":{"ha":782,"x_min":78,"x_max":704,"o":"m 149 189 q 135 210 164 200 q 126 211 129 211 q 115 202 122 211 q 107 189 107 193 q 124 183 107 183 q 149 189 142 183 m 443 315 q 440 336 443 319 q 433 358 438 353 q 414 363 428 363 l 393 363 l 407 340 q 438 306 428 306 q 443 315 443 306 m 293 315 q 282 368 293 368 q 256 351 275 368 q 221 328 229 328 q 206 344 214 328 q 192 360 200 360 q 165 326 182 360 q 143 292 149 293 q 135 275 135 289 q 154 233 135 250 q 197 219 172 219 q 251 231 218 219 q 286 253 279 240 q 293 315 293 267 m 557 465 q 538 483 544 483 q 528 471 532 483 q 499 424 521 450 q 474 388 474 392 q 518 317 474 381 q 579 238 563 254 q 668 186 633 186 q 676 189 674 186 q 681 200 681 193 q 640 279 681 228 q 571 380 611 318 q 531 447 531 442 q 540 459 531 457 q 558 454 549 461 q 565 451 565 449 q 557 465 564 454 m 379 706 q 346 781 350 776 q 326 776 339 788 q 278 765 310 765 q 248 762 256 765 q 236 747 240 758 q 207 717 228 728 q 186 699 186 704 q 223 633 186 690 q 278 556 260 576 l 303 528 l 339 571 q 390 625 382 619 l 407 636 l 379 706 m 640 867 q 611 874 626 874 q 568 840 593 874 q 524 758 543 807 q 490 694 506 715 q 425 622 475 672 q 289 454 347 544 q 231 358 231 363 q 236 360 231 357 q 249 369 242 363 q 264 381 257 375 q 300 406 292 406 q 318 326 318 406 l 318 314 q 305 244 318 265 q 247 201 292 224 q 213 179 213 186 q 218 174 213 176 q 236 169 226 169 q 299 200 272 169 q 332 281 318 222 q 354 360 342 328 q 391 419 363 382 q 428 456 419 456 q 429 433 439 456 q 426 425 428 428 q 425 392 418 393 q 476 434 442 393 q 510 494 510 475 q 490 527 510 500 q 469 564 469 554 q 471 568 469 567 q 479 579 472 571 q 497 601 486 588 q 518 626 508 615 q 606 746 551 665 q 654 844 654 817 q 640 867 654 858 m 293 860 q 253 872 281 872 q 181 843 203 872 q 167 801 167 825 q 178 761 167 779 q 201 739 192 739 q 225 761 211 739 q 243 780 235 776 q 278 786 251 783 q 319 797 315 789 q 321 804 321 799 q 293 860 321 832 m 171 858 q 164 892 178 869 l 150 914 l 150 875 q 157 842 150 842 q 171 858 163 842 m 253 938 q 228 951 235 951 q 224 947 224 951 q 225 940 224 943 q 238 902 233 908 q 258 896 243 896 l 263 896 q 281 897 279 896 q 279 908 283 899 q 253 938 274 919 m 208 975 q 228 982 218 982 q 265 964 242 982 q 303 925 289 946 q 356 826 321 899 q 410 710 392 754 q 435 665 426 665 q 508 782 453 665 q 624 900 567 900 q 639 899 633 900 q 682 849 682 888 q 671 808 682 829 q 609 710 654 776 q 538 613 564 643 q 503 569 503 572 q 543 525 503 568 q 600 439 600 463 q 596 422 600 431 q 593 411 593 414 q 643 322 593 396 q 704 201 704 232 q 689 172 704 183 q 657 161 671 161 q 603 182 633 161 q 503 286 550 217 q 476 318 481 318 q 474 313 474 318 q 465 282 474 294 q 444 269 456 269 q 403 303 431 269 q 371 333 378 333 l 351 269 q 253 147 326 167 q 225 142 236 142 q 190 153 213 142 q 154 165 165 165 q 143 163 151 165 q 114 156 131 156 q 78 181 78 156 q 96 210 78 189 q 111 243 111 226 q 110 249 111 244 q 110 256 110 253 q 108 268 108 260 q 124 303 108 286 q 146 337 131 310 q 176 383 161 364 q 201 403 190 403 q 210 400 204 403 q 215 397 213 397 q 253 440 225 397 q 286 497 286 489 q 268 522 286 504 q 206 605 247 542 q 147 711 165 668 q 126 804 126 760 l 126 833 q 161 939 128 939 q 182 918 169 939 q 200 892 194 892 q 204 906 204 892 q 203 928 204 918 q 200 954 200 950 q 208 975 200 969 m 231 840 q 265 844 239 860 q 276 833 276 838 q 249 824 276 824 q 211 813 225 824 q 188 801 196 801 q 183 804 183 801 q 192 819 183 808 q 218 833 208 836 q 231 840 225 829 m 224 293 q 250 294 249 308 q 235 275 250 288 q 213 263 221 263 q 211 281 199 263 q 224 293 217 288 m 154 292 q 165 299 158 299 q 178 292 172 299 q 185 279 185 286 q 179 267 185 272 q 172 264 176 264 q 159 274 165 264 q 153 289 153 283 l 154 292 z "},"Y":{"ha":788,"x_min":79,"x_max":713,"o":"m 594 869 q 557 893 576 874 q 539 900 539 913 q 518 868 539 889 q 468 783 497 847 q 436 724 447 738 q 392 689 425 710 q 331 658 343 658 q 263 716 311 658 q 163 861 215 774 q 132 881 150 881 q 110 861 110 881 q 118 832 110 849 q 204 694 128 813 q 303 547 281 575 q 339 410 336 503 q 361 278 340 282 l 363 278 q 383 325 372 278 q 394 385 386 335 q 410 456 401 436 q 423 484 411 457 q 447 534 435 511 q 465 557 460 557 q 474 551 474 557 q 460 513 474 542 q 446 460 446 485 q 456 442 446 442 q 495 483 465 442 q 547 571 525 525 q 568 638 568 613 q 567 648 568 640 q 567 660 567 656 q 566 671 567 664 q 565 681 565 678 q 582 717 565 704 q 608 729 600 729 q 650 760 617 729 q 678 790 678 783 q 674 796 678 794 q 654 826 665 799 q 594 869 643 858 m 622 954 q 613 967 617 967 q 594 953 606 967 q 583 931 583 939 q 591 912 583 921 q 608 903 599 903 q 624 940 624 903 q 622 954 624 950 m 589 971 q 625 988 606 990 q 642 978 639 985 q 644 942 644 972 q 664 879 644 899 q 683 842 683 860 q 697 817 683 824 q 706 794 713 807 q 669 751 696 776 q 619 717 642 726 q 596 699 600 707 q 592 663 592 690 q 558 553 592 619 q 479 438 525 486 q 447 418 460 418 l 442 418 q 435 419 439 419 q 417 379 425 419 q 392 272 397 289 q 372 244 388 256 q 340 236 351 228 q 278 444 318 251 l 253 565 l 182 672 q 99 801 118 768 q 79 853 79 835 q 97 888 79 867 q 139 910 115 910 q 161 906 149 910 q 226 821 172 900 q 308 713 276 744 l 338 685 l 367 697 q 413 731 396 710 q 450 794 431 751 q 490 867 469 840 q 515 914 510 890 q 528 944 521 936 q 553 953 536 953 q 589 971 574 953 m 614 819 q 628 829 617 828 q 643 824 639 831 q 633 806 647 819 q 615 801 622 796 q 614 819 608 806 z "},"Z":{"ha":739,"x_min":79,"x_max":661,"o":"m 429 272 q 431 278 431 274 q 424 283 431 283 q 394 272 417 283 q 380 260 382 265 q 383 240 378 256 q 407 217 390 221 q 508 208 424 213 q 557 207 526 207 q 632 225 632 207 q 543 242 632 236 q 428 267 428 249 l 428 269 q 429 272 429 271 m 422 415 q 403 446 410 446 q 374 429 400 446 q 333 415 354 415 q 278 425 329 415 l 253 429 l 250 390 q 238 351 249 351 q 224 386 229 351 q 213 422 218 421 l 211 422 q 182 315 193 422 q 181 290 181 307 q 222 214 181 222 q 325 197 294 197 q 357 208 353 197 q 358 215 358 211 q 285 258 358 238 q 210 286 210 281 q 213 290 210 288 q 213 292 213 292 q 215 294 214 293 q 244 301 226 306 q 299 294 261 297 q 339 288 338 289 q 374 290 346 283 q 431 368 431 306 q 422 415 431 390 m 604 608 q 604 643 613 643 q 585 592 599 643 q 571 526 571 542 q 572 524 571 524 q 590 552 579 524 q 604 608 600 581 m 481 868 q 418 879 443 879 q 340 857 383 879 q 251 835 300 835 q 208 839 229 835 q 172 843 190 843 q 131 835 147 843 q 114 815 114 826 q 128 793 114 806 q 231 763 163 763 q 351 783 286 763 q 417 799 401 799 q 429 792 429 799 q 396 740 429 778 q 331 625 331 664 q 335 617 331 617 q 378 658 340 617 q 428 706 419 706 q 432 699 432 706 q 387 635 432 689 q 289 526 342 581 q 247 474 247 485 q 284 459 247 468 q 339 449 321 450 q 388 471 357 449 q 424 492 415 492 q 439 463 432 492 q 457 396 446 435 l 465 361 l 489 418 q 522 492 497 439 q 560 585 546 546 q 581 663 575 625 q 587 689 583 683 q 599 692 590 694 q 609 694 607 690 q 611 714 611 697 q 572 806 610 761 q 481 868 535 850 m 324 883 q 421 900 385 900 q 492 890 454 900 q 560 864 536 879 q 604 817 583 849 q 638 692 638 764 q 631 625 638 663 q 567 496 607 513 q 540 470 551 489 q 503 388 529 451 q 465 285 465 301 l 467 282 q 554 271 472 276 q 649 254 635 268 q 661 228 661 242 q 643 197 661 210 q 554 183 625 183 l 500 183 l 460 183 q 360 175 375 183 q 318 169 350 169 q 204 185 247 169 q 151 278 151 201 q 161 356 151 304 q 190 438 171 406 q 251 517 208 471 q 293 566 286 553 q 301 603 300 579 q 317 667 301 629 q 356 729 333 706 l 371 746 l 328 742 q 284 737 315 740 q 240 732 253 733 q 215 731 232 731 q 101 778 144 731 q 79 808 79 806 q 97 838 79 814 q 190 871 126 871 q 219 869 210 871 q 246 868 229 868 q 324 883 274 868 m 335 363 q 356 364 346 379 q 350 349 361 357 q 335 347 342 342 q 335 363 329 353 m 369 350 q 367 356 367 353 q 374 365 367 361 q 388 369 381 369 q 396 363 396 369 q 385 351 396 357 q 369 350 374 346 z "},"`":{"ha":397,"x_min":78,"x_max":322,"o":"m 186 919 q 117 968 139 968 q 107 957 107 968 q 115 928 107 947 q 132 910 121 910 q 149 919 139 910 q 175 906 157 928 q 254 794 254 819 q 271 775 254 776 q 286 782 286 772 q 254 839 286 794 q 186 919 222 883 m 78 947 q 97 978 78 960 q 129 996 115 996 q 239 898 156 996 q 322 769 322 800 q 290 738 322 738 q 235 757 264 738 q 135 853 193 783 q 78 947 78 924 z "},"a":{"ha":583,"x_min":71,"x_max":511,"o":"m 308 369 q 265 386 300 386 q 210 368 228 386 q 197 349 197 356 q 204 328 197 344 q 215 290 215 303 q 221 278 215 278 q 268 300 228 278 q 315 347 315 325 q 308 369 315 356 m 199 390 l 225 413 l 121 413 l 108 386 q 100 343 100 365 q 126 279 100 301 q 164 263 147 263 q 185 275 178 263 q 188 294 188 279 q 178 331 188 325 q 171 344 171 333 q 199 390 171 369 m 274 513 q 247 526 265 526 q 172 490 219 526 l 154 475 l 182 481 q 236 485 204 485 q 276 501 276 485 q 274 513 276 508 m 136 565 q 121 579 136 572 q 108 582 111 583 q 103 568 106 581 q 100 553 100 557 q 108 540 100 540 q 122 547 115 540 q 136 565 136 561 m 213 744 q 194 764 204 764 q 168 756 186 764 q 107 668 107 729 q 128 613 107 638 q 169 590 149 590 l 178 590 q 240 607 211 593 q 271 615 260 615 q 279 611 279 615 q 271 601 279 607 q 226 577 257 590 q 186 564 196 564 q 154 546 172 564 q 136 514 136 528 q 142 500 136 500 q 175 521 146 500 q 236 554 207 542 l 267 567 l 288 543 q 308 507 308 517 q 294 476 308 490 q 260 460 281 463 q 218 449 228 453 q 210 444 210 446 q 225 443 210 443 q 328 401 289 440 q 351 361 351 378 q 351 356 351 360 q 350 350 350 353 q 341 323 347 332 q 313 296 335 314 q 244 254 286 275 q 220 240 224 244 q 224 229 217 236 q 243 222 231 222 q 299 229 264 222 q 384 252 356 240 q 439 290 413 264 q 474 364 465 315 q 482 451 482 410 q 388 650 482 603 q 318 668 351 668 q 304 664 306 668 q 290 658 300 658 q 281 671 281 658 q 293 696 281 688 q 317 721 306 704 q 328 746 328 738 l 326 749 q 319 751 324 751 q 244 731 311 751 q 223 727 228 725 q 213 744 218 729 m 172 781 q 224 801 210 801 q 236 779 236 801 q 246 760 236 760 q 303 774 257 760 q 332 781 326 781 q 349 769 340 781 q 356 749 356 760 q 347 713 356 736 q 351 701 344 707 q 375 690 358 696 q 510 514 492 646 q 511 483 511 506 q 503 383 511 439 q 485 306 494 326 q 440 255 472 283 q 389 224 407 226 q 235 197 300 201 q 198 200 206 197 q 185 215 190 203 q 151 233 175 233 q 99 261 126 233 q 75 291 79 281 q 71 333 71 301 q 78 390 71 372 q 115 439 86 408 l 143 468 l 125 476 q 107 492 107 485 q 88 517 107 500 q 72 540 72 531 q 79 569 72 546 q 86 606 86 593 q 82 631 86 618 q 79 656 79 647 q 172 781 79 729 m 153 689 q 150 696 150 692 q 158 709 150 703 q 172 715 165 715 q 179 708 179 715 q 168 693 179 701 q 153 689 157 685 m 188 690 q 203 700 192 700 q 215 690 215 700 q 204 675 215 682 q 188 674 193 668 q 188 690 183 678 z "},"b":{"ha":649,"x_min":72,"x_max":576,"o":"m 269 565 q 242 593 258 593 q 226 581 231 593 q 218 521 224 574 q 217 493 217 510 q 229 444 217 469 q 310 386 253 394 q 326 385 315 385 q 400 468 390 385 q 403 494 403 490 q 386 515 403 508 q 369 519 375 519 q 336 507 361 519 q 296 493 313 493 q 279 513 279 493 l 279 521 q 269 565 279 542 m 260 686 q 246 692 253 692 q 238 664 238 692 q 246 638 238 638 q 263 661 254 638 q 260 686 269 679 m 317 738 q 272 744 308 744 q 238 738 238 744 q 258 720 238 732 q 290 708 279 708 q 309 716 296 708 q 322 731 322 724 q 317 738 322 733 m 200 840 q 165 860 186 860 q 128 824 139 860 q 113 683 117 788 q 99 474 107 547 l 88 381 l 106 342 q 156 273 119 313 q 207 233 193 233 q 211 240 215 233 l 206 249 q 194 281 194 267 q 204 304 194 294 q 221 310 213 310 q 264 301 233 310 q 329 281 329 286 l 324 272 q 297 263 315 263 q 263 269 283 263 q 236 271 242 276 q 235 268 235 269 q 260 238 235 258 q 303 214 285 218 q 326 197 322 210 q 343 186 329 186 q 368 189 346 186 q 494 258 447 196 q 546 432 540 321 q 547 444 546 436 q 547 457 547 453 q 485 614 547 546 q 353 701 408 701 q 306 681 306 701 q 311 664 306 675 q 328 643 319 649 q 329 626 335 638 q 314 614 324 614 q 300 625 306 614 q 287 635 297 635 q 271 628 276 636 q 276 608 267 621 q 299 571 288 594 q 310 535 310 547 q 316 522 310 522 q 332 532 322 521 q 357 543 343 543 q 376 550 376 543 q 356 575 376 556 q 333 601 333 593 q 340 617 333 608 q 388 640 356 640 q 431 629 406 640 q 480 588 453 618 q 507 542 507 557 q 496 529 507 529 q 464 557 483 529 q 424 597 447 581 q 382 614 400 614 q 368 608 368 614 q 403 574 368 600 q 433 540 433 553 q 430 522 433 538 q 426 489 426 506 q 329 360 424 372 q 308 358 321 358 q 260 374 289 358 q 207 421 219 396 q 194 507 194 446 q 203 604 194 581 q 213 726 210 631 q 200 840 213 821 m 144 883 q 178 888 153 888 l 181 888 q 238 789 238 888 q 247 767 238 767 q 263 769 249 767 q 276 771 267 771 q 387 736 321 771 q 496 653 453 701 q 576 457 576 564 q 564 364 576 414 q 487 217 540 271 q 356 156 433 163 q 344 155 351 156 q 333 154 336 154 q 276 165 307 154 q 202 201 239 179 q 158 233 165 222 q 143 247 150 247 q 93 315 128 247 q 72 422 72 358 q 83 610 72 468 q 93 764 93 724 l 93 772 l 93 781 q 108 846 93 817 q 144 883 122 875 z "},"c":{"ha":656,"x_min":74,"x_max":581,"o":"m 329 325 q 311 358 329 358 l 308 358 q 306 357 307 357 q 293 344 293 356 q 304 321 293 336 q 322 306 314 306 q 329 325 329 306 m 253 317 q 238 357 246 357 q 224 353 232 357 q 210 317 208 344 q 215 292 211 296 q 235 285 218 288 l 257 283 l 253 317 m 228 386 q 221 392 228 392 q 210 384 214 392 q 213 374 207 376 q 223 375 218 371 q 228 386 228 379 m 481 494 q 482 488 481 488 q 485 500 486 489 q 483 504 485 503 q 481 503 481 507 q 481 494 479 500 m 472 676 q 428 700 433 700 q 415 690 422 700 q 394 681 404 679 l 393 681 q 379 628 379 681 q 392 569 379 582 q 463 532 414 543 q 476 531 468 531 q 501 546 488 531 q 528 564 519 564 q 545 583 538 564 q 553 628 553 603 q 551 647 553 640 q 544 674 549 675 q 542 671 543 674 q 522 656 535 656 q 472 676 508 656 m 343 708 q 315 714 333 714 q 252 698 286 714 q 197 658 218 682 q 172 636 178 636 q 117 531 156 636 q 99 403 99 479 q 108 308 99 336 q 149 244 117 279 q 209 203 175 217 q 306 185 243 190 q 338 183 318 183 q 411 207 363 183 q 515 311 499 249 q 519 340 519 328 q 499 367 519 367 q 424 325 472 367 q 326 278 368 278 q 321 278 325 278 q 315 279 317 279 q 308 280 313 279 q 303 281 304 281 q 264 268 283 281 q 219 254 242 254 q 172 274 192 254 q 153 328 153 294 q 164 353 153 353 q 176 340 169 353 q 183 336 182 328 q 183 360 183 340 q 221 428 186 428 q 251 458 232 428 q 296 513 269 488 q 321 550 321 538 q 306 574 321 561 q 276 586 290 586 q 264 590 264 586 q 294 606 264 603 l 303 606 q 350 554 339 606 q 382 492 365 492 q 397 507 392 492 q 399 514 399 510 q 375 546 399 526 l 349 571 l 353 636 q 356 678 356 675 q 343 708 356 703 m 276 733 q 318 743 306 743 q 351 733 332 743 q 367 729 360 729 q 376 732 371 729 q 385 735 382 735 q 399 728 392 735 q 417 721 411 715 q 432 725 421 725 q 490 706 461 725 q 521 688 513 688 q 542 701 528 688 q 564 715 558 715 q 581 658 581 715 q 542 551 581 589 q 519 511 525 535 q 502 475 515 490 q 475 460 489 460 q 453 488 457 460 q 444 505 451 497 q 431 513 438 513 q 424 507 425 513 q 407 482 421 497 q 375 464 393 464 q 333 503 349 464 q 326 510 329 510 q 300 486 322 510 q 265 418 265 449 q 268 407 265 410 q 285 413 272 400 q 310 426 299 426 q 353 356 333 426 q 374 319 361 319 q 407 340 379 319 q 504 399 482 399 q 533 382 522 399 q 544 340 544 365 q 531 285 544 313 q 481 226 517 257 q 404 175 444 194 q 310 154 361 154 q 218 168 265 154 q 93 269 140 190 q 77 306 81 292 q 74 361 74 319 l 74 394 q 94 543 75 488 q 276 733 147 686 m 439 579 q 429 585 429 579 q 436 597 429 590 q 449 604 443 604 q 451 603 450 604 q 452 589 457 599 q 439 579 447 579 m 484 574 q 481 573 484 574 q 475 574 478 571 q 472 581 472 576 q 477 594 472 588 q 488 600 482 600 q 497 593 493 600 q 495 584 500 590 q 484 574 490 578 z "},"d":{"ha":625,"x_min":75,"x_max":553,"o":"m 304 450 q 290 456 297 456 q 218 426 239 446 q 197 371 197 407 q 208 341 197 356 q 231 326 219 326 q 265 356 240 326 q 300 411 289 385 q 304 450 315 443 m 511 756 q 489 815 503 789 q 465 842 475 842 q 461 839 464 842 q 460 811 456 826 q 461 785 461 807 q 450 667 461 683 q 436 657 444 660 l 435 657 q 426 683 426 657 l 426 699 l 426 717 q 411 754 426 744 q 385 764 397 764 q 328 731 363 764 q 292 688 292 699 q 300 672 292 681 q 322 628 306 665 q 347 583 339 590 q 376 554 361 575 q 392 508 392 532 q 378 464 392 483 q 344 439 365 444 q 326 424 326 433 q 304 371 326 410 q 289 342 289 344 q 290 339 289 339 q 325 361 294 339 q 347 371 339 371 q 356 364 356 371 q 351 354 356 361 q 356 354 349 349 q 361 358 357 356 q 382 361 378 372 q 375 347 383 356 q 335 303 360 332 q 310 272 310 276 q 313 271 310 271 q 319 272 317 271 q 367 297 342 278 q 399 331 393 317 q 424 342 410 360 l 425 340 q 425 338 425 339 q 370 279 425 318 q 289 240 315 240 q 269 251 269 240 q 306 306 269 263 l 342 347 l 304 324 q 236 299 267 299 q 196 313 214 299 q 171 365 171 333 q 211 444 171 408 q 292 476 247 476 q 311 475 304 476 q 347 469 335 469 q 354 470 351 469 q 358 475 357 471 q 360 482 360 479 q 361 493 361 485 q 356 535 364 518 q 318 563 349 549 q 267 579 288 578 q 194 552 233 579 q 135 489 154 525 q 114 431 124 469 q 104 371 104 393 q 133 283 104 328 q 199 218 161 238 q 247 206 222 206 q 340 233 282 206 q 518 497 469 294 q 526 599 526 535 q 511 756 526 688 m 411 846 q 376 874 393 874 q 371 867 371 874 q 388 822 371 853 q 415 789 406 792 l 418 789 q 428 801 428 789 q 411 846 428 821 m 350 858 q 360 886 350 871 q 385 901 369 901 q 414 890 399 901 q 456 878 432 878 q 500 851 479 878 q 539 753 525 821 q 553 610 553 686 q 538 474 553 528 q 458 296 507 365 q 392 235 439 268 q 307 189 346 203 q 235 174 265 174 q 100 269 157 174 q 78 313 82 297 q 75 371 75 329 q 94 469 75 431 q 167 559 121 521 q 263 604 214 597 q 288 615 288 610 q 285 624 288 617 q 283 636 283 631 q 261 668 283 643 q 247 704 239 694 q 267 715 258 715 q 317 751 274 715 q 363 789 361 788 q 360 819 371 792 q 350 858 350 843 m 346 722 q 344 734 342 726 q 353 745 347 742 q 365 744 360 749 q 367 733 369 740 q 358 722 364 725 q 346 722 351 718 z "},"e":{"ha":640,"x_min":75,"x_max":567,"o":"m 521 435 q 511 440 521 440 q 493 431 493 440 q 499 424 493 428 q 513 424 506 419 q 521 435 521 428 m 268 543 q 258 563 268 563 q 226 539 246 563 q 204 507 204 515 q 215 497 204 501 q 249 493 229 493 q 283 503 283 493 q 275 518 283 513 q 268 543 268 522 m 444 604 q 435 636 439 636 q 400 614 429 633 l 369 592 l 372 544 q 383 476 378 490 q 406 453 388 463 q 440 443 424 443 q 503 479 463 443 l 543 517 l 517 526 q 444 604 453 547 m 390 671 q 329 678 367 678 q 272 672 293 678 q 153 592 203 656 q 101 458 103 529 l 101 451 q 139 310 101 369 q 294 219 172 258 q 350 206 336 206 q 393 214 361 206 q 460 244 435 225 q 485 286 485 264 q 464 311 485 311 q 431 303 451 311 q 319 290 400 290 q 243 299 264 290 q 153 396 169 328 q 151 408 151 400 q 158 435 151 424 q 175 446 165 446 q 183 443 181 446 q 235 431 193 436 q 261 428 260 428 q 281 438 276 428 l 283 446 q 235 464 283 457 q 178 494 178 472 q 182 513 178 501 q 224 565 192 536 q 272 593 256 593 q 286 589 282 593 q 293 574 290 585 q 311 493 311 506 q 318 464 311 479 q 332 449 325 449 q 338 493 338 449 q 328 586 338 576 q 324 604 319 594 q 342 614 329 614 q 383 633 353 614 q 413 658 413 651 q 390 671 413 664 m 265 699 q 333 707 294 707 q 417 693 389 707 q 465 658 443 681 q 488 619 488 635 q 487 612 488 617 q 486 606 486 607 q 528 557 486 569 q 567 531 567 546 q 554 501 567 519 q 543 463 536 475 q 549 442 549 453 q 532 407 549 424 q 503 393 517 393 q 486 394 493 393 q 451 405 467 397 q 426 415 436 413 q 386 428 392 425 q 350 426 363 438 q 231 404 324 404 q 182 394 182 404 q 203 362 182 383 q 244 329 224 340 q 332 317 271 317 q 438 331 400 317 q 475 340 472 340 q 494 332 482 340 q 514 296 514 321 q 493 244 514 271 q 439 201 472 218 q 347 178 389 178 q 265 193 314 178 q 121 284 167 225 q 75 439 75 343 l 75 460 q 131 607 79 542 q 265 699 183 672 m 408 521 q 417 527 411 525 q 428 528 424 529 q 433 522 433 526 q 424 507 433 514 q 409 506 415 500 q 408 521 403 511 m 438 479 q 435 485 435 482 q 442 498 435 490 q 457 506 450 506 q 465 497 464 506 q 454 483 467 492 q 438 479 442 475 z "},"f":{"ha":492,"x_min":72,"x_max":413,"o":"m 228 926 q 208 939 213 939 q 192 915 203 939 q 182 878 182 892 q 175 856 182 860 q 169 843 169 850 q 190 797 169 821 q 201 775 201 786 q 181 758 201 758 q 150 735 165 758 q 117 649 133 706 q 99 550 101 593 q 97 518 97 536 q 124 436 97 490 q 153 343 153 376 q 136 285 153 317 q 118 225 118 251 q 121 201 118 206 q 138 197 124 197 q 219 346 201 197 q 239 432 228 411 q 247 463 247 449 q 242 506 247 467 q 233 576 233 553 q 253 619 233 608 q 304 631 272 631 q 349 622 332 631 q 363 619 361 615 q 360 633 363 621 q 322 671 350 671 l 313 671 q 298 670 307 671 q 286 669 289 669 q 254 689 254 669 q 270 725 254 706 q 307 754 286 744 q 355 790 328 764 q 382 825 382 815 q 360 835 382 832 q 314 874 339 835 q 287 907 296 900 q 264 914 278 914 q 228 926 240 914 m 199 965 q 210 974 204 974 q 236 957 214 974 q 272 939 260 939 q 333 892 297 939 q 358 865 350 869 q 385 860 367 860 q 408 856 403 860 q 413 842 413 853 q 375 783 413 824 q 311 732 338 743 q 283 706 283 719 q 289 694 283 696 q 317 697 294 693 q 338 699 325 699 q 367 686 353 699 q 389 635 389 665 q 381 604 389 617 q 353 586 367 586 q 338 592 343 586 q 285 604 322 604 q 268 601 274 604 q 261 583 261 597 q 262 572 261 579 q 264 553 263 565 q 267 531 265 540 q 272 472 272 497 q 263 406 272 446 q 250 348 258 386 q 240 301 242 310 q 176 185 224 217 q 124 168 153 168 q 97 176 106 168 q 89 208 89 185 q 107 279 89 243 q 124 340 124 313 q 99 425 124 372 l 72 479 l 76 557 q 139 756 85 679 q 156 789 156 778 q 153 796 156 793 q 147 821 147 803 q 163 895 147 851 q 199 965 178 939 m 239 865 q 258 866 251 872 q 254 849 264 860 q 236 838 243 838 q 227 842 229 838 q 228 854 225 847 q 239 865 232 861 m 272 835 q 281 844 275 842 q 292 844 288 847 q 297 835 297 842 q 288 817 297 824 q 272 817 278 810 q 272 835 267 825 z "},"g":{"ha":665,"x_min":74,"x_max":596,"o":"m 356 607 q 296 619 338 614 l 281 619 q 197 574 217 619 q 192 551 192 561 q 207 513 192 542 q 244 464 226 478 q 276 438 269 446 q 301 421 289 421 q 338 396 313 421 q 360 347 360 372 q 376 315 360 321 q 385 314 379 314 q 415 404 411 314 l 415 436 q 356 607 415 579 m 331 672 q 319 697 331 693 q 304 701 308 701 q 297 693 297 701 q 300 678 297 689 q 303 664 303 668 q 317 656 303 660 q 328 656 325 653 q 331 672 331 660 m 333 742 q 294 751 319 751 q 175 706 225 751 q 103 501 103 640 q 151 317 103 394 q 176 288 171 288 q 190 294 181 288 q 226 303 203 303 q 253 301 242 303 q 279 300 263 300 q 338 336 338 300 q 322 370 338 353 q 293 388 306 388 q 285 385 290 388 q 253 379 276 376 q 247 380 250 379 q 242 381 243 381 q 231 376 233 381 q 226 354 229 371 q 211 326 219 326 q 204 364 199 326 q 232 417 213 417 q 240 415 238 417 q 247 415 247 414 q 226 439 246 421 q 161 550 161 500 q 162 553 161 551 q 163 557 163 556 q 193 607 168 579 q 238 639 218 635 q 264 661 258 644 q 265 675 265 667 q 258 685 265 685 q 219 668 249 685 q 179 653 189 653 q 174 657 174 653 q 190 676 174 661 q 296 722 249 722 q 303 722 297 722 q 310 721 308 721 q 326 719 317 719 q 346 726 346 719 q 333 742 346 733 m 465 749 q 440 747 456 747 q 414 757 422 747 q 407 760 413 760 q 377 736 394 760 q 360 692 360 713 q 414 636 360 636 q 438 634 432 636 q 442 625 444 632 q 425 614 436 614 q 408 606 408 614 q 418 586 408 600 q 443 449 443 551 q 442 417 443 426 q 442 386 438 386 q 450 393 443 386 q 467 450 463 406 q 485 499 472 494 l 489 499 q 496 486 496 499 q 493 454 496 485 q 475 392 489 410 q 436 336 447 353 q 384 285 413 299 q 306 271 356 271 l 281 271 q 244 272 267 272 q 217 264 217 272 q 233 243 217 258 q 301 211 267 211 q 365 226 322 211 q 438 260 408 242 q 476 274 463 274 l 479 274 q 490 250 490 269 q 469 172 490 218 q 419 106 447 126 q 388 90 401 93 q 336 86 374 86 q 277 91 294 86 q 214 118 260 96 l 150 150 l 136 133 q 124 97 124 117 q 135 56 124 81 q 222 -4 157 10 q 301 -12 261 -12 q 436 14 376 -12 q 498 74 460 25 q 551 161 536 122 q 565 213 563 190 q 568 303 568 236 q 538 646 568 499 q 529 713 529 679 q 531 731 529 725 q 533 754 533 753 q 528 764 533 764 q 521 761 526 764 q 465 749 508 754 m 388 772 q 410 793 403 793 q 428 781 417 793 q 454 768 438 768 q 478 771 458 768 q 522 781 518 776 q 542 788 529 788 q 554 769 554 788 q 553 744 554 756 q 551 713 551 733 q 554 681 551 688 q 583 498 571 621 q 596 281 596 375 q 590 196 596 218 q 490 31 569 110 q 409 -23 449 -10 q 288 -36 369 -36 q 184 -28 215 -36 q 131 7 153 -19 q 97 90 97 44 q 119 150 97 126 q 156 169 139 169 q 242 138 179 169 q 339 108 294 110 l 347 108 q 403 122 385 108 q 440 172 421 135 q 460 225 460 211 q 451 233 460 233 q 424 224 442 233 q 294 185 354 185 q 221 207 249 185 q 189 226 196 226 q 149 267 181 226 q 104 338 118 308 q 83 416 93 364 q 74 507 74 468 q 75 531 74 524 q 142 699 90 640 q 217 758 174 736 q 299 779 260 779 q 347 767 326 779 l 372 751 l 388 772 m 397 721 q 413 723 404 728 q 415 708 421 718 q 406 702 413 704 q 394 701 400 700 q 389 707 389 703 q 397 721 389 713 m 425 697 q 422 704 422 699 q 428 716 422 710 q 440 722 435 722 q 446 713 446 722 q 439 698 446 703 q 425 697 432 693 m 299 356 q 313 361 303 361 q 324 356 324 361 q 314 342 324 349 q 299 340 306 335 q 299 356 293 346 m 267 344 q 278 356 267 356 q 286 350 286 356 q 281 341 286 346 q 272 336 276 336 q 267 344 267 336 z "},"h":{"ha":807,"x_min":72,"x_max":733,"o":"m 618 419 q 603 461 611 456 q 599 463 601 463 q 596 450 596 463 q 597 408 596 428 l 597 401 q 582 300 597 367 q 571 229 571 251 q 586 197 571 197 q 611 221 596 197 q 626 314 626 246 q 618 419 626 381 m 236 978 q 210 1008 226 1008 q 188 997 199 1008 q 132 821 132 942 q 136 769 132 794 q 144 660 144 715 q 138 614 144 614 q 96 429 118 614 q 94 404 94 424 q 111 259 94 333 q 160 185 128 185 q 169 186 167 185 q 169 213 179 189 q 144 446 144 274 q 157 569 144 544 q 179 586 165 586 q 185 581 185 586 q 183 574 185 576 q 169 457 169 540 q 207 210 169 300 q 240 172 221 172 q 249 179 247 172 q 254 258 254 196 q 249 425 254 292 q 246 507 246 497 q 253 559 246 544 q 282 586 260 574 q 333 600 304 600 q 403 580 368 600 q 461 526 439 560 q 503 413 503 464 q 511 385 503 385 q 518 369 518 385 q 506 282 518 351 q 499 222 499 246 q 506 204 499 204 q 517 208 511 204 q 549 274 535 218 q 567 394 564 329 q 576 482 572 478 q 622 489 581 486 q 668 497 654 489 q 694 531 682 506 q 704 568 704 550 q 690 625 704 589 q 667 664 676 664 q 654 654 664 664 q 626 644 646 644 q 581 657 606 644 q 550 667 553 669 q 547 636 547 664 q 525 596 547 596 q 514 600 519 596 q 503 619 503 611 q 459 659 503 633 q 368 699 415 685 q 326 706 343 706 q 263 679 294 706 q 229 663 242 663 q 213 678 217 663 q 206 722 206 703 q 213 772 206 744 q 240 944 240 901 q 236 978 240 965 m 178 1018 q 219 1032 194 1032 q 256 1010 243 1032 q 267 949 267 988 q 251 835 267 900 q 235 718 235 761 q 239 697 235 700 q 268 710 242 692 q 340 732 300 732 q 472 686 394 732 l 518 658 l 525 676 q 532 704 532 693 q 540 721 532 713 q 557 729 549 729 q 581 704 564 729 q 600 678 599 679 q 619 672 607 672 q 653 688 644 672 q 678 700 661 703 q 710 657 693 699 q 732 572 728 615 q 733 561 732 568 q 733 551 733 554 q 704 503 733 533 q 654 467 672 471 q 638 454 638 463 q 642 432 638 447 q 650 322 647 410 l 650 289 q 647 244 650 256 q 629 211 643 232 q 588 168 606 179 q 568 162 574 161 q 556 174 563 163 q 536 189 546 189 q 514 175 528 189 q 483 161 503 161 l 465 161 l 471 221 q 479 358 479 310 q 446 493 479 438 q 326 571 399 571 l 322 571 q 282 553 290 571 q 274 457 274 536 q 274 413 274 446 q 275 360 275 381 l 276 169 l 260 151 q 235 133 242 133 q 207 151 228 133 q 172 163 185 172 q 146 154 157 154 q 74 360 82 154 q 72 414 72 382 q 90 535 72 463 q 107 626 104 592 q 111 763 110 661 l 111 906 l 135 954 q 178 1018 156 1000 m 578 619 q 585 626 581 626 q 598 617 592 626 q 604 594 604 607 q 601 581 604 585 q 592 581 599 578 q 575 606 575 583 q 578 619 575 611 m 638 601 q 665 614 653 618 q 669 610 669 614 q 653 588 669 604 q 632 571 638 571 q 631 592 619 571 q 638 601 633 597 z "},"i":{"ha":403,"x_min":72,"x_max":328,"o":"m 301 968 q 275 975 301 975 q 181 942 240 975 q 122 890 122 910 q 133 881 122 881 q 140 886 140 882 l 139 888 l 139 889 q 157 911 139 899 q 190 924 175 924 q 218 939 200 924 q 244 943 243 951 q 215 915 244 936 q 165 886 185 893 q 172 882 163 882 l 174 882 q 248 918 194 882 q 301 968 301 954 m 214 982 q 290 996 246 996 q 326 986 322 996 l 328 983 l 328 981 q 288 924 328 961 q 203 864 249 886 q 146 853 178 853 q 104 861 117 853 q 94 879 94 869 q 140 938 94 904 q 214 982 185 971 m 204 254 q 181 254 194 247 q 164 261 167 261 q 151 240 158 261 q 147 217 147 228 q 163 197 147 197 q 195 221 172 197 q 218 254 218 244 q 213 259 218 260 q 204 254 208 258 m 231 274 q 236 288 240 283 q 229 282 233 290 q 228 279 229 281 q 225 270 225 272 q 231 274 225 268 m 253 728 q 246 767 250 763 q 210 754 240 772 q 153 738 181 738 q 133 734 138 738 q 129 718 129 731 q 132 704 129 707 q 143 704 135 701 q 158 705 153 707 q 160 696 163 703 q 150 683 158 689 q 139 665 139 676 q 157 650 139 650 q 171 647 165 650 q 176 639 176 643 q 171 631 176 635 q 153 623 168 629 q 129 612 139 617 q 110 599 119 607 q 101 582 101 590 q 108 572 101 572 q 135 586 114 572 q 172 600 153 600 q 208 558 208 600 q 215 543 208 543 q 222 551 222 543 q 238 575 222 563 q 249 583 247 583 q 251 571 251 583 q 237 533 251 557 q 213 504 222 508 q 206 503 210 503 q 181 540 185 503 q 164 569 176 567 l 163 569 q 151 550 156 569 q 138 454 147 531 q 114 303 122 331 q 108 272 108 278 q 115 260 108 260 q 139 283 124 260 q 165 313 160 313 q 172 326 172 313 q 192 363 172 363 q 200 332 204 363 l 200 319 q 204 304 200 304 q 224 326 211 304 q 250 347 239 350 l 251 347 q 274 461 272 347 q 260 587 274 524 q 233 650 247 650 q 239 678 213 650 q 253 718 253 693 l 253 728 m 219 783 q 251 801 246 801 q 267 790 258 801 q 275 736 275 782 q 274 705 275 728 q 272 668 272 682 q 286 590 272 646 q 303 472 303 533 q 250 260 303 358 q 201 196 231 224 q 154 168 172 168 q 128 183 140 168 q 115 213 115 197 q 108 226 115 226 q 90 243 100 226 q 82 267 82 253 q 93 325 82 276 q 122 531 119 424 q 106 543 122 543 q 81 552 90 543 q 72 574 72 561 q 93 615 72 594 q 111 644 111 633 q 108 654 111 646 q 101 708 101 672 q 114 778 101 772 q 131 772 124 782 q 157 763 136 763 q 219 783 192 763 m 175 704 q 190 714 179 714 q 201 704 201 714 q 194 692 201 697 q 181 688 188 688 q 172 694 172 688 q 175 704 172 696 z "},"j":{"ha":540,"x_min":81,"x_max":468,"o":"m 346 888 q 339 913 346 904 q 331 906 333 917 q 329 901 329 904 q 308 869 325 886 q 297 851 297 857 q 300 849 297 849 q 328 863 310 849 q 346 888 346 878 m 294 929 q 278 940 289 938 q 264 935 268 942 q 258 904 261 931 q 260 882 257 886 q 278 878 263 878 q 294 882 290 878 q 301 899 299 886 q 294 929 304 919 m 249 942 q 261 967 261 961 q 256 971 261 971 q 246 969 250 971 q 217 911 217 958 q 226 867 217 888 q 247 846 236 846 q 243 860 253 847 q 232 892 232 874 q 249 942 232 917 m 214 979 q 251 1001 231 1001 q 261 1001 254 1001 q 272 1000 268 1000 q 310 993 299 997 q 339 971 321 989 q 379 900 379 933 q 343 840 379 872 q 275 811 310 811 q 254 813 261 811 q 208 839 222 818 q 194 904 194 860 q 214 979 194 953 m 385 674 q 386 703 386 685 q 383 726 386 724 q 349 713 376 731 q 288 696 319 696 q 258 692 264 696 q 250 674 253 689 q 246 636 246 650 q 282 579 246 604 q 290 565 290 572 q 281 521 290 556 q 263 449 272 494 q 261 436 261 443 l 261 435 q 281 458 265 435 q 311 485 300 485 q 314 481 314 485 q 307 464 314 475 q 299 418 299 450 q 300 375 299 393 q 303 326 303 331 q 285 265 303 297 q 251 210 267 231 q 239 189 239 194 q 244 185 239 185 q 269 192 251 185 q 324 256 324 213 q 330 280 324 268 q 343 292 336 292 q 349 289 347 292 q 350 281 350 288 q 342 219 350 258 q 335 164 335 175 q 339 150 335 150 q 365 201 347 150 q 393 249 382 249 q 397 243 397 249 q 372 169 397 221 q 324 117 347 117 q 309 124 315 117 q 303 142 303 132 q 306 151 303 146 q 307 165 311 160 q 272 142 301 171 q 213 104 243 113 q 189 99 190 99 q 161 119 181 99 q 131 144 136 144 q 111 124 121 144 q 101 85 101 104 q 128 32 101 58 q 169 10 150 10 q 199 11 186 10 q 338 75 282 19 q 386 144 368 106 q 424 257 404 182 q 444 376 444 339 q 431 453 444 411 q 406 514 410 514 q 403 471 403 514 q 374 381 400 381 q 346 411 360 381 q 331 493 331 449 q 339 521 331 521 q 353 485 349 521 q 368 428 357 451 q 372 419 369 425 l 375 415 q 379 464 378 415 q 393 529 381 519 q 401 543 401 536 q 392 581 401 553 q 382 639 382 611 q 385 674 382 646 m 350 742 q 390 758 378 758 l 392 758 q 413 708 413 756 q 408 672 413 690 q 406 647 406 656 q 458 453 406 622 q 468 383 468 424 q 449 254 468 335 q 409 137 429 176 q 350 60 389 97 q 188 -18 281 -10 l 140 -22 l 110 8 q 85 39 89 29 q 81 76 81 49 q 98 141 81 115 q 139 167 115 167 q 176 146 158 167 q 210 125 193 125 q 243 142 225 125 l 263 158 l 233 158 q 203 164 203 158 q 232 218 203 168 q 274 354 272 283 q 270 375 274 371 q 254 382 267 379 q 232 411 232 383 q 244 469 232 432 q 260 536 260 515 q 244 574 260 554 q 228 603 231 589 q 225 668 225 617 q 235 744 226 742 q 254 736 244 749 q 290 724 265 724 q 350 742 324 724 m 318 650 q 342 654 333 668 q 335 639 346 647 q 317 635 324 631 q 318 650 308 640 m 265 631 q 261 639 261 635 q 278 651 261 651 q 288 643 288 651 q 280 628 288 632 q 265 631 272 624 z "},"k":{"ha":631,"x_min":72,"x_max":553,"o":"m 403 531 q 388 551 394 551 q 372 539 383 551 q 322 521 360 526 l 288 515 l 292 482 q 305 436 297 449 q 333 418 313 424 q 357 414 347 414 q 393 432 379 414 q 408 493 408 450 q 403 531 408 518 m 249 957 q 226 968 244 968 q 160 897 200 968 q 106 758 119 826 q 99 688 99 728 q 117 553 99 638 q 135 396 129 497 q 142 311 136 350 q 153 252 147 272 q 165 232 160 232 q 174 293 174 232 q 203 426 175 404 q 228 438 218 438 q 268 399 244 438 q 349 271 299 347 q 413 182 400 194 q 435 165 428 165 q 439 174 439 165 q 406 264 439 197 q 378 331 378 315 q 382 342 378 338 q 392 349 386 349 q 418 326 397 349 q 474 274 440 301 q 514 247 507 247 l 515 247 q 496 283 518 250 q 449 369 476 313 q 418 424 422 424 q 396 406 414 424 q 349 388 379 388 q 301 396 318 388 q 276 431 290 401 q 260 478 261 460 q 233 511 260 493 q 175 638 175 550 q 181 690 175 667 q 221 822 188 718 q 253 938 253 919 q 249 957 253 949 m 186 967 q 242 1001 222 1001 q 267 992 253 1001 q 281 964 281 981 q 279 936 281 949 q 235 775 272 875 q 213 643 213 711 q 236 543 213 569 q 265 542 249 531 q 285 550 278 550 q 295 549 288 550 q 308 547 303 547 q 325 549 318 547 q 368 578 354 554 q 393 603 383 603 q 419 567 404 603 q 439 493 433 531 q 499 361 447 449 q 553 250 553 269 q 517 211 553 211 q 479 219 500 211 q 469 222 471 224 q 469 213 467 221 q 474 198 471 208 q 478 183 476 188 q 479 176 479 181 q 461 144 479 163 q 436 124 442 124 q 419 131 431 124 q 286 308 372 158 q 226 400 235 397 l 225 400 q 206 282 213 400 q 198 211 201 225 q 182 189 194 197 q 165 182 169 181 q 149 197 160 183 q 106 363 114 242 q 88 506 100 432 q 72 678 75 571 l 72 713 q 86 821 72 783 q 186 967 115 901 m 375 499 q 367 496 369 496 q 358 508 358 496 q 372 524 358 524 q 382 514 381 524 q 375 499 383 504 m 313 483 q 311 486 311 485 q 319 500 311 492 q 333 508 328 508 q 339 499 339 508 q 328 484 339 490 q 313 483 318 478 m 353 676 q 343 700 346 700 q 329 679 339 700 q 318 646 318 654 q 332 632 318 632 q 356 660 356 632 q 353 676 356 665 m 443 678 q 469 707 469 700 q 465 710 469 710 q 419 678 451 710 q 396 649 396 654 q 397 647 396 647 q 443 678 408 647 m 383 696 q 435 717 389 696 q 486 739 481 739 q 496 726 496 739 q 483 692 496 714 q 430 644 474 675 q 363 606 386 613 q 332 601 347 601 q 294 613 301 601 q 292 625 292 618 q 308 677 292 644 q 349 736 325 710 q 374 744 368 757 q 374 736 375 742 q 373 729 374 733 q 372 722 372 725 q 383 696 372 696 z "},"l":{"ha":563,"x_min":74,"x_max":483,"o":"m 232 875 q 228 969 232 958 q 214 967 224 982 q 194 890 204 950 q 183 785 183 829 q 176 703 181 718 q 158 564 158 613 q 164 506 158 529 q 171 460 171 468 q 158 446 171 446 q 133 567 133 446 q 135 604 133 578 q 136 644 136 631 q 121 667 136 667 q 108 656 113 667 q 99 565 99 629 q 108 458 99 507 q 176 310 122 397 q 254 224 229 224 q 260 236 267 224 q 250 306 250 257 q 256 342 250 336 q 268 351 265 351 q 292 326 276 351 q 320 287 306 304 q 347 251 335 269 q 392 210 375 210 q 396 211 396 210 q 393 218 396 213 q 385 235 390 224 q 376 257 381 247 q 335 465 335 347 q 344 557 335 518 q 396 681 360 607 q 454 874 454 799 l 454 888 l 453 929 l 439 901 q 428 846 428 876 q 417 813 428 817 q 390 781 406 808 q 369 753 375 753 q 363 758 363 753 q 381 807 363 765 q 403 878 397 843 l 407 907 l 382 883 q 356 849 356 857 q 347 835 356 839 q 332 839 339 832 q 336 859 326 844 q 343 876 346 874 q 326 881 336 883 q 310 867 315 878 q 301 855 306 858 q 292 855 296 851 q 288 867 288 858 q 274 904 285 883 q 265 918 267 918 q 264 893 264 918 l 264 843 l 264 796 q 254 754 264 756 l 251 754 q 232 875 233 754 m 210 1001 q 243 1024 232 1026 q 258 992 247 1022 q 275 961 268 961 q 292 940 283 961 q 328 914 299 919 q 351 907 340 911 q 364 903 361 903 q 392 925 371 903 q 424 950 415 950 q 431 947 425 950 q 449 953 440 939 q 465 968 457 968 q 481 946 476 968 q 483 917 483 932 q 469 800 483 853 q 401 636 453 733 q 363 464 363 563 q 407 265 363 358 q 431 200 431 215 q 400 181 431 181 q 321 233 367 182 q 288 263 294 263 q 285 258 285 263 l 290 239 q 293 222 293 228 q 283 197 293 207 q 258 188 274 188 q 166 273 228 188 q 85 429 104 358 q 74 549 74 471 l 74 560 q 124 692 74 674 q 149 701 140 697 q 156 801 150 703 q 170 928 158 885 q 210 1001 182 971 z "},"m":{"ha":928,"x_min":71,"x_max":856,"o":"m 192 411 q 207 447 207 442 q 206 449 207 449 q 189 436 201 449 q 174 399 174 421 q 176 385 174 385 q 192 411 178 385 m 829 443 q 818 503 824 503 q 808 440 814 503 q 774 294 804 371 q 721 217 743 217 q 708 204 714 217 q 704 188 704 194 q 711 179 704 179 q 750 203 725 179 q 792 258 775 226 q 831 413 831 331 q 829 443 831 432 m 696 529 q 675 544 689 544 q 651 540 667 544 q 639 531 639 539 q 656 490 639 522 q 690 404 671 461 q 710 361 703 361 q 715 385 715 361 q 696 529 715 471 m 724 703 q 664 710 700 710 q 625 706 638 710 q 567 667 610 699 q 525 629 525 635 q 536 610 525 621 q 549 567 549 594 q 542 547 549 550 q 535 552 539 546 q 528 568 531 558 q 490 615 521 590 l 461 640 l 450 618 q 439 567 439 596 q 444 550 439 550 q 447 551 446 550 q 465 559 456 560 q 474 550 474 558 q 465 528 474 542 q 447 514 456 514 q 442 517 444 514 q 422 519 429 526 q 425 506 418 514 q 428 496 428 503 q 422 483 428 489 q 408 476 415 476 q 399 489 400 476 q 386 523 399 500 q 367 546 374 546 q 361 539 361 546 q 375 500 361 528 q 389 469 389 472 q 431 444 389 454 q 447 442 444 442 q 490 460 460 442 q 528 474 528 485 q 506 447 528 465 q 463 419 483 428 q 442 405 444 413 q 439 357 439 397 q 443 282 439 300 q 449 263 446 264 q 461 271 451 263 q 471 310 475 285 q 469 333 469 315 q 490 415 469 414 l 494 415 q 503 400 503 415 q 500 368 503 396 q 499 326 499 356 q 501 274 499 288 l 508 226 l 522 260 q 581 492 560 340 q 601 581 592 575 q 608 577 606 582 q 610 564 610 572 q 617 547 610 547 q 639 557 619 547 q 681 567 654 567 q 725 554 711 567 q 750 460 750 536 q 739 363 750 415 q 725 271 725 297 q 728 254 726 254 q 735 261 729 254 q 764 332 747 276 q 786 482 782 386 q 787 506 786 492 q 788 526 788 521 q 767 633 788 572 l 746 693 q 724 703 746 696 m 454 726 q 438 739 442 739 q 421 708 435 736 q 407 685 413 690 q 390 679 401 679 q 384 680 389 679 q 375 681 379 681 l 367 681 q 316 665 343 681 q 228 604 289 650 q 163 560 174 560 q 142 589 156 560 q 131 633 131 614 q 133 667 131 639 q 135 693 135 676 q 129 715 135 715 q 108 681 121 715 q 96 563 96 650 q 107 392 96 488 q 128 286 121 286 q 131 306 131 286 q 140 375 131 329 q 158 424 147 408 q 215 488 169 440 q 300 568 274 549 q 344 581 321 581 q 385 567 372 581 q 401 554 394 554 q 414 581 410 554 q 432 632 418 603 q 456 668 446 661 q 476 669 465 674 q 496 682 486 665 q 505 694 500 690 q 513 694 510 697 q 517 682 517 690 q 501 661 517 668 q 493 651 485 657 q 503 649 496 649 q 526 669 522 649 q 549 686 528 685 q 579 704 579 689 q 578 713 579 710 q 560 715 574 724 q 536 721 546 707 q 521 732 528 732 q 496 725 517 732 q 469 719 479 719 q 454 726 461 719 m 432 765 q 445 774 440 775 q 464 757 450 772 q 485 743 476 743 q 507 750 489 743 q 546 750 533 761 q 576 744 558 740 q 599 733 594 749 q 604 724 601 726 q 613 723 607 722 q 633 729 618 724 q 681 739 658 739 q 729 731 697 739 q 782 692 761 722 q 835 567 815 643 q 856 419 856 492 q 853 368 856 385 q 819 263 847 321 q 763 182 790 204 q 707 156 731 156 q 686 164 694 156 q 675 183 675 175 q 686 208 675 190 q 694 250 694 221 q 636 469 694 342 q 610 517 617 517 q 600 479 606 517 q 576 364 594 439 q 544 260 557 289 q 494 201 518 201 q 475 215 483 201 q 467 223 469 224 q 457 211 465 222 q 438 194 446 194 q 414 333 415 194 q 411 408 414 394 q 397 425 408 421 q 372 450 378 435 q 340 513 346 501 q 311 549 319 549 q 304 544 308 549 q 233 438 281 525 q 160 276 186 351 q 126 225 142 226 q 111 228 117 222 q 100 253 106 235 q 79 383 88 288 q 71 567 71 479 q 79 676 71 651 q 110 728 89 703 q 146 753 132 753 q 158 742 156 753 q 160 689 160 732 q 164 614 160 625 q 179 603 168 603 q 233 635 197 603 q 369 707 314 707 l 378 707 q 392 706 383 706 q 414 729 403 706 q 432 765 422 753 z "},"n":{"ha":663,"x_min":72,"x_max":592,"o":"m 133 224 q 118 229 124 229 q 113 225 113 229 q 122 204 113 215 q 138 204 132 192 q 133 224 142 218 m 244 242 q 254 267 254 261 q 253 269 254 269 q 218 249 251 269 q 185 210 185 226 q 196 194 185 194 q 221 208 207 194 q 244 242 235 221 m 264 419 q 249 442 258 442 q 219 421 240 442 q 178 390 203 403 q 136 376 153 376 q 124 381 128 376 q 115 385 117 385 q 101 333 107 385 q 99 303 99 306 q 119 271 99 288 q 151 256 136 256 q 162 257 157 256 q 174 260 167 258 q 189 263 182 261 q 251 308 232 271 q 268 389 268 339 q 264 419 268 407 m 456 657 q 360 697 403 697 q 294 683 336 697 q 232 671 254 671 q 211 672 218 671 q 192 674 203 674 q 160 658 175 674 q 121 522 121 619 q 122 489 121 500 q 133 414 128 419 q 144 410 138 410 q 217 446 176 410 q 265 474 250 474 q 296 504 281 474 q 337 564 310 532 q 374 596 364 596 q 383 588 383 596 q 367 561 383 575 q 344 531 354 550 q 335 503 335 513 q 336 497 335 499 q 364 511 340 493 q 457 546 410 546 q 483 528 476 546 q 490 456 490 511 q 490 431 490 449 q 489 404 489 414 l 489 360 q 492 300 489 315 q 510 256 496 285 q 549 211 531 213 l 565 207 l 561 279 q 544 406 558 329 q 526 499 529 483 q 503 599 517 567 q 456 657 489 631 m 288 710 q 354 722 317 722 l 375 722 q 426 715 413 719 q 468 688 439 710 q 532 621 515 649 q 553 539 549 593 q 567 443 558 472 q 586 313 575 411 q 592 236 592 263 q 582 199 592 213 q 546 179 569 179 q 508 197 524 179 q 469 270 479 229 q 460 406 460 311 l 460 514 l 432 513 q 367 485 404 510 q 319 463 336 463 l 317 463 l 315 464 q 313 464 314 464 q 290 386 293 464 q 285 328 290 344 q 285 301 278 314 q 286 294 286 300 q 269 247 286 278 q 232 196 253 215 q 193 175 210 175 q 178 176 183 175 q 140 169 149 181 q 129 164 135 164 q 99 185 114 164 q 85 229 85 207 q 86 240 85 236 q 79 269 89 256 q 72 293 72 281 q 81 350 72 306 q 93 499 90 397 q 109 622 94 581 q 156 686 124 664 q 197 701 181 701 q 217 700 208 701 q 239 699 225 699 q 288 710 261 699 m 192 326 q 192 330 192 326 q 200 343 192 335 q 217 351 208 351 q 226 343 226 351 q 218 325 226 333 q 200 317 210 317 q 192 326 192 317 m 147 324 q 174 326 163 350 q 170 308 178 315 q 151 306 163 301 q 147 324 139 310 z "},"o":{"ha":628,"x_min":74,"x_max":556,"o":"m 188 515 q 175 539 176 539 q 163 476 163 539 q 165 442 163 447 q 185 438 168 438 q 204 447 204 438 q 201 465 204 449 q 188 515 194 500 m 371 531 q 326 551 350 551 q 264 536 306 551 q 244 529 256 533 q 227 523 232 525 q 222 517 222 521 q 228 469 222 497 q 245 416 235 429 q 279 403 256 403 q 299 388 299 403 q 289 361 299 375 q 283 353 285 356 q 282 347 282 350 q 285 342 282 344 q 293 338 288 340 q 346 326 300 332 q 369 325 356 325 q 403 342 386 325 q 421 396 421 360 q 406 469 421 429 q 371 531 392 508 m 439 650 q 361 672 414 671 l 342 672 q 244 647 282 672 q 212 610 229 638 q 194 568 194 582 q 218 553 194 553 q 288 567 239 553 q 343 582 336 582 q 415 522 379 582 q 450 399 450 463 q 444 363 450 374 q 418 328 439 351 q 361 296 386 296 q 301 304 343 296 l 254 313 l 258 342 q 259 351 258 346 q 260 358 260 357 q 235 392 260 375 q 189 408 210 408 q 147 386 164 408 q 136 365 136 371 q 146 335 136 361 q 169 303 158 303 q 185 313 176 303 q 206 321 200 331 q 206 315 206 319 q 183 288 204 307 q 151 269 161 269 l 149 269 q 122 314 144 272 q 108 353 108 343 q 117 379 108 361 q 126 433 126 399 q 110 486 126 486 q 106 485 107 486 q 99 417 99 481 q 108 308 99 338 q 147 240 119 276 q 193 193 174 203 q 297 167 249 167 q 417 196 350 167 q 481 231 463 215 q 510 274 499 246 q 525 318 525 313 q 522 324 525 324 q 511 310 515 324 q 492 294 507 296 q 483 303 485 297 q 501 369 483 319 q 518 454 518 424 q 500 543 518 488 q 473 612 485 590 q 439 650 461 633 m 229 668 q 349 701 272 701 l 368 701 q 453 679 428 699 q 547 449 540 613 q 554 349 550 372 q 555 342 554 346 q 556 336 556 338 q 539 276 556 317 q 508 221 517 229 q 412 166 485 194 q 293 138 339 138 q 222 150 269 138 q 178 167 193 158 q 146 196 164 175 q 94 267 115 232 q 78 311 81 293 q 74 393 75 329 q 76 469 74 451 q 89 500 79 486 q 118 524 103 518 q 146 546 129 526 q 163 575 163 565 q 188 622 163 586 q 229 668 213 657 m 176 378 q 192 385 181 378 q 208 393 203 393 q 217 386 217 393 q 193 363 217 379 q 160 347 169 347 l 157 349 q 161 365 153 353 q 176 378 169 378 z "},"p":{"ha":644,"x_min":72,"x_max":572,"o":"m 511 307 q 503 322 511 322 q 450 292 490 322 q 385 249 404 260 q 361 224 361 236 q 389 210 361 210 q 468 244 425 210 q 511 307 511 279 m 260 307 q 221 338 224 338 q 208 286 214 338 q 208 277 208 283 q 207 269 207 271 q 221 229 207 251 q 292 188 247 188 q 336 257 326 188 l 340 288 l 318 281 q 304 278 307 278 q 260 307 290 278 m 428 519 q 403 531 418 531 q 342 493 375 531 q 279 367 289 433 q 278 346 278 358 q 292 318 278 331 q 328 310 308 301 q 363 317 346 317 q 374 294 379 317 q 372 282 372 289 q 378 274 372 274 q 422 300 390 274 l 457 329 l 456 375 q 428 519 450 492 m 444 714 q 379 731 411 731 q 306 717 354 731 q 216 661 260 703 q 150 572 172 619 q 100 318 100 460 q 107 176 100 242 q 135 8 117 58 q 183 -42 153 -42 q 201 -18 201 -42 q 190 50 201 -3 q 174 228 174 129 q 186 328 174 307 q 229 364 208 364 q 233 363 231 364 q 238 363 236 363 q 254 372 254 358 q 279 436 254 386 q 344 524 306 490 q 417 558 383 558 q 443 550 431 558 q 481 414 472 532 l 485 358 l 504 363 q 533 377 525 368 q 544 407 540 386 q 546 428 546 413 q 522 593 546 506 q 517 615 519 603 q 512 635 514 626 q 510 646 510 644 q 490 681 510 661 q 444 714 471 701 m 317 747 q 383 758 353 758 q 476 735 435 758 q 535 669 517 711 q 560 564 547 638 q 572 444 572 490 q 557 367 572 389 q 540 317 540 346 q 507 251 540 288 q 447 201 474 215 q 374 176 421 186 q 278 161 301 161 q 211 186 247 161 l 194 199 l 199 153 q 218 51 204 106 q 228 -8 228 14 q 208 -54 228 -35 q 174 -72 192 -72 q 133 -51 153 -72 q 104 6 114 -31 q 83 151 93 44 q 72 333 72 258 q 75 386 72 361 q 117 568 92 508 q 199 675 143 628 q 317 747 263 731 m 251 244 q 250 256 247 249 q 259 267 253 264 q 271 267 265 271 q 272 255 275 263 q 263 244 269 247 q 251 244 257 240 m 301 230 q 295 225 301 230 q 286 225 290 221 q 282 233 282 229 q 290 247 282 240 q 304 253 297 253 q 311 246 311 253 q 301 230 311 239 z "},"q":{"ha":675,"x_min":74,"x_max":603,"o":"m 493 322 q 485 343 493 335 q 458 351 476 351 q 439 344 443 351 q 440 313 435 339 q 447 292 443 297 q 460 288 450 288 q 484 298 475 288 q 493 322 493 308 m 375 376 q 354 394 358 394 q 350 389 350 394 q 353 372 350 386 q 354 360 354 368 q 324 315 354 346 q 290 286 300 292 q 258 281 279 281 q 233 278 239 281 q 228 267 228 276 q 281 199 228 219 q 311 190 303 190 q 338 197 317 190 q 379 233 367 211 q 403 263 394 258 q 414 286 414 267 q 375 376 414 335 m 394 497 q 379 508 383 508 q 338 490 372 508 q 300 454 300 472 q 311 418 300 443 l 322 392 l 332 415 q 353 438 342 438 q 394 400 364 438 q 432 367 422 367 q 436 375 436 367 q 424 429 436 389 q 394 497 407 482 m 325 690 q 272 701 296 701 q 232 690 250 701 q 173 640 206 676 q 124 569 140 603 q 106 517 108 539 q 103 413 103 494 q 106 311 103 335 q 119 263 108 288 q 158 204 140 219 q 244 150 193 171 q 335 129 294 129 q 374 138 357 129 q 426 182 385 143 q 464 239 464 219 q 456 258 464 258 q 413 228 443 258 q 299 167 351 167 q 206 231 239 167 q 196 265 196 250 q 199 289 196 269 q 221 325 207 325 q 247 315 225 325 l 278 300 l 303 319 q 326 346 326 339 q 317 360 326 351 q 269 456 288 383 q 265 486 265 472 q 289 553 265 526 q 347 581 313 581 l 353 581 q 382 567 382 578 q 356 558 382 557 q 349 559 353 558 q 344 560 346 560 q 310 543 326 560 q 293 518 293 526 q 299 503 293 510 q 333 511 306 492 q 388 535 369 535 q 419 515 406 535 q 447 447 432 494 q 478 382 467 388 q 509 359 497 376 q 521 322 521 342 q 511 290 521 304 q 500 238 503 278 q 474 146 500 200 q 453 86 453 103 q 468 47 453 71 q 497 31 478 31 q 531 47 517 31 q 564 113 546 63 q 579 196 579 154 q 578 240 579 222 q 551 386 575 317 q 451 594 504 524 q 325 690 399 665 m 246 724 q 282 729 261 729 q 451 643 368 729 q 579 399 526 567 q 598 325 594 351 q 603 235 601 299 l 603 203 q 586 96 603 142 q 492 1 550 1 q 464 8 476 1 q 429 83 429 25 q 443 133 429 114 q 457 161 457 154 q 435 160 457 175 q 424 151 429 157 q 382 119 414 140 q 338 106 356 106 q 307 108 332 106 q 176 152 231 118 q 100 238 122 186 q 74 401 74 296 q 101 571 74 507 q 246 724 156 692 m 374 292 q 389 303 378 303 q 400 292 400 303 q 393 279 400 285 q 379 274 386 274 q 371 282 371 274 q 374 292 371 283 m 346 271 q 358 278 356 278 q 363 272 363 278 q 356 257 363 265 q 344 249 350 249 q 339 251 342 249 q 346 271 331 260 z "},"r":{"ha":583,"x_min":78,"x_max":506,"o":"m 346 749 q 329 790 342 790 q 308 782 321 790 q 250 768 289 768 q 213 775 222 768 q 194 771 200 782 q 186 600 192 763 q 174 426 183 469 q 132 319 165 383 q 104 251 104 268 q 118 238 104 238 q 179 308 144 238 q 201 331 192 331 q 211 313 211 331 q 208 278 211 308 q 206 240 206 244 q 222 206 206 222 q 253 189 242 186 q 267 260 265 193 q 303 474 268 342 q 326 542 317 524 q 358 586 335 560 q 435 646 393 626 q 474 676 474 667 l 472 679 q 472 683 472 682 q 432 717 464 717 q 340 675 385 717 q 311 653 318 653 q 304 658 304 653 q 328 693 304 672 q 347 731 347 711 q 347 739 347 733 q 346 749 346 744 m 314 814 q 344 832 335 832 q 364 800 351 832 q 376 747 376 768 q 378 735 376 738 q 386 733 381 732 q 433 743 410 743 q 485 726 465 743 q 506 679 506 708 q 487 644 506 664 q 447 619 468 625 q 397 590 425 613 q 357 547 368 568 q 319 432 335 510 q 300 285 303 354 q 283 179 299 201 q 246 158 269 158 q 204 177 224 158 q 179 225 185 196 l 174 253 l 151 231 q 114 210 131 210 q 110 210 113 210 q 104 211 107 211 q 78 236 78 215 q 104 313 78 260 q 145 412 136 375 q 156 521 154 449 q 176 783 161 746 q 204 813 188 813 q 221 807 211 813 q 260 796 236 796 q 314 814 294 796 m 286 728 q 301 739 290 739 q 313 728 313 739 q 306 716 313 721 q 292 711 299 711 q 283 718 283 711 q 286 728 283 719 m 259 706 q 256 705 259 706 q 250 706 253 703 q 247 713 247 708 q 252 726 247 719 q 263 732 257 732 q 272 725 268 732 q 270 716 275 722 q 259 706 265 710 z "},"s":{"ha":604,"x_min":71,"x_max":529,"o":"m 404 713 q 364 724 368 724 q 357 711 357 724 q 346 688 357 696 q 322 694 333 678 q 279 710 313 710 q 160 665 210 710 q 100 547 100 614 q 108 494 100 522 q 138 449 117 467 q 204 417 160 431 q 297 378 257 400 q 336 344 336 356 q 310 292 336 311 q 242 272 283 272 q 179 283 208 272 q 125 294 151 294 q 96 281 100 294 q 94 272 94 278 q 140 222 94 239 q 257 213 175 213 q 369 222 343 213 q 426 275 403 236 q 449 356 449 314 q 444 388 449 372 q 399 448 438 413 q 332 494 361 483 q 289 516 313 501 q 265 543 265 531 q 268 550 265 544 q 297 571 281 571 q 336 558 308 571 q 399 540 372 540 q 422 546 413 540 q 422 560 432 553 q 399 567 413 567 q 375 583 389 567 q 361 610 361 599 q 361 611 361 611 l 363 614 q 392 608 371 635 q 432 593 403 593 q 478 604 453 593 q 497 642 496 614 q 492 690 497 675 q 461 707 485 713 q 449 706 458 706 q 404 713 428 706 m 329 742 q 338 758 329 750 q 349 767 346 767 q 389 750 350 767 q 442 733 426 733 q 469 751 456 733 q 486 765 481 765 q 514 715 496 765 q 529 649 529 672 q 504 596 529 619 q 469 574 479 574 q 454 557 458 574 q 397 514 449 532 l 378 506 l 401 489 q 450 442 424 474 q 479 361 479 404 q 415 229 479 296 l 375 189 l 299 183 q 235 181 251 181 q 71 263 71 181 q 86 306 71 289 q 125 324 101 324 q 193 310 151 324 q 257 297 238 297 q 289 303 274 297 q 307 328 307 308 q 292 353 307 344 q 204 386 278 360 q 115 428 139 408 q 81 488 92 447 q 74 540 74 510 q 197 717 74 653 q 278 732 228 732 q 329 742 329 732 m 429 635 q 419 633 425 633 q 410 643 410 633 q 415 656 410 650 q 425 663 419 663 q 433 660 431 663 q 457 657 443 653 q 472 651 472 661 q 467 638 472 644 q 457 629 463 631 q 447 632 451 628 q 429 635 442 640 z "},"t":{"ha":451,"x_min":72,"x_max":376,"o":"m 321 318 q 303 360 308 331 q 303 363 303 361 l 301 363 q 300 343 300 351 l 300 325 q 301 309 300 314 q 306 303 303 304 q 318 303 310 303 l 336 303 l 321 318 m 335 661 q 263 671 335 671 q 128 657 151 671 q 133 618 122 651 q 147 586 140 594 q 172 571 154 578 q 196 551 196 560 q 175 540 196 542 l 168 540 q 132 555 149 540 q 108 593 115 569 q 101 611 103 611 q 99 571 99 611 q 108 496 99 519 q 118 482 115 483 q 124 494 118 489 q 135 499 129 499 q 143 493 140 499 q 154 428 147 481 q 199 267 175 267 q 204 321 204 267 l 204 360 l 204 400 q 213 460 204 457 q 219 463 218 463 q 233 357 232 463 q 242 257 236 263 q 246 254 244 254 q 268 401 268 254 q 265 489 268 460 l 258 564 l 278 585 q 335 661 335 642 m 190 801 q 155 747 190 797 q 119 694 119 697 q 129 690 119 690 q 182 700 153 690 q 215 728 200 704 q 231 776 231 753 q 229 788 231 783 q 208 821 222 821 q 200 817 204 821 q 190 801 190 807 m 186 831 q 204 853 199 853 q 240 830 225 853 q 256 776 256 807 q 244 731 256 753 q 238 704 235 707 q 297 700 242 700 q 361 693 353 697 q 369 676 369 686 q 317 593 369 649 q 296 564 300 575 q 292 531 292 553 q 308 460 292 492 q 331 385 325 425 q 357 331 335 347 q 376 307 376 315 q 360 284 376 294 q 319 272 343 274 q 285 254 286 271 q 242 222 278 222 l 238 222 q 208 217 214 225 q 197 210 204 210 q 174 235 183 210 q 147 263 163 256 q 113 329 113 274 l 113 339 q 92 454 113 368 q 72 565 72 525 q 74 608 72 590 q 82 674 76 657 q 107 719 88 690 q 144 770 117 733 q 186 831 172 807 m 193 611 q 192 615 192 613 q 199 628 192 622 q 211 635 206 635 q 219 621 219 635 q 209 608 219 613 q 193 611 199 604 m 243 631 q 258 633 250 638 q 260 618 265 628 q 251 611 257 614 q 239 610 244 608 q 233 615 233 611 q 243 631 233 621 z "},"u":{"ha":672,"x_min":75,"x_max":600,"o":"m 436 310 q 456 336 456 332 q 453 338 456 338 q 421 317 446 338 q 397 285 397 297 q 403 281 397 281 q 436 310 407 281 m 425 374 q 414 383 425 379 q 392 388 403 388 q 369 382 376 388 q 365 376 365 381 q 406 367 365 367 q 425 374 425 367 m 315 547 q 304 582 324 582 q 293 572 294 582 q 300 547 292 561 l 310 528 l 315 547 m 561 621 q 528 667 543 667 q 517 656 521 667 q 507 557 513 644 q 486 436 501 467 q 469 389 469 403 q 490 363 469 372 q 510 340 510 351 q 483 315 510 328 q 433 276 461 304 q 390 253 411 253 q 368 275 368 253 q 386 315 368 293 l 406 338 l 385 338 q 354 328 364 338 q 335 318 346 318 q 303 332 322 318 q 261 411 261 361 q 285 488 261 447 l 306 526 l 283 508 q 240 435 240 478 q 229 417 240 417 q 213 435 213 417 q 253 507 213 467 q 271 539 278 532 q 261 543 267 543 q 222 514 240 543 q 199 497 206 489 q 199 508 196 500 q 197 520 200 517 q 181 526 193 524 q 154 531 163 531 q 131 488 143 531 q 118 411 118 446 q 315 226 118 243 q 347 225 326 225 q 471 268 407 225 q 513 304 501 289 q 547 363 525 319 q 575 428 571 410 q 579 503 579 446 q 561 621 579 578 m 249 690 q 217 717 219 717 q 211 697 211 717 q 185 664 211 664 q 178 665 183 664 q 172 665 174 665 l 164 665 q 125 624 125 665 q 113 597 125 604 q 108 592 108 594 q 133 571 108 582 q 183 560 158 560 q 275 640 275 560 q 249 690 275 665 m 182 711 q 194 740 182 728 q 208 753 207 753 q 282 700 232 753 q 308 657 308 674 q 300 619 308 644 q 310 603 294 603 q 340 574 340 603 q 315 501 340 547 q 289 415 289 449 q 303 374 289 389 q 315 361 315 358 q 314 371 317 363 q 313 378 313 374 q 394 410 313 410 q 442 413 433 410 q 458 432 450 415 q 479 557 471 451 q 496 669 486 642 q 529 696 506 696 q 600 517 600 696 l 600 499 q 572 342 599 397 q 474 240 546 288 q 340 196 410 196 q 296 199 313 196 q 117 313 164 217 q 96 388 96 358 q 97 403 96 392 q 97 422 97 415 q 114 513 101 486 q 119 543 128 540 q 90 564 106 549 q 75 588 75 579 q 89 617 75 600 q 104 643 104 635 q 127 676 104 656 q 164 696 150 696 q 182 711 182 696 m 210 644 q 229 656 221 656 q 236 647 236 656 q 208 622 236 626 q 193 613 193 619 q 192 604 193 610 q 190 596 192 599 q 175 589 190 589 q 163 599 163 589 q 179 621 163 613 q 210 644 193 628 z "},"v":{"ha":604,"x_min":74,"x_max":529,"o":"m 225 539 q 232 567 236 553 q 222 581 228 581 q 184 562 217 579 q 151 540 151 544 q 171 487 151 531 q 204 421 190 443 q 226 399 218 399 q 232 414 232 399 q 225 468 232 429 q 218 519 218 503 q 225 539 218 532 m 143 489 q 121 554 121 546 q 110 574 121 563 q 99 572 99 583 q 119 501 99 560 q 146 429 139 442 q 157 418 154 418 q 160 425 160 418 q 143 489 160 444 m 197 710 q 188 705 197 710 q 169 708 178 700 q 147 717 161 717 q 118 704 131 717 q 111 678 103 688 q 121 678 114 674 q 136 674 136 689 q 128 657 136 665 q 118 619 111 639 q 143 589 126 599 q 182 589 161 579 q 218 628 203 599 q 233 682 233 657 q 226 706 233 696 q 197 710 217 719 m 493 708 q 479 724 485 724 q 457 706 474 724 q 371 467 389 629 q 359 375 363 390 q 344 360 356 360 q 289 446 332 360 q 244 528 249 528 q 244 521 243 528 q 247 501 244 514 q 253 475 250 488 q 264 392 264 422 q 257 363 264 367 q 250 347 250 358 q 260 315 250 332 q 286 293 271 299 q 307 257 297 289 q 321 224 317 224 q 447 471 339 224 q 488 572 479 546 q 499 636 496 597 q 500 663 500 646 q 493 708 500 697 m 110 728 q 150 746 128 746 q 179 738 164 746 q 201 738 193 729 q 219 744 208 744 q 246 732 233 744 q 260 683 260 718 q 251 633 260 658 l 240 603 l 286 514 q 335 424 331 424 q 345 475 339 424 q 375 601 351 526 q 442 719 399 675 q 488 746 467 746 q 529 658 529 746 q 517 581 529 619 q 453 422 504 543 q 311 174 344 174 q 290 194 303 174 q 236 294 276 215 q 171 406 179 406 q 167 403 169 406 q 144 396 163 396 q 127 402 133 396 q 114 426 121 408 q 86 524 99 463 q 74 621 74 586 q 76 643 74 639 q 90 683 81 651 q 110 728 99 715 m 171 664 q 194 668 186 683 q 186 650 200 664 q 168 645 175 639 q 171 664 161 651 z "},"w":{"ha":958,"x_min":75,"x_max":882,"o":"m 260 517 q 265 512 260 507 q 265 522 271 517 q 262 523 264 525 q 260 517 260 521 m 519 590 q 488 646 494 646 q 483 636 483 646 q 508 533 483 608 q 521 483 521 496 q 517 469 521 475 q 514 457 514 467 q 532 388 514 442 q 572 291 549 338 q 603 244 594 244 q 614 267 608 244 q 640 311 619 293 q 681 358 657 326 q 704 397 704 390 q 690 406 704 400 q 644 482 664 415 l 635 513 l 608 475 q 576 438 581 438 q 558 488 571 438 q 519 590 547 528 m 718 725 q 688 746 700 740 q 683 735 683 746 q 696 665 683 715 q 706 622 706 624 q 694 604 706 615 q 663 529 663 575 q 671 482 663 507 q 689 454 681 454 q 697 479 697 454 q 697 502 697 488 q 696 519 696 517 q 707 539 696 539 q 719 501 718 539 q 725 446 722 454 q 738 440 729 431 q 743 457 743 446 q 739 483 743 464 q 735 517 735 503 q 746 539 735 539 q 761 508 753 539 q 781 461 776 468 q 789 449 786 451 q 793 449 792 447 q 797 457 794 450 q 803 525 803 469 q 800 569 803 563 q 785 582 794 582 q 779 593 768 582 q 799 601 788 599 q 843 671 833 606 q 844 694 844 681 q 838 721 844 713 q 824 732 829 732 q 796 719 819 732 q 754 704 765 704 q 718 725 742 704 m 172 724 q 146 746 156 746 q 119 721 139 746 q 104 686 104 701 q 106 672 104 678 q 124 635 111 644 q 133 622 131 628 q 131 613 135 617 q 117 610 126 610 q 96 581 96 610 q 101 552 96 565 q 113 539 107 539 q 124 546 124 539 q 135 553 124 553 q 142 538 147 553 q 138 517 138 525 q 163 444 138 500 q 207 375 189 385 q 228 349 219 369 q 238 308 238 329 q 237 300 238 306 q 236 292 236 294 q 252 226 236 271 q 276 181 268 181 l 278 181 q 286 210 283 185 q 306 267 286 238 q 371 419 321 293 q 431 578 421 544 q 438 621 438 608 q 429 639 438 639 q 406 622 419 639 q 353 535 388 601 q 318 453 318 468 l 318 444 q 313 433 318 433 q 288 468 300 433 l 271 506 l 265 474 q 235 425 257 425 q 225 428 229 425 q 195 472 214 435 q 176 524 176 508 q 186 538 176 538 q 213 506 200 538 q 231 478 225 478 q 236 507 236 478 q 235 522 236 511 q 235 540 235 533 q 231 602 232 594 q 219 619 229 610 q 213 633 213 626 q 226 654 214 639 q 250 699 244 678 q 249 717 254 715 l 238 714 q 200 706 211 706 q 172 724 189 706 m 815 778 q 825 789 819 789 q 861 740 838 789 q 882 681 882 694 q 868 657 882 671 q 854 635 854 646 q 840 610 854 629 q 825 518 826 593 q 807 431 822 447 q 775 425 790 415 q 756 425 758 435 q 706 357 746 406 q 653 284 665 306 q 640 242 640 263 q 642 221 640 229 q 644 196 644 201 q 632 169 644 181 q 618 160 622 160 q 607 171 614 161 q 526 327 565 229 q 485 481 486 425 q 474 553 482 526 l 464 585 l 436 506 q 367 340 415 446 q 317 204 325 256 q 303 151 311 164 q 281 138 296 138 q 249 160 263 138 q 214 242 235 182 q 106 483 132 467 q 85 503 90 492 q 76 558 81 515 q 75 593 75 572 q 79 618 75 614 q 83 646 88 626 q 82 667 82 653 q 115 743 82 710 q 156 767 139 767 q 189 749 171 767 q 213 733 204 733 q 231 739 214 733 q 256 746 247 746 q 274 721 274 746 q 273 715 274 719 q 272 707 272 710 q 256 657 265 669 q 246 636 246 643 q 257 607 246 628 q 288 539 269 585 q 306 508 300 508 q 353 582 313 508 q 414 658 383 638 q 458 690 449 681 q 488 697 474 704 q 530 637 504 689 q 575 536 556 585 l 593 489 q 639 553 600 489 l 682 617 l 672 665 q 663 729 663 708 q 674 761 663 750 q 693 774 683 774 q 733 750 701 774 q 765 729 758 729 q 785 738 772 729 q 808 758 807 751 q 815 778 814 775 m 132 688 q 147 690 139 694 q 150 675 156 685 q 141 669 147 671 q 129 668 135 667 q 124 674 124 669 q 132 688 124 679 m 194 648 q 191 646 194 648 q 185 647 188 644 q 182 656 182 650 q 187 669 182 663 q 197 675 192 675 q 206 668 201 675 q 204 658 208 665 q 194 648 200 651 m 799 674 q 821 672 815 690 q 800 653 829 653 q 779 646 783 653 q 763 639 772 636 q 756 651 754 642 q 774 664 758 664 q 799 674 789 664 z "},"x":{"ha":593,"x_min":78,"x_max":519,"o":"m 378 397 q 363 422 369 422 q 343 408 360 422 q 325 397 332 397 q 293 406 318 397 q 263 414 268 414 q 251 406 256 414 q 143 243 200 317 q 118 203 118 213 q 122 197 118 200 l 125 197 l 128 196 q 229 289 150 196 q 317 364 293 364 q 326 363 324 364 q 383 299 342 357 q 449 221 417 254 q 492 188 481 188 q 496 193 496 188 q 438 296 496 210 q 378 397 386 369 m 368 533 q 358 541 363 542 q 340 531 353 540 q 313 518 325 518 q 292 521 308 518 l 260 525 l 265 490 q 281 445 269 460 q 318 429 293 431 q 324 428 321 429 q 328 428 326 428 q 364 457 344 428 q 382 497 382 483 q 368 533 382 517 m 492 675 q 485 696 492 696 q 408 624 464 696 l 382 588 l 392 554 q 410 519 401 522 l 411 519 q 445 557 421 519 q 481 624 469 594 q 492 675 492 657 m 240 550 q 242 553 242 551 q 210 631 242 567 q 174 700 179 694 q 171 701 172 701 l 157 663 q 156 649 156 658 q 176 581 156 631 q 215 506 200 525 l 233 485 l 233 514 q 240 550 233 543 m 151 714 q 179 731 168 731 q 228 660 200 731 q 269 586 250 608 q 310 560 292 560 q 393 642 340 560 q 479 717 431 699 q 493 719 488 719 q 519 682 519 719 q 482 576 519 643 q 404 472 444 508 l 382 453 l 407 401 q 476 283 438 338 q 518 197 518 222 q 501 171 518 181 q 464 169 485 158 q 356 288 429 188 q 308 338 318 338 q 243 269 299 338 q 110 168 163 168 l 103 168 q 78 185 78 169 q 99 225 78 200 q 166 316 122 254 q 225 406 210 378 l 242 432 l 213 464 q 162 541 189 489 q 129 622 135 593 q 126 644 126 636 q 151 714 126 689 m 326 478 q 324 483 324 481 q 330 495 324 489 q 342 501 336 501 q 347 493 347 501 q 340 478 347 483 q 326 478 333 474 m 295 470 q 292 468 295 470 q 286 469 289 467 q 283 476 283 472 q 288 490 283 483 q 299 496 293 496 q 308 489 304 496 q 306 480 311 486 q 295 470 301 474 z "},"y":{"ha":797,"x_min":79,"x_max":719,"o":"m 232 571 q 193 594 201 594 q 185 581 185 594 q 219 532 185 568 q 290 472 254 496 q 337 410 322 450 q 354 292 351 369 l 358 213 l 335 182 q 310 156 315 156 q 301 219 301 156 l 301 240 q 290 288 301 288 q 281 283 286 288 q 236 203 243 258 q 235 194 236 200 q 235 186 235 189 q 272 144 235 144 q 289 141 286 144 q 290 126 292 138 q 271 97 288 97 q 256 104 265 97 q 224 117 240 117 q 190 101 210 117 q 171 76 171 86 q 153 54 171 67 l 135 43 l 149 22 q 164 -12 164 1 q 176 -56 164 -35 q 203 -82 189 -78 q 235 -131 235 -90 q 239 -140 235 -140 q 294 -99 247 -140 q 357 -32 353 -46 q 413 26 363 -14 q 556 207 521 119 l 574 254 l 558 283 q 543 326 543 314 q 533 359 543 338 q 517 381 522 381 q 499 374 513 381 q 462 318 488 367 q 436 256 436 269 q 443 246 436 246 q 472 267 453 246 q 499 288 489 288 q 503 269 513 288 l 493 256 q 479 229 479 242 q 493 211 479 215 q 506 199 506 207 q 483 182 506 185 q 464 188 464 179 q 450 194 464 194 q 436 182 438 194 q 447 164 435 169 q 442 142 465 157 l 431 138 q 401 124 419 138 q 381 113 386 113 q 375 119 375 113 q 388 147 375 128 q 406 186 406 171 q 399 196 406 196 q 367 172 386 196 q 326 88 326 124 q 329 74 326 82 q 357 49 339 49 q 372 50 367 49 q 392 46 389 53 q 379 31 394 39 q 351 24 363 24 q 315 37 331 24 q 300 69 300 50 q 335 155 300 97 q 392 219 369 213 q 410 247 406 224 q 429 308 417 275 q 442 346 442 336 q 439 351 442 349 q 410 386 433 356 q 368 496 382 426 q 359 512 365 507 q 335 519 353 517 q 232 571 283 528 m 682 635 q 665 639 674 639 q 632 626 654 639 q 590 592 603 611 q 561 525 576 572 q 532 443 546 471 q 522 419 522 421 q 539 404 522 413 q 561 360 556 397 q 572 321 567 321 q 579 376 579 321 q 592 481 579 444 q 647 561 606 518 q 692 622 692 610 q 682 635 692 631 m 647 663 q 674 667 664 667 q 707 654 692 667 q 719 631 719 643 q 671 556 719 606 q 619 480 631 514 q 607 368 607 446 q 544 131 607 231 q 433 7 525 101 q 279 -140 340 -87 q 224 -176 236 -176 q 214 -158 214 -176 q 206 -126 214 -140 q 189 -112 199 -112 q 163 -89 178 -112 q 138 -35 147 -65 q 101 22 128 0 q 82 42 85 36 q 85 54 79 47 q 110 65 93 65 q 163 101 124 65 q 208 138 201 138 q 210 156 215 138 q 207 178 207 169 q 237 269 207 224 q 297 314 267 314 q 307 313 304 314 q 314 311 310 311 q 321 322 321 311 q 308 374 321 333 q 288 416 301 399 q 236 471 275 433 q 150 599 150 553 q 169 629 150 619 q 190 635 183 635 q 247 603 215 635 q 292 569 275 578 q 332 560 308 560 q 378 541 356 560 q 400 503 400 522 q 412 451 400 486 q 435 403 424 417 l 447 386 l 472 408 q 501 442 492 425 q 525 514 510 460 q 554 586 538 558 q 597 633 567 608 q 647 663 626 657 m 213 26 q 206 29 208 26 q 203 36 203 32 q 209 51 203 43 q 222 58 215 58 q 232 51 228 58 q 233 46 233 50 q 226 33 233 39 q 213 26 219 26 m 236 7 q 261 13 253 24 q 263 4 264 10 q 243 -11 260 -8 q 228 -8 231 -14 q 236 7 226 -3 z "},"z":{"ha":742,"x_min":78,"x_max":663,"o":"m 396 215 l 376 215 q 301 219 322 215 q 271 214 271 225 q 376 194 271 194 q 486 201 486 194 q 418 215 486 215 l 396 215 m 524 774 q 501 789 514 789 q 458 770 485 788 q 419 735 432 753 q 375 698 401 707 q 285 689 349 689 q 218 682 218 689 q 268 675 218 675 q 329 676 304 675 q 390 678 351 678 q 439 675 436 678 q 440 671 440 674 q 388 637 440 656 q 292 617 336 618 q 260 608 260 617 q 447 600 260 603 q 483 589 483 599 q 474 572 483 582 q 394 556 458 557 l 333 556 l 303 521 q 259 463 282 499 q 206 376 236 428 q 168 310 176 324 q 135 242 135 256 q 138 232 135 232 q 150 244 140 231 q 200 325 164 261 q 263 406 247 406 q 271 403 265 406 q 276 394 276 399 q 261 358 276 385 q 181 193 181 208 q 183 189 181 189 q 215 215 189 189 q 254 244 244 244 q 258 275 258 244 q 272 306 258 288 q 336 382 285 325 q 453 517 433 492 q 574 607 517 599 q 600 622 593 611 q 610 656 607 632 q 618 692 614 681 l 619 694 l 619 697 q 578 732 619 707 q 524 774 538 754 m 479 817 q 522 831 508 831 q 550 811 536 831 q 617 760 565 790 q 663 719 663 732 q 646 633 663 668 q 615 588 629 599 q 585 574 600 578 q 533 556 547 564 q 500 524 518 547 q 456 473 493 515 q 396 404 418 431 q 301 282 301 297 q 308 268 301 275 q 399 256 319 257 q 490 253 482 253 q 526 235 510 250 q 541 217 539 222 q 538 199 543 211 q 506 167 531 183 q 375 151 481 151 q 251 164 268 151 q 229 171 242 171 q 207 158 207 171 q 178 143 207 154 q 153 138 156 138 q 133 151 143 138 q 113 160 121 168 q 101 154 107 154 q 85 166 92 154 q 78 194 78 178 q 106 290 78 235 q 233 492 135 344 q 274 561 274 549 q 243 567 274 567 q 201 592 201 567 q 206 608 201 600 q 211 624 211 619 q 186 636 211 629 q 153 663 153 644 q 161 683 153 672 q 201 716 179 707 q 265 725 222 725 q 356 735 326 726 q 414 771 386 744 q 479 817 449 803 m 458 723 q 457 730 458 723 q 465 744 457 736 q 487 753 474 753 q 500 744 500 753 q 488 723 500 736 q 467 710 475 710 q 458 723 458 710 m 503 678 l 503 679 q 501 682 501 681 q 511 703 501 692 q 529 715 521 715 l 532 715 q 540 703 540 714 q 524 676 540 689 q 503 678 507 665 z "}," ":{"ha":347,"x_min":0,"x_max":0,"o":""},"«":{"ha":729,"x_min":78,"x_max":653,"o":"m 485 300 q 457 326 485 306 q 428 333 428 346 q 451 310 428 325 q 467 300 461 303 q 477 296 472 297 q 483 295 482 294 q 485 300 485 296 m 381 392 q 389 369 375 379 q 406 360 403 360 q 408 363 408 360 q 399 383 408 368 q 388 401 390 399 q 383 397 386 403 l 381 392 m 592 617 q 547 631 569 631 q 515 624 533 631 q 503 613 503 619 q 575 588 503 592 l 586 588 q 613 596 613 588 q 592 617 613 604 m 386 828 q 358 846 360 846 q 357 824 357 846 q 300 692 356 774 q 207 435 207 556 l 207 418 q 208 408 207 414 q 208 400 208 403 q 194 369 208 379 q 178 363 183 363 q 161 375 174 364 q 142 421 142 390 q 153 469 142 443 q 164 515 164 496 q 157 531 164 531 q 133 494 147 531 q 118 432 119 457 l 118 422 q 138 363 118 394 q 181 314 160 328 q 243 294 203 300 q 336 267 288 290 q 394 244 382 244 q 397 246 397 244 q 360 290 397 253 q 321 349 321 328 q 328 363 321 358 q 342 396 333 367 q 368 431 350 425 q 385 454 385 436 q 400 494 385 472 q 414 524 414 515 q 403 531 414 531 q 371 519 386 531 q 353 511 358 511 q 347 518 347 511 q 363 546 347 529 q 384 565 375 561 q 414 569 393 569 l 428 569 q 471 575 471 569 q 440 603 471 583 q 397 624 410 624 q 364 639 382 624 l 346 653 q 375 681 365 672 l 429 665 q 493 656 464 656 q 554 678 528 656 q 574 725 574 693 l 574 740 q 565 806 574 783 q 558 819 561 817 q 553 821 556 822 q 540 814 550 819 q 511 806 525 806 q 483 808 503 806 q 453 811 464 811 l 443 811 l 435 811 q 386 828 408 811 m 339 886 q 360 894 351 894 q 400 874 372 894 q 474 851 432 851 l 488 851 q 522 865 517 851 q 539 889 528 881 q 568 882 550 899 q 613 768 613 840 l 613 751 q 597 685 607 701 q 592 665 586 668 q 597 663 593 664 q 653 607 653 647 q 650 590 653 601 q 567 546 635 546 q 511 532 526 546 q 471 513 500 521 q 428 450 428 501 q 489 360 428 407 q 532 320 521 335 q 543 286 543 306 q 531 257 543 268 q 497 246 518 246 q 485 247 489 246 q 469 249 479 249 q 438 229 453 249 q 388 207 418 207 q 307 229 360 207 q 215 258 264 250 q 160 272 176 264 q 125 303 144 281 q 78 413 78 358 q 99 492 78 447 q 178 574 132 564 q 200 584 193 576 q 217 615 207 592 q 258 688 232 653 q 303 759 292 733 q 319 825 315 785 q 339 886 325 876 m 472 751 q 494 760 482 761 q 507 749 507 758 q 494 728 507 738 q 479 722 488 722 q 464 735 464 722 q 472 751 464 743 m 522 743 q 535 751 526 749 q 550 753 543 754 q 557 746 557 751 q 548 722 557 735 q 532 710 539 710 q 519 722 522 710 q 522 743 515 735 z "},"Â":{"ha":799,"x_min":78,"x_max":722,"o":"m 679 210 q 672 231 679 221 q 665 231 665 240 q 672 210 665 219 q 679 210 679 200 m 314 608 l 307 608 q 251 619 276 608 q 232 626 235 626 q 211 608 228 626 q 171 525 171 554 q 194 495 171 507 q 247 483 218 483 q 294 494 278 483 q 332 527 322 513 q 346 571 342 542 l 351 608 l 314 608 m 321 957 q 331 972 331 965 q 321 982 331 982 q 307 958 307 982 q 321 957 307 944 m 388 1025 q 369 1040 376 1040 q 361 1026 361 1040 q 363 1015 361 1019 q 392 994 365 999 q 432 986 429 988 q 441 983 440 982 q 436 994 442 983 q 413 1011 426 1011 q 388 1025 397 1011 m 289 1011 q 318 1053 294 1031 q 374 1075 342 1075 q 483 1014 425 1075 q 536 974 513 982 q 557 951 557 968 q 544 929 557 942 q 494 913 528 913 q 451 921 475 913 q 417 931 419 933 l 414 876 l 413 825 l 446 803 q 560 686 522 753 q 610 552 585 640 q 636 426 636 464 q 635 414 636 417 l 633 411 q 633 408 633 410 q 690 267 633 381 q 722 179 722 204 q 714 160 722 165 q 663 149 707 154 q 632 146 638 146 q 606 156 617 146 q 574 196 589 171 q 560 235 560 221 l 560 243 q 537 281 560 258 q 481 319 514 304 q 331 351 406 351 q 304 347 313 351 q 268 286 288 340 q 199 144 224 165 q 172 131 183 131 q 156 167 156 131 l 156 176 l 157 206 l 131 179 q 89 153 104 153 q 78 169 78 153 q 102 255 78 189 q 153 374 126 321 l 183 435 l 158 471 q 139 515 139 499 q 176 599 139 538 q 213 654 201 640 q 239 668 225 668 q 276 656 253 668 q 321 639 310 639 q 350 644 325 639 q 382 650 368 650 q 397 635 397 650 q 390 599 397 624 l 381 558 l 406 531 q 425 506 425 510 q 422 504 425 504 q 404 509 419 504 q 381 514 389 514 q 372 513 375 514 q 356 506 365 510 q 341 501 346 503 q 328 495 336 500 q 310 482 319 490 q 244 450 283 460 l 206 442 l 181 383 q 121 214 121 244 q 129 211 122 200 q 150 224 136 224 q 200 353 171 224 q 229 410 214 410 q 236 399 236 410 q 222 351 236 386 q 198 269 211 328 q 185 188 185 210 q 189 175 185 175 q 232 256 199 175 q 272 340 258 324 q 361 381 303 381 q 507 332 426 381 q 552 300 540 313 q 578 257 564 288 q 622 194 608 194 q 626 197 624 194 q 628 204 628 200 q 617 293 628 229 q 601 424 601 378 l 601 433 q 551 625 601 525 q 432 768 500 725 q 392 782 413 782 q 375 775 379 782 q 350 769 369 767 l 344 769 q 308 735 308 769 q 335 704 308 704 q 361 713 346 704 q 392 724 379 724 q 446 688 414 724 q 505 598 474 656 q 536 519 536 540 q 527 492 536 500 q 493 485 518 485 q 457 488 488 485 q 464 496 451 489 q 474 500 468 497 q 500 522 500 511 q 499 526 500 524 q 499 531 499 529 q 435 661 482 614 q 385 689 407 689 q 353 678 371 689 q 326 669 340 669 q 289 701 301 669 q 282 732 282 718 q 339 806 282 779 q 379 872 379 825 q 371 917 379 894 q 353 939 363 939 q 326 918 342 939 q 257 851 278 853 q 243 853 247 850 q 240 861 239 856 q 258 931 243 882 q 278 985 272 979 q 289 1011 283 994 m 200 549 q 197 554 197 551 q 209 572 197 563 q 229 582 221 582 q 235 575 235 582 q 224 558 235 568 q 204 547 213 547 q 203 547 203 547 l 200 549 m 254 540 l 251 540 q 243 547 243 540 q 251 566 243 556 q 267 576 258 576 q 274 574 271 576 q 276 565 276 571 q 254 540 276 546 z "},"Ö":{"ha":815,"x_min":74,"x_max":744,"o":"m 292 471 q 275 481 283 485 l 272 475 q 304 425 272 469 q 351 381 338 381 q 365 383 365 381 q 351 413 365 392 q 322 443 336 433 q 292 471 299 461 m 219 497 q 219 522 225 510 q 216 531 217 531 q 211 522 215 531 q 211 497 206 510 q 219 497 217 485 m 150 622 q 139 635 150 631 q 125 639 128 639 q 115 623 121 639 q 110 596 110 607 q 115 585 110 585 q 133 596 122 585 q 150 622 150 613 m 449 711 q 383 732 406 732 q 335 701 360 732 q 274 610 310 671 l 238 549 l 257 547 q 313 508 274 546 q 356 476 344 476 l 357 476 q 376 522 364 481 q 419 589 394 589 q 456 557 436 589 q 471 513 471 531 q 469 497 471 503 l 465 472 l 503 475 q 558 497 542 479 q 574 554 574 515 q 449 711 574 651 m 258 842 q 250 863 258 863 q 226 846 243 863 q 193 825 208 825 q 151 793 171 825 q 132 728 132 761 q 133 713 132 717 q 165 674 142 674 q 226 714 190 674 q 267 753 265 753 q 267 728 279 753 q 258 717 263 722 q 219 645 236 688 q 201 579 201 603 q 207 564 201 564 q 257 631 218 564 q 331 735 300 700 q 374 767 358 767 q 392 765 385 767 q 519 709 450 757 q 601 619 588 661 q 610 568 610 593 q 589 500 610 531 q 540 451 564 465 q 479 438 515 438 q 436 445 444 438 q 426 485 428 453 q 419 515 426 515 q 399 479 411 515 q 389 440 389 451 q 397 424 389 432 q 436 408 410 411 q 464 389 464 407 q 447 360 464 376 q 392 342 428 342 l 378 342 q 236 386 282 342 q 168 503 182 435 q 144 546 160 546 q 129 528 135 546 q 122 492 122 510 q 133 431 122 471 q 186 351 144 392 q 259 301 222 315 q 363 283 296 288 q 397 282 375 282 q 560 325 465 282 q 619 358 603 346 q 656 403 635 371 q 683 446 664 417 q 701 478 697 467 q 704 519 704 489 l 704 551 q 689 668 703 633 q 579 813 654 760 q 413 867 504 867 q 388 865 396 867 q 293 829 319 860 q 275 819 285 819 q 258 842 258 819 m 271 974 q 283 978 279 965 q 281 990 286 985 q 268 986 272 999 q 271 974 265 979 m 232 1085 l 261 1110 l 369 1110 q 461 1107 461 1108 l 439 1100 q 379 1079 400 1090 q 346 1069 360 1069 q 321 1086 329 1069 q 310 1099 315 1099 q 289 1093 306 1100 q 208 1018 222 1065 q 206 992 206 1011 q 214 940 206 965 q 232 913 222 914 q 248 922 243 910 q 244 942 253 933 q 236 968 236 950 q 253 1015 236 996 q 290 1032 267 1032 q 314 1024 306 1032 q 322 1000 322 1015 q 301 950 322 972 q 285 921 285 933 q 288 904 285 918 q 296 886 292 889 q 310 886 300 883 q 394 894 318 889 q 435 896 411 896 q 518 879 469 896 q 576 861 575 861 q 583 890 578 861 q 586 924 586 903 q 533 1046 586 971 l 488 1113 l 517 1110 q 547 1100 538 1107 q 582 1056 557 1093 q 613 1003 607 1019 q 622 949 619 988 q 623 935 622 943 q 624 922 624 926 q 613 871 624 893 l 600 847 l 642 801 q 744 558 744 692 q 744 547 744 554 q 743 535 743 539 q 693 408 738 464 q 660 358 675 386 q 544 279 639 318 q 458 251 489 257 q 375 244 428 244 q 153 324 233 244 q 86 481 96 381 q 75 568 82 535 q 74 575 75 569 q 74 582 74 581 q 86 626 74 601 q 100 707 100 654 q 119 802 101 769 q 178 854 136 835 q 203 868 200 864 q 199 881 206 872 q 171 957 171 910 q 232 1085 171 1032 m 163 771 q 188 782 178 782 q 196 772 196 782 q 187 751 196 763 q 168 739 178 739 q 153 754 153 739 q 163 771 153 765 m 478 968 q 481 976 490 968 q 472 982 476 982 q 465 975 465 982 q 478 968 465 968 m 442 1017 q 471 1025 451 1025 q 510 1013 497 1025 q 522 983 522 1000 q 509 951 522 967 q 475 929 496 935 q 467 928 472 928 q 438 944 450 928 q 425 978 425 960 l 425 985 q 442 1017 431 1007 z "},"À":{"ha":644,"x_min":75,"x_max":571,"o":"m 329 349 q 319 379 329 365 q 303 393 310 393 q 265 383 293 393 q 219 365 219 369 q 239 351 219 363 q 281 317 264 339 l 296 294 l 313 310 q 329 349 329 325 m 149 330 q 157 340 149 330 q 165 363 165 350 q 158 387 165 375 q 143 399 150 399 q 139 397 140 399 q 123 368 131 392 q 115 326 115 344 q 122 310 115 310 q 149 330 132 310 m 388 500 q 382 531 388 531 q 294 488 368 529 q 214 438 221 447 q 215 410 190 410 q 279 423 235 410 q 333 446 324 436 q 368 464 350 460 q 384 473 381 467 q 388 500 388 479 m 260 869 q 228 896 233 896 q 224 889 224 896 q 253 817 224 865 q 312 750 269 790 q 365 710 354 710 q 374 701 374 710 q 310 675 374 675 q 238 667 265 675 q 174 630 218 661 q 129 589 129 599 q 144 582 129 582 q 186 594 169 582 q 343 636 229 625 l 394 640 l 410 608 q 423 543 418 590 q 431 433 428 496 q 435 353 433 369 q 438 313 438 317 q 428 282 438 290 q 411 274 417 274 q 394 329 394 274 q 388 395 394 367 q 372 424 381 424 q 367 385 367 424 q 314 268 367 317 q 274 239 283 239 q 265 254 265 239 q 239 294 265 272 q 190 317 213 317 q 152 286 171 317 q 133 229 133 256 q 138 210 133 218 q 171 179 144 197 q 218 156 197 161 q 251 168 238 150 q 283 183 265 183 q 307 182 297 183 q 318 181 311 182 q 328 181 325 181 q 439 225 399 181 q 469 249 460 249 q 485 224 478 249 q 494 204 489 204 q 513 247 500 204 q 533 397 533 325 q 501 579 533 492 q 460 667 479 640 q 400 725 442 694 q 352 767 376 743 q 299 825 328 792 q 260 869 271 858 m 203 914 q 242 933 225 933 q 307 885 264 933 q 451 743 407 768 q 521 649 486 725 q 567 490 556 574 q 571 419 571 457 q 551 249 571 331 q 501 151 531 168 q 481 147 493 147 q 451 163 451 147 q 440 176 451 176 q 419 168 432 176 q 357 144 400 154 q 299 118 311 135 q 268 101 286 101 q 261 102 267 101 q 251 103 256 103 q 171 129 219 106 q 107 172 122 153 q 94 207 94 186 q 96 226 94 218 q 97 247 97 235 q 90 276 97 265 q 81 313 81 290 q 121 410 81 363 q 163 438 146 438 q 192 453 176 438 q 283 513 222 488 q 365 571 365 547 q 360 586 365 582 q 342 590 356 590 q 330 590 339 590 q 315 589 321 589 q 219 569 268 586 q 124 542 143 542 q 101 549 115 542 q 75 569 75 561 q 128 632 75 583 q 261 721 204 704 q 267 726 267 722 q 236 772 267 733 q 182 875 182 843 q 203 914 182 897 m 167 243 q 185 252 176 253 q 199 242 194 251 q 200 236 200 240 q 191 218 200 226 q 172 210 182 210 q 158 225 158 210 q 167 243 158 235 z "},"à":{"ha":644,"x_min":75,"x_max":571,"o":"m 329 349 q 319 379 329 365 q 303 393 310 393 q 265 383 293 393 q 219 365 219 369 q 239 351 219 363 q 281 317 264 339 l 296 294 l 313 310 q 329 349 329 325 m 149 330 q 157 340 149 330 q 165 363 165 350 q 158 387 165 375 q 143 399 150 399 q 139 397 140 399 q 123 368 131 392 q 115 326 115 344 q 122 310 115 310 q 149 330 132 310 m 388 500 q 382 531 388 531 q 294 488 368 529 q 214 438 221 447 q 215 410 190 410 q 279 423 235 410 q 333 446 324 436 q 368 464 350 460 q 384 473 381 467 q 388 500 388 479 m 260 869 q 228 896 233 896 q 224 889 224 896 q 253 817 224 865 q 312 750 269 790 q 365 710 354 710 q 374 701 374 710 q 310 675 374 675 q 238 667 265 675 q 174 630 218 661 q 129 589 129 599 q 144 582 129 582 q 186 594 169 582 q 343 636 229 625 l 394 640 l 410 608 q 423 543 418 590 q 431 433 428 496 q 435 353 433 369 q 438 313 438 317 q 428 282 438 290 q 411 274 417 274 q 394 329 394 274 q 388 395 394 367 q 372 424 381 424 q 367 385 367 424 q 314 268 367 317 q 274 239 283 239 q 265 254 265 239 q 239 294 265 272 q 190 317 213 317 q 152 286 171 317 q 133 229 133 256 q 138 210 133 218 q 171 179 144 197 q 218 156 197 161 q 251 168 238 150 q 283 183 265 183 q 307 182 297 183 q 318 181 311 182 q 328 181 325 181 q 439 225 399 181 q 469 249 460 249 q 485 224 478 249 q 494 204 489 204 q 513 247 500 204 q 533 397 533 325 q 501 579 533 492 q 460 667 479 640 q 400 725 442 694 q 352 767 376 743 q 299 825 328 792 q 260 869 271 858 m 203 914 q 242 933 225 933 q 307 885 264 933 q 451 743 407 768 q 521 649 486 725 q 567 490 556 574 q 571 419 571 457 q 551 249 571 331 q 501 151 531 168 q 481 147 493 147 q 451 163 451 147 q 440 176 451 176 q 419 168 432 176 q 357 144 400 154 q 299 118 311 135 q 268 101 286 101 q 261 102 267 101 q 251 103 256 103 q 171 129 219 106 q 107 172 122 153 q 94 207 94 186 q 96 226 94 218 q 97 247 97 235 q 90 276 97 265 q 81 313 81 290 q 121 410 81 363 q 163 438 146 438 q 192 453 176 438 q 283 513 222 488 q 365 571 365 547 q 360 586 365 582 q 342 590 356 590 q 330 590 339 590 q 315 589 321 589 q 219 569 268 586 q 124 542 143 542 q 101 549 115 542 q 75 569 75 561 q 128 632 75 583 q 261 721 204 704 q 267 726 267 722 q 236 772 267 733 q 182 875 182 843 q 203 914 182 897 m 167 243 q 185 252 176 253 q 199 242 194 251 q 200 236 200 240 q 191 218 200 226 q 172 210 182 210 q 158 225 158 210 q 167 243 158 235 z "},"â":{"ha":729,"x_min":75,"x_max":658,"o":"m 350 806 q 346 810 350 810 q 333 803 340 810 q 325 792 325 797 q 329 785 325 786 q 342 788 335 781 q 350 806 349 796 m 404 789 q 428 810 428 789 q 424 836 428 822 l 418 864 l 407 843 q 390 806 394 818 q 390 792 388 794 q 404 789 392 789 m 501 832 q 479 872 479 861 q 472 886 479 883 q 461 879 465 889 q 463 838 456 867 q 472 810 467 815 q 496 804 476 806 l 524 803 l 501 832 m 369 879 q 399 911 369 879 q 443 951 428 943 q 465 960 458 960 q 483 939 474 960 q 608 856 506 897 q 658 824 658 836 q 603 781 658 801 q 483 761 547 761 l 474 761 q 406 754 424 761 q 290 744 381 744 q 244 749 250 744 q 239 757 239 751 q 282 799 239 775 q 369 879 311 815 m 317 301 q 322 313 322 304 q 308 338 322 321 l 296 354 l 288 335 q 263 317 279 317 q 233 306 247 317 q 210 300 218 296 q 202 299 204 303 q 200 285 200 294 q 201 272 200 276 q 206 268 203 267 q 317 301 257 296 m 265 364 q 257 367 265 367 q 221 358 238 367 q 207 336 207 350 q 208 325 207 326 q 215 329 210 324 q 240 338 224 338 q 258 346 250 338 q 265 364 265 354 m 143 361 q 117 403 119 403 q 115 386 113 403 q 131 327 115 368 q 154 286 147 286 q 163 301 163 286 q 143 361 163 322 m 472 404 q 428 415 460 415 l 415 415 q 367 411 372 415 q 358 388 358 407 q 374 326 358 360 q 387 303 382 308 q 400 297 392 297 q 411 299 407 297 q 453 322 433 303 q 481 365 474 342 q 486 385 486 382 q 472 404 486 394 m 303 419 q 283 419 289 425 q 281 408 276 413 q 297 403 285 403 q 314 410 315 403 q 303 419 314 415 m 426 468 q 400 472 417 472 q 347 458 361 472 q 346 456 346 457 q 357 451 346 451 q 406 457 358 451 q 431 464 431 461 q 426 468 432 465 m 507 661 q 443 672 481 672 q 369 663 408 672 q 315 645 329 653 q 300 625 300 638 q 307 615 300 615 q 342 622 310 615 q 428 633 382 633 q 499 622 476 633 q 551 535 551 597 q 507 465 551 481 l 485 457 l 507 436 q 526 404 526 419 q 510 353 526 389 q 455 285 499 326 q 396 244 411 244 q 360 265 381 244 q 342 282 347 281 q 326 276 336 283 q 297 267 311 267 q 275 260 282 267 q 243 246 269 254 q 204 224 215 235 q 197 213 197 214 q 219 188 197 206 q 356 136 275 136 q 444 151 394 136 q 504 177 486 165 q 533 210 522 189 q 560 231 544 231 q 579 217 571 231 q 592 201 588 201 q 601 306 601 201 l 601 351 q 602 466 601 401 q 603 533 603 531 q 577 608 603 574 q 507 661 551 642 m 397 699 q 450 704 419 704 q 594 658 549 704 q 634 592 626 626 q 642 436 642 557 l 642 378 q 628 157 640 175 q 594 132 611 132 q 568 147 581 132 l 551 167 l 525 149 q 363 104 453 104 l 343 104 q 247 121 279 110 q 153 195 197 139 q 86 328 108 251 q 75 386 75 365 q 101 440 75 419 q 125 450 113 450 q 168 408 147 450 l 186 374 l 206 386 q 271 446 225 400 q 317 488 303 478 q 361 503 332 497 q 425 508 385 508 q 460 507 449 508 l 514 503 l 510 526 q 494 569 506 549 q 472 592 483 589 q 413 600 443 600 q 347 589 381 600 q 290 574 304 574 q 260 603 260 574 q 281 653 260 628 q 333 685 303 679 q 367 692 342 686 q 397 699 393 697 z "},"Ç":{"ha":664,"x_min":75,"x_max":592,"o":"m 286 8 q 308 3 293 3 q 356 17 333 3 q 374 53 378 32 l 372 72 l 349 51 q 304 31 325 31 q 279 19 279 31 q 286 8 279 15 m 472 339 q 474 354 474 344 q 465 371 474 371 q 433 342 453 371 q 426 303 418 318 q 439 288 433 288 q 458 303 447 288 q 472 339 468 319 m 340 535 q 338 538 340 538 q 299 524 331 538 q 273 508 278 514 q 268 485 268 503 q 270 465 268 468 q 282 467 272 461 q 317 501 293 474 q 340 535 340 529 m 454 740 q 442 757 450 757 q 410 736 433 757 q 342 704 383 713 q 217 651 303 694 q 131 540 171 628 q 108 444 108 493 l 108 421 q 128 313 108 350 q 178 249 143 282 q 229 217 213 217 q 261 206 247 214 q 306 194 276 197 q 339 176 339 194 q 331 156 339 168 q 318 125 318 139 q 324 118 318 118 l 326 118 q 340 144 336 122 q 374 178 349 178 q 389 176 383 178 l 397 176 q 465 197 425 176 q 529 244 506 218 q 553 288 553 269 q 539 300 553 300 q 492 282 522 300 q 429 256 447 256 q 381 301 406 256 l 368 325 l 325 319 q 297 317 300 317 q 258 339 281 317 q 229 404 235 363 q 228 436 228 414 q 232 476 228 460 q 236 504 236 493 q 231 531 236 519 q 226 551 226 543 q 236 581 226 563 q 262 611 246 597 q 289 625 278 625 q 294 622 292 625 q 293 607 300 617 q 264 558 264 567 q 267 551 264 554 q 274 549 269 549 q 318 564 283 549 q 361 588 361 583 q 350 604 361 593 q 342 621 342 613 q 364 639 342 639 q 397 613 379 639 q 446 578 419 578 q 493 592 463 578 q 539 628 531 610 q 535 653 550 653 q 514 675 524 653 q 483 708 510 688 q 454 740 457 729 m 425 783 q 469 815 460 815 l 471 815 q 483 785 478 813 q 521 726 488 757 q 560 700 549 700 q 569 703 561 700 q 579 706 574 706 q 589 690 589 706 q 583 660 589 676 q 500 563 565 603 q 449 546 469 546 q 426 547 435 546 q 399 549 414 549 q 379 540 382 549 q 340 490 376 529 q 281 433 303 450 q 264 411 264 421 q 268 392 264 406 q 318 354 281 354 q 340 356 332 354 q 361 357 349 357 q 383 355 372 357 q 396 353 393 353 q 431 378 407 353 q 479 408 460 408 q 504 361 504 408 l 504 331 l 536 335 q 556 336 544 336 q 579 317 568 336 q 586 279 592 294 q 523 204 578 251 q 429 144 468 157 q 396 128 396 135 q 406 106 396 125 q 417 65 417 88 q 383 -3 417 26 q 299 -33 349 -32 l 297 -33 q 255 -15 278 -33 q 232 19 232 3 q 247 47 232 36 q 286 58 263 58 q 321 67 321 58 q 304 82 321 72 q 276 117 276 97 q 281 133 276 125 q 283 143 283 142 q 254 158 283 149 q 140 226 185 179 q 89 304 103 267 q 75 403 75 342 q 149 622 75 536 q 351 739 224 707 q 425 783 386 749 m 432 656 q 450 667 440 667 q 479 651 461 667 q 492 637 492 642 q 485 622 493 632 q 471 611 474 611 q 444 628 465 611 q 432 656 422 644 z "},"ç":{"ha":664,"x_min":75,"x_max":592,"o":"m 286 8 q 308 3 293 3 q 356 17 333 3 q 374 53 378 32 l 372 72 l 349 51 q 304 31 325 31 q 279 19 279 31 q 286 8 279 15 m 472 339 q 474 354 474 344 q 465 371 474 371 q 433 342 453 371 q 426 303 418 318 q 439 288 433 288 q 458 303 447 288 q 472 339 468 319 m 340 535 q 338 538 340 538 q 299 524 331 538 q 273 508 278 514 q 268 485 268 503 q 270 465 268 468 q 282 467 272 461 q 317 501 293 474 q 340 535 340 529 m 454 740 q 442 757 450 757 q 410 736 433 757 q 342 704 383 713 q 217 651 303 694 q 131 540 171 628 q 108 444 108 493 l 108 421 q 128 313 108 350 q 178 249 143 282 q 229 217 213 217 q 261 206 247 214 q 306 194 276 197 q 339 176 339 194 q 331 156 339 168 q 318 125 318 139 q 324 118 318 118 l 326 118 q 340 144 336 122 q 374 178 349 178 q 389 176 383 178 l 397 176 q 465 197 425 176 q 529 244 506 218 q 553 288 553 269 q 539 300 553 300 q 492 282 522 300 q 429 256 447 256 q 381 301 406 256 l 368 325 l 325 319 q 297 317 300 317 q 258 339 281 317 q 229 404 235 363 q 228 436 228 414 q 232 476 228 460 q 236 504 236 493 q 231 531 236 519 q 226 551 226 543 q 236 581 226 563 q 262 611 246 597 q 289 625 278 625 q 294 622 292 625 q 293 607 300 617 q 264 558 264 567 q 267 551 264 554 q 274 549 269 549 q 318 564 283 549 q 361 588 361 583 q 350 604 361 593 q 342 621 342 613 q 364 639 342 639 q 397 613 379 639 q 446 578 419 578 q 493 592 463 578 q 539 628 531 610 q 535 653 550 653 q 514 675 524 653 q 483 708 510 688 q 454 740 457 729 m 425 783 q 469 815 460 815 l 471 815 q 483 785 478 813 q 521 726 488 757 q 560 700 549 700 q 569 703 561 700 q 579 706 574 706 q 589 690 589 706 q 583 660 589 676 q 500 563 565 603 q 449 546 469 546 q 426 547 435 546 q 399 549 414 549 q 379 540 382 549 q 340 490 376 529 q 281 433 303 450 q 264 411 264 421 q 268 392 264 406 q 318 354 281 354 q 340 356 332 354 q 361 357 349 357 q 383 355 372 357 q 396 353 393 353 q 431 378 407 353 q 479 408 460 408 q 504 361 504 408 l 504 331 l 536 335 q 556 336 544 336 q 579 317 568 336 q 586 279 592 294 q 523 204 578 251 q 429 144 468 157 q 396 128 396 135 q 406 106 396 125 q 417 65 417 88 q 383 -3 417 26 q 299 -33 349 -32 l 297 -33 q 255 -15 278 -33 q 232 19 232 3 q 247 47 232 36 q 286 58 263 58 q 321 67 321 58 q 304 82 321 72 q 276 117 276 97 q 281 133 276 125 q 283 143 283 142 q 254 158 283 149 q 140 226 185 179 q 89 304 103 267 q 75 403 75 342 q 149 622 75 536 q 351 739 224 707 q 425 783 386 749 m 432 656 q 450 667 440 667 q 479 651 461 667 q 492 637 492 642 q 485 622 493 632 q 471 611 474 611 q 444 628 465 611 q 432 656 422 644 z "},"È":{"ha":621,"x_min":74,"x_max":550,"o":"m 507 224 q 503 238 507 238 q 490 224 497 238 q 483 203 483 211 q 485 199 483 199 q 493 199 488 196 q 503 210 499 203 q 507 224 507 217 m 264 213 q 241 226 258 218 q 217 235 224 235 q 214 233 214 235 q 238 216 214 231 q 267 201 261 201 q 264 213 272 201 m 389 435 q 319 443 329 440 q 306 445 310 446 q 301 440 303 444 q 301 426 299 436 l 303 406 l 383 407 q 472 415 467 410 q 474 418 474 417 q 389 435 474 429 m 317 829 q 251 851 264 851 q 244 846 244 851 q 249 817 244 835 q 254 794 254 800 q 197 706 254 764 q 121 549 133 639 q 114 465 114 500 q 168 279 114 353 q 196 244 193 244 q 207 263 199 244 q 226 279 214 279 q 271 263 242 279 q 406 224 336 224 q 440 231 440 224 q 388 253 440 238 q 278 306 310 272 q 261 347 261 322 q 262 357 261 350 q 263 368 263 364 l 263 388 q 258 413 263 406 q 235 439 253 421 q 208 478 208 464 q 210 490 208 486 q 241 557 214 510 q 288 626 268 604 q 335 646 306 646 q 438 600 378 646 q 471 586 471 574 q 444 622 471 599 q 388 660 418 646 q 340 693 340 682 q 350 708 340 699 q 379 725 369 725 q 401 751 401 725 q 399 769 401 763 l 390 790 q 374 770 385 783 q 358 750 364 757 l 332 763 q 312 776 314 772 q 317 792 310 781 q 344 807 328 807 l 353 807 q 360 808 360 807 q 317 829 360 811 m 200 911 q 214 925 207 925 q 385 849 232 925 q 440 772 432 824 q 442 757 442 767 q 425 725 442 742 l 407 706 l 447 678 q 522 563 522 625 q 506 519 522 539 q 479 504 490 504 q 440 533 465 504 q 383 581 419 560 q 326 603 347 603 q 294 585 313 603 q 261 540 275 567 q 253 519 253 525 q 267 507 254 514 q 458 469 303 482 q 540 456 529 464 q 549 440 549 449 q 504 392 549 415 q 389 367 471 371 q 303 357 307 361 q 301 354 301 356 q 316 333 301 347 q 350 310 331 319 q 413 290 369 300 q 478 281 456 281 q 489 282 488 281 q 507 288 494 288 q 539 272 528 288 q 550 244 550 257 q 522 189 550 225 l 494 154 l 431 144 q 367 140 397 140 q 100 315 169 140 q 74 440 74 385 q 78 506 74 468 q 111 638 86 586 q 188 738 136 690 q 213 775 213 758 q 211 789 213 783 q 196 892 196 871 q 200 911 196 903 z "},"è":{"ha":621,"x_min":74,"x_max":550,"o":"m 507 224 q 503 238 507 238 q 490 224 497 238 q 483 203 483 211 q 485 199 483 199 q 493 199 488 196 q 503 210 499 203 q 507 224 507 217 m 264 213 q 241 226 258 218 q 217 235 224 235 q 214 233 214 235 q 238 216 214 231 q 267 201 261 201 q 264 213 272 201 m 389 435 q 319 443 329 440 q 306 445 310 446 q 301 440 303 444 q 301 426 299 436 l 303 406 l 383 407 q 472 415 467 410 q 474 418 474 417 q 389 435 474 429 m 317 829 q 251 851 264 851 q 244 846 244 851 q 249 817 244 835 q 254 794 254 800 q 197 706 254 764 q 121 549 133 639 q 114 465 114 500 q 168 279 114 353 q 196 244 193 244 q 207 263 199 244 q 226 279 214 279 q 271 263 242 279 q 406 224 336 224 q 440 231 440 224 q 388 253 440 238 q 278 306 310 272 q 261 347 261 322 q 262 357 261 350 q 263 368 263 364 l 263 388 q 258 413 263 406 q 235 439 253 421 q 208 478 208 464 q 210 490 208 486 q 241 557 214 510 q 288 626 268 604 q 335 646 306 646 q 438 600 378 646 q 471 586 471 574 q 444 622 471 599 q 388 660 418 646 q 340 693 340 682 q 350 708 340 699 q 379 725 369 725 q 401 751 401 725 q 399 769 401 763 l 390 790 q 374 770 385 783 q 358 750 364 757 l 332 763 q 312 776 314 772 q 317 792 310 781 q 344 807 328 807 l 353 807 q 360 808 360 807 q 317 829 360 811 m 200 911 q 214 925 207 925 q 385 849 232 925 q 440 772 432 824 q 442 757 442 767 q 425 725 442 742 l 407 706 l 447 678 q 522 563 522 625 q 506 519 522 539 q 479 504 490 504 q 440 533 465 504 q 383 581 419 560 q 326 603 347 603 q 294 585 313 603 q 261 540 275 567 q 253 519 253 525 q 267 507 254 514 q 458 469 303 482 q 540 456 529 464 q 549 440 549 449 q 504 392 549 415 q 389 367 471 371 q 303 357 307 361 q 301 354 301 356 q 316 333 301 347 q 350 310 331 319 q 413 290 369 300 q 478 281 456 281 q 489 282 488 281 q 507 288 494 288 q 539 272 528 288 q 550 244 550 257 q 522 189 550 225 l 494 154 l 431 144 q 367 140 397 140 q 100 315 169 140 q 74 440 74 385 q 78 506 74 468 q 111 638 86 586 q 188 738 136 690 q 213 775 213 758 q 211 789 213 783 q 196 892 196 871 q 200 911 196 903 z "},"É":{"ha":646,"x_min":74,"x_max":572,"o":"m 328 488 q 293 501 306 501 q 272 494 286 501 q 260 468 260 489 q 279 438 260 438 q 322 450 292 438 q 353 468 353 463 q 328 488 353 472 m 439 906 q 432 925 439 925 q 385 865 418 925 q 326 789 365 832 q 253 721 286 746 q 176 629 211 690 q 125 494 142 568 q 114 426 114 442 q 118 390 114 414 q 163 290 129 338 q 239 219 197 242 q 311 204 269 204 q 386 215 344 204 q 431 224 417 224 q 453 193 453 224 q 460 174 453 174 q 499 204 465 174 q 526 234 519 224 q 532 261 532 244 q 522 292 532 292 q 503 271 515 292 q 475 244 489 244 q 457 257 457 244 q 469 278 457 267 q 489 300 489 294 q 500 317 489 306 q 485 340 519 332 q 476 342 482 342 q 424 319 463 342 q 371 299 389 299 q 344 318 356 299 q 340 335 340 326 q 385 401 340 358 q 419 439 419 433 q 417 440 419 440 q 368 426 406 440 q 261 392 281 392 q 242 399 251 392 q 219 454 219 414 q 226 488 219 475 q 307 539 254 539 q 374 517 342 539 q 398 501 388 507 q 408 500 408 496 q 386 542 408 513 q 324 594 361 579 q 289 615 289 610 q 300 632 289 625 q 326 639 311 639 q 424 565 369 639 q 467 519 458 519 q 471 526 471 519 q 469 540 471 535 q 431 621 458 594 q 383 649 421 631 q 315 678 344 668 q 304 689 304 682 q 363 767 304 704 q 424 842 408 814 q 439 906 439 869 m 408 946 q 449 967 433 967 q 472 950 461 967 q 481 918 481 936 q 479 900 481 907 q 399 765 471 839 l 349 715 l 397 693 q 464 654 443 672 q 497 607 485 636 q 515 529 515 567 q 453 417 515 467 q 385 356 385 364 q 388 350 385 353 q 396 346 392 346 q 432 361 404 346 q 496 381 467 381 q 551 353 531 381 q 572 275 572 325 q 568 247 572 258 q 509 171 556 211 q 435 131 463 131 q 415 153 422 131 q 396 172 408 172 q 379 171 386 172 q 289 160 310 160 q 221 179 263 160 q 144 235 181 199 q 89 315 108 272 q 74 383 74 346 q 75 433 74 413 q 96 553 78 511 q 156 653 119 603 q 224 731 192 704 q 351 875 308 803 q 408 946 376 918 z "},"é":{"ha":646,"x_min":74,"x_max":572,"o":"m 328 488 q 293 501 306 501 q 272 494 286 501 q 260 468 260 489 q 279 438 260 438 q 322 450 292 438 q 353 468 353 463 q 328 488 353 472 m 439 906 q 432 925 439 925 q 385 865 418 925 q 326 789 365 832 q 253 721 286 746 q 176 629 211 690 q 125 494 142 568 q 114 426 114 442 q 118 390 114 414 q 163 290 129 338 q 239 219 197 242 q 311 204 269 204 q 386 215 344 204 q 431 224 417 224 q 453 193 453 224 q 460 174 453 174 q 499 204 465 174 q 526 234 519 224 q 532 261 532 244 q 522 292 532 292 q 503 271 515 292 q 475 244 489 244 q 457 257 457 244 q 469 278 457 267 q 489 300 489 294 q 500 317 489 306 q 485 340 519 332 q 476 342 482 342 q 424 319 463 342 q 371 299 389 299 q 344 318 356 299 q 340 335 340 326 q 385 401 340 358 q 419 439 419 433 q 417 440 419 440 q 368 426 406 440 q 261 392 281 392 q 242 399 251 392 q 219 454 219 414 q 226 488 219 475 q 307 539 254 539 q 374 517 342 539 q 398 501 388 507 q 408 500 408 496 q 386 542 408 513 q 324 594 361 579 q 289 615 289 610 q 300 632 289 625 q 326 639 311 639 q 424 565 369 639 q 467 519 458 519 q 471 526 471 519 q 469 540 471 535 q 431 621 458 594 q 383 649 421 631 q 315 678 344 668 q 304 689 304 682 q 363 767 304 704 q 424 842 408 814 q 439 906 439 869 m 408 946 q 449 967 433 967 q 472 950 461 967 q 481 918 481 936 q 479 900 481 907 q 399 765 471 839 l 349 715 l 397 693 q 464 654 443 672 q 497 607 485 636 q 515 529 515 567 q 453 417 515 467 q 385 356 385 364 q 388 350 385 353 q 396 346 392 346 q 432 361 404 346 q 496 381 467 381 q 551 353 531 381 q 572 275 572 325 q 568 247 572 258 q 509 171 556 211 q 435 131 463 131 q 415 153 422 131 q 396 172 408 172 q 379 171 386 172 q 289 160 310 160 q 221 179 263 160 q 144 235 181 199 q 89 315 108 272 q 74 383 74 346 q 75 433 74 413 q 96 553 78 511 q 156 653 119 603 q 224 731 192 704 q 351 875 308 803 q 408 946 376 918 z "},"Ê":{"ha":606,"x_min":75,"x_max":532,"o":"m 249 238 q 197 265 217 246 q 165 279 176 286 q 157 269 157 274 q 165 250 157 265 q 268 188 189 210 q 361 174 318 174 q 451 203 419 174 q 469 225 469 218 q 428 235 469 235 q 374 233 396 235 q 318 232 353 232 q 249 238 265 232 m 232 297 q 217 307 217 315 q 231 294 217 306 q 232 297 247 281 m 331 283 q 313 339 326 297 q 293 381 299 381 q 247 354 279 381 q 251 346 246 353 q 269 325 257 339 q 299 286 292 303 q 324 275 304 272 q 331 283 333 275 m 251 395 q 263 402 251 395 q 274 421 274 408 q 251 433 274 433 q 229 431 246 433 q 208 418 217 429 q 200 397 200 407 q 208 383 200 388 l 211 383 l 214 382 q 251 395 229 382 m 365 528 q 339 524 339 547 q 357 503 339 503 q 369 508 364 503 q 365 528 379 518 m 303 526 q 300 548 303 543 q 286 553 297 553 q 229 501 261 553 q 222 483 222 488 q 253 474 222 474 q 303 526 303 474 m 215 629 q 201 638 208 638 q 168 614 188 638 q 121 433 121 560 q 123 363 121 378 q 136 336 125 347 q 153 325 147 325 q 156 326 154 325 q 158 328 157 326 q 160 333 160 331 q 162 338 161 335 q 163 345 163 342 q 163 353 163 349 q 163 363 163 358 q 164 374 164 367 q 164 385 164 381 q 238 558 168 489 l 267 588 l 243 604 q 215 629 219 619 m 476 561 q 449 636 453 631 q 444 638 447 638 q 410 614 438 638 l 375 585 l 396 565 q 424 521 424 542 q 407 488 424 504 q 357 467 388 467 q 317 457 317 467 q 336 442 317 450 q 386 432 356 432 q 460 445 426 432 q 493 481 493 458 q 476 561 493 508 m 251 700 q 225 710 246 710 q 207 704 211 710 q 218 688 203 697 q 249 663 242 671 q 294 629 261 646 q 344 613 328 613 q 353 618 353 613 q 364 624 353 624 q 390 638 371 624 l 407 653 l 390 647 q 360 661 374 643 l 347 678 l 326 658 q 296 639 304 639 q 286 656 286 639 q 287 660 286 657 q 288 667 288 664 q 270 686 288 674 q 251 700 253 699 m 410 660 q 440 682 419 664 q 461 710 461 700 q 458 715 461 713 q 453 718 456 718 q 422 697 440 718 q 404 664 404 675 q 408 660 404 660 l 410 660 m 369 717 q 346 778 369 724 q 318 832 322 832 q 298 786 314 832 q 282 729 282 740 q 340 711 282 711 q 369 717 369 711 m 438 749 q 444 758 444 756 q 406 806 444 767 q 365 839 372 839 q 363 835 363 839 q 381 790 363 825 q 422 740 407 740 q 438 749 429 740 m 289 844 q 283 846 289 846 q 242 803 276 844 q 207 753 207 761 q 224 744 207 744 q 260 761 250 744 q 276 803 264 768 q 289 844 288 838 m 279 899 q 332 939 319 939 q 388 888 346 939 q 497 788 460 800 q 497 768 506 783 q 500 739 489 750 q 510 718 510 729 q 496 692 510 706 l 482 678 l 507 607 q 532 501 532 536 q 522 460 532 478 q 482 422 513 442 q 433 403 451 403 q 418 396 418 403 q 378 388 418 388 q 340 381 340 388 l 343 372 q 369 310 353 342 q 393 275 386 278 q 401 274 394 274 q 443 281 418 274 q 478 288 471 288 q 494 279 486 288 q 506 250 506 269 q 479 190 506 221 q 438 151 454 160 q 374 136 422 143 q 331 132 347 132 q 260 144 310 132 q 172 176 194 161 q 103 285 122 210 q 86 342 89 335 q 75 417 75 372 q 85 503 75 460 q 149 638 101 585 l 175 665 l 157 682 q 128 722 144 693 q 110 746 117 746 q 103 761 103 746 q 124 784 103 772 q 168 796 146 796 q 211 826 183 796 q 279 899 257 876 z "},"ê":{"ha":606,"x_min":75,"x_max":532,"o":"m 249 238 q 197 265 217 246 q 165 279 176 286 q 157 269 157 274 q 165 250 157 265 q 268 188 189 210 q 361 174 318 174 q 451 203 419 174 q 469 225 469 218 q 428 235 469 235 q 374 233 396 235 q 318 232 353 232 q 249 238 265 232 m 232 297 q 217 307 217 315 q 231 294 217 306 q 232 297 247 281 m 331 283 q 313 339 326 297 q 293 381 299 381 q 247 354 279 381 q 251 346 246 353 q 269 325 257 339 q 299 286 292 303 q 324 275 304 272 q 331 283 333 275 m 251 395 q 263 402 251 395 q 274 421 274 408 q 251 433 274 433 q 229 431 246 433 q 208 418 217 429 q 200 397 200 407 q 208 383 200 388 l 211 383 l 214 382 q 251 395 229 382 m 365 528 q 339 524 339 547 q 357 503 339 503 q 369 508 364 503 q 365 528 379 518 m 303 526 q 300 548 303 543 q 286 553 297 553 q 229 501 261 553 q 222 483 222 488 q 253 474 222 474 q 303 526 303 474 m 215 629 q 201 638 208 638 q 168 614 188 638 q 121 433 121 560 q 123 363 121 378 q 136 336 125 347 q 153 325 147 325 q 156 326 154 325 q 158 328 157 326 q 160 333 160 331 q 162 338 161 335 q 163 345 163 342 q 163 353 163 349 q 163 363 163 358 q 164 374 164 367 q 164 385 164 381 q 238 558 168 489 l 267 588 l 243 604 q 215 629 219 619 m 476 561 q 449 636 453 631 q 444 638 447 638 q 410 614 438 638 l 375 585 l 396 565 q 424 521 424 542 q 407 488 424 504 q 357 467 388 467 q 317 457 317 467 q 336 442 317 450 q 386 432 356 432 q 460 445 426 432 q 493 481 493 458 q 476 561 493 508 m 251 700 q 225 710 246 710 q 207 704 211 710 q 218 688 203 697 q 249 663 242 671 q 294 629 261 646 q 344 613 328 613 q 353 618 353 613 q 364 624 353 624 q 390 638 371 624 l 407 653 l 390 647 q 360 661 374 643 l 347 678 l 326 658 q 296 639 304 639 q 286 656 286 639 q 287 660 286 657 q 288 667 288 664 q 270 686 288 674 q 251 700 253 699 m 410 660 q 440 682 419 664 q 461 710 461 700 q 458 715 461 713 q 453 718 456 718 q 422 697 440 718 q 404 664 404 675 q 408 660 404 660 l 410 660 m 369 717 q 346 778 369 724 q 318 832 322 832 q 298 786 314 832 q 282 729 282 740 q 340 711 282 711 q 369 717 369 711 m 438 749 q 444 758 444 756 q 406 806 444 767 q 365 839 372 839 q 363 835 363 839 q 381 790 363 825 q 422 740 407 740 q 438 749 429 740 m 289 844 q 283 846 289 846 q 242 803 276 844 q 207 753 207 761 q 224 744 207 744 q 260 761 250 744 q 276 803 264 768 q 289 844 288 838 m 279 899 q 332 939 319 939 q 388 888 346 939 q 497 788 460 800 q 497 768 506 783 q 500 739 489 750 q 510 718 510 729 q 496 692 510 706 l 482 678 l 507 607 q 532 501 532 536 q 522 460 532 478 q 482 422 513 442 q 433 403 451 403 q 418 396 418 403 q 378 388 418 388 q 340 381 340 388 l 343 372 q 369 310 353 342 q 393 275 386 278 q 401 274 394 274 q 443 281 418 274 q 478 288 471 288 q 494 279 486 288 q 506 250 506 269 q 479 190 506 221 q 438 151 454 160 q 374 136 422 143 q 331 132 347 132 q 260 144 310 132 q 172 176 194 161 q 103 285 122 210 q 86 342 89 335 q 75 417 75 372 q 85 503 75 460 q 149 638 101 585 l 175 665 l 157 682 q 128 722 144 693 q 110 746 117 746 q 103 761 103 746 q 124 784 103 772 q 168 796 146 796 q 211 826 183 796 q 279 899 257 876 z "},"Ë":{"ha":646,"x_min":75,"x_max":575,"o":"m 392 368 q 404 389 404 383 q 303 394 404 394 q 222 390 226 394 q 217 374 217 385 q 226 346 217 356 q 257 360 236 338 q 311 381 276 381 q 363 367 344 381 l 382 353 l 392 368 m 321 529 q 275 539 304 539 q 246 525 246 539 q 278 506 246 506 q 304 507 294 506 q 338 517 338 511 q 321 529 338 521 m 410 539 q 393 569 400 558 q 372 590 386 579 q 340 601 357 601 q 310 594 324 601 q 297 588 297 589 q 344 567 297 583 q 383 535 369 556 q 411 510 399 510 q 421 513 421 510 q 410 539 422 517 m 469 575 q 424 617 428 617 q 422 614 422 617 q 452 556 422 603 q 497 499 482 510 q 521 486 514 486 q 525 492 525 486 q 469 575 525 517 m 358 660 q 301 667 338 667 q 218 657 257 667 q 161 619 189 649 q 128 561 133 589 q 118 531 125 546 q 111 500 111 515 q 114 469 111 497 q 167 285 125 358 q 271 196 210 211 q 336 188 300 188 q 461 221 417 188 q 504 238 482 238 q 529 247 529 238 q 522 263 529 251 q 511 293 511 279 q 496 325 511 310 l 481 339 l 467 317 q 439 294 451 294 q 426 301 426 294 q 443 328 426 311 q 460 349 460 344 q 446 360 460 353 q 436 363 438 363 q 410 342 426 363 q 372 318 388 318 q 335 331 360 318 q 297 344 308 344 q 293 342 293 344 q 301 329 293 338 q 317 301 317 314 q 304 279 317 289 q 272 267 292 267 q 224 283 249 267 q 188 325 200 299 q 178 361 178 344 q 208 414 178 389 l 235 435 l 358 435 q 486 439 482 435 q 489 443 489 442 q 338 467 489 460 q 228 474 253 469 q 204 497 204 479 q 207 517 204 500 q 250 586 213 553 q 342 639 288 619 l 378 653 l 358 660 m 276 943 q 240 968 246 968 q 209 939 233 968 q 175 892 185 910 q 167 831 167 875 q 208 728 167 746 q 225 713 225 719 q 274 706 225 706 l 299 706 l 324 706 q 403 688 371 706 l 435 669 l 476 708 q 526 774 519 749 q 532 818 532 793 q 518 914 532 876 l 510 935 l 494 918 q 465 903 476 903 q 431 918 453 903 q 406 929 415 929 q 382 925 397 929 q 336 917 356 917 q 276 943 307 917 m 210 982 q 268 1032 256 1032 q 279 1021 275 1032 q 321 965 292 982 q 349 956 336 956 q 382 964 357 956 q 424 975 415 975 q 451 960 433 975 q 474 949 465 949 q 489 967 489 949 q 501 995 489 981 q 522 1010 513 1010 l 524 1008 q 526 1008 525 1008 q 553 944 539 1004 q 568 839 568 885 q 553 756 568 789 q 499 689 538 724 l 460 654 l 500 613 q 568 481 568 540 q 559 440 568 457 q 538 424 550 424 q 506 408 531 424 l 481 393 l 501 378 q 547 321 547 344 q 561 286 547 303 q 575 258 575 269 q 543 219 575 243 q 492 194 511 194 q 454 176 481 194 q 374 151 429 160 q 315 146 332 146 q 121 275 186 146 q 75 458 75 369 q 149 650 75 574 q 181 690 181 683 q 171 699 181 694 q 142 742 156 704 q 129 818 129 781 q 145 896 129 863 q 210 982 161 929 m 296 797 q 300 818 307 815 q 289 811 297 819 q 263 792 275 800 q 269 782 261 783 q 296 797 286 781 m 285 839 q 281 856 306 839 q 271 861 274 861 q 246 846 260 861 q 232 817 232 831 q 234 806 232 806 q 251 819 236 806 q 285 839 271 839 m 211 826 q 235 860 211 838 q 271 882 258 882 q 304 861 283 882 q 324 828 324 842 q 322 815 324 819 q 301 778 318 796 q 268 760 283 760 q 235 778 253 760 q 213 815 217 797 q 211 826 211 819 m 428 860 l 422 860 q 390 842 403 860 q 375 804 375 822 q 383 783 375 792 q 399 775 392 775 q 432 793 410 775 q 453 829 453 811 q 448 851 453 846 q 428 860 443 857 m 407 875 q 431 881 424 881 q 463 867 450 881 q 475 835 475 854 q 457 790 475 813 q 408 768 438 768 q 369 776 378 768 q 361 801 361 785 q 374 844 361 822 q 407 875 388 867 m 400 824 q 428 840 414 842 q 435 832 435 839 q 422 810 435 825 q 404 796 410 796 q 393 804 394 796 q 400 824 392 813 z "},"ë":{"ha":646,"x_min":75,"x_max":575,"o":"m 392 368 q 404 389 404 383 q 303 394 404 394 q 222 390 226 394 q 217 374 217 385 q 226 346 217 356 q 257 360 236 338 q 311 381 276 381 q 363 367 344 381 l 382 353 l 392 368 m 321 529 q 275 539 304 539 q 246 525 246 539 q 278 506 246 506 q 304 507 294 506 q 338 517 338 511 q 321 529 338 521 m 410 539 q 393 569 400 558 q 372 590 386 579 q 340 601 357 601 q 310 594 324 601 q 297 588 297 589 q 344 567 297 583 q 383 535 369 556 q 411 510 399 510 q 421 513 421 510 q 410 539 422 517 m 469 575 q 424 617 428 617 q 422 614 422 617 q 452 556 422 603 q 497 499 482 510 q 521 486 514 486 q 525 492 525 486 q 469 575 525 517 m 358 660 q 301 667 338 667 q 218 657 257 667 q 161 619 189 649 q 128 561 133 589 q 118 531 125 546 q 111 500 111 515 q 114 469 111 497 q 167 285 125 358 q 271 196 210 211 q 336 188 300 188 q 461 221 417 188 q 504 238 482 238 q 529 247 529 238 q 522 263 529 251 q 511 293 511 279 q 496 325 511 310 l 481 339 l 467 317 q 439 294 451 294 q 426 301 426 294 q 443 328 426 311 q 460 349 460 344 q 446 360 460 353 q 436 363 438 363 q 410 342 426 363 q 372 318 388 318 q 335 331 360 318 q 297 344 308 344 q 293 342 293 344 q 301 329 293 338 q 317 301 317 314 q 304 279 317 289 q 272 267 292 267 q 224 283 249 267 q 188 325 200 299 q 178 361 178 344 q 208 414 178 389 l 235 435 l 358 435 q 486 439 482 435 q 489 443 489 442 q 338 467 489 460 q 228 474 253 469 q 204 497 204 479 q 207 517 204 500 q 250 586 213 553 q 342 639 288 619 l 378 653 l 358 660 m 276 943 q 240 968 246 968 q 209 939 233 968 q 175 892 185 910 q 167 831 167 875 q 208 728 167 746 q 225 713 225 719 q 274 706 225 706 l 299 706 l 324 706 q 403 688 371 706 l 435 669 l 476 708 q 526 774 519 749 q 532 818 532 793 q 518 914 532 876 l 510 935 l 494 918 q 465 903 476 903 q 431 918 453 903 q 406 929 415 929 q 382 925 397 929 q 336 917 356 917 q 276 943 307 917 m 210 982 q 268 1032 256 1032 q 279 1021 275 1032 q 321 965 292 982 q 349 956 336 956 q 382 964 357 956 q 424 975 415 975 q 451 960 433 975 q 474 949 465 949 q 489 967 489 949 q 501 995 489 981 q 522 1010 513 1010 l 524 1008 q 526 1008 525 1008 q 553 944 539 1004 q 568 839 568 885 q 553 756 568 789 q 499 689 538 724 l 460 654 l 500 613 q 568 481 568 540 q 559 440 568 457 q 538 424 550 424 q 506 408 531 424 l 481 393 l 501 378 q 547 321 547 344 q 561 286 547 303 q 575 258 575 269 q 543 219 575 243 q 492 194 511 194 q 454 176 481 194 q 374 151 429 160 q 315 146 332 146 q 121 275 186 146 q 75 458 75 369 q 149 650 75 574 q 181 690 181 683 q 171 699 181 694 q 142 742 156 704 q 129 818 129 781 q 145 896 129 863 q 210 982 161 929 m 296 797 q 300 818 307 815 q 289 811 297 819 q 263 792 275 800 q 269 782 261 783 q 296 797 286 781 m 285 839 q 281 856 306 839 q 271 861 274 861 q 246 846 260 861 q 232 817 232 831 q 234 806 232 806 q 251 819 236 806 q 285 839 271 839 m 211 826 q 235 860 211 838 q 271 882 258 882 q 304 861 283 882 q 324 828 324 842 q 322 815 324 819 q 301 778 318 796 q 268 760 283 760 q 235 778 253 760 q 213 815 217 797 q 211 826 211 819 m 428 860 l 422 860 q 390 842 403 860 q 375 804 375 822 q 383 783 375 792 q 399 775 392 775 q 432 793 410 775 q 453 829 453 811 q 448 851 453 846 q 428 860 443 857 m 407 875 q 431 881 424 881 q 463 867 450 881 q 475 835 475 854 q 457 790 475 813 q 408 768 438 768 q 369 776 378 768 q 361 801 361 785 q 374 844 361 822 q 407 875 388 867 m 400 824 q 428 840 414 842 q 435 832 435 839 q 422 810 435 825 q 404 796 410 796 q 393 804 394 796 q 400 824 392 813 z "}}}
